<svg width="50" height="50" viewBox="0 0 50 50" fill="none" xmlns="http://www.w3.org/2000/svg">
<g id="orientation (1) 1" clip-path="url(#clip0_56_847)">
<g id="Group">
<path id="Vector" d="M27.7988 0.333384H4.12628C3.62843 0.332216 3.13524 0.4297 2.67495 0.620257C2.21466 0.810813 1.79632 1.0907 1.44387 1.44389C1.09143 1.79706 0.811808 2.21662 0.621021 2.6785C0.430234 3.14039 0.332029 3.63554 0.332031 4.13561V33.0868C0.332031 33.586 0.429943 34.0805 0.620177 34.5418C0.810412 35.0031 1.08925 35.4223 1.44075 35.7753C1.79226 36.1284 2.20956 36.4084 2.66882 36.5996C3.12809 36.7906 3.62032 36.889 4.11743 36.889H45.883C46.8868 36.889 47.8497 36.4883 48.5596 35.7753C49.2695 35.0623 49.6683 34.0952 49.6683 33.0868V4.13561C49.6683 3.63629 49.5704 3.14187 49.3802 2.68056C49.1899 2.21925 48.9111 1.8001 48.5596 1.44703C48.2081 1.09396 47.7908 0.813892 47.3315 0.622812C46.8722 0.431732 46.3801 0.333384 45.883 0.333384H27.7988Z" fill="#FFBA93"/>
<path id="Vector_2" d="M45.8827 37.2222H4.11726C3.02566 37.221 1.97909 36.785 1.20721 36.0097C0.435328 35.2344 0.00117125 34.1831 0 33.0867V4.13555C0.00117125 3.0391 0.435328 1.98789 1.20721 1.21257C1.97909 0.437264 3.02566 0.00117646 4.11726 0H27.7898C27.8778 0 27.9623 0.035119 28.0245 0.0976311C28.0867 0.160143 28.1217 0.244928 28.1217 0.333333C28.1217 0.421739 28.0867 0.506524 28.0245 0.569036C27.9623 0.631548 27.8778 0.666667 27.7898 0.666667H4.11726C3.2015 0.667255 2.32342 1.03292 1.67589 1.68333C1.02834 2.33375 0.664303 3.21573 0.663717 4.13555V33.0867C0.664303 34.0065 1.02834 34.8884 1.67589 35.5389C2.32342 36.1893 3.2015 36.555 4.11726 36.5555H45.8827C46.7985 36.555 47.6766 36.1893 48.3242 35.5389C48.9717 34.8884 49.3357 34.0065 49.3363 33.0867V4.13555C49.3357 3.21573 48.9717 2.33375 48.3242 1.68333C47.6766 1.03292 46.7985 0.667255 45.8827 0.666667H30.6173C30.5293 0.666667 30.4448 0.631548 30.3826 0.569036C30.3203 0.506524 30.2854 0.421739 30.2854 0.333333C30.2854 0.244928 30.3203 0.160143 30.3826 0.0976311C30.4448 0.035119 30.5293 0 30.6173 0H45.8827C46.9744 0.00117646 48.0209 0.437264 48.7928 1.21257C49.5647 1.98789 49.9989 3.0391 50 4.13555V33.0867C49.9989 34.1831 49.5647 35.2344 48.7928 36.0097C48.0209 36.785 46.9744 37.221 45.8827 37.2222Z" fill="#1D2939"/>
<path id="Vector_3" fill-rule="evenodd" clip-rule="evenodd" d="M19.1551 16.6822C19.1551 17.0264 19.0534 17.3627 18.8631 17.6489C18.6728 17.935 18.4022 18.158 18.0857 18.2897C17.7691 18.4215 17.4208 18.4558 17.0848 18.3888C16.7487 18.3216 16.4401 18.1558 16.1978 17.9125C15.9556 17.6692 15.7906 17.3592 15.7237 17.0217C15.6568 16.6841 15.6912 16.3343 15.8223 16.0163C15.9534 15.6983 16.1755 15.4266 16.4603 15.2354C16.7452 15.0443 17.0801 14.9422 17.4228 14.9422C17.8822 14.9422 18.3228 15.1255 18.6477 15.4518C18.9726 15.7781 19.1551 16.2207 19.1551 16.6822Z" fill="#FCE8CB"/>
<path id="Vector_4" d="M17.4225 18.7554C17.0143 18.7554 16.6152 18.6339 16.2757 18.4061C15.9363 18.1783 15.6718 17.8544 15.5155 17.4755C15.3593 17.0967 15.3184 16.6798 15.398 16.2776C15.4777 15.8754 15.6743 15.5061 15.9629 15.2161C16.2517 14.9261 16.6195 14.7287 17.0198 14.6487C17.4202 14.5687 17.8353 14.6097 18.2125 14.7666C18.5896 14.9236 18.912 15.1893 19.1389 15.5302C19.3656 15.8712 19.4867 16.2721 19.4867 16.6821C19.4855 17.2317 19.2677 17.7584 18.8808 18.1469C18.494 18.5354 17.9696 18.7543 17.4225 18.7554ZM17.4225 15.2754C17.1455 15.2754 16.8748 15.3579 16.6445 15.5125C16.4142 15.6671 16.2347 15.8868 16.1287 16.1438C16.0227 16.4009 15.995 16.6837 16.049 16.9566C16.103 17.2294 16.2365 17.48 16.4323 17.6768C16.6281 17.8735 16.8777 18.0075 17.1493 18.0618C17.4209 18.1161 17.7026 18.0881 17.9584 17.9817C18.2144 17.8752 18.4331 17.6949 18.587 17.4637C18.7408 17.2323 18.823 16.9603 18.823 16.6821C18.8224 16.3092 18.6747 15.9518 18.4122 15.6881C18.1497 15.4244 17.7938 15.2761 17.4225 15.2754Z" fill="#1D2939"/>
<path id="Vector_5" d="M32.666 15.8378C32.666 20.0978 28.5798 26.64 24.9846 26.64C21.5532 26.64 17.3032 20.0978 17.3032 15.8378C17.3032 14.8246 17.5019 13.8212 17.8879 12.8852C18.274 11.9491 18.8398 11.0985 19.553 10.3821C20.2663 9.66564 21.1131 9.09732 22.0451 8.70957C22.977 8.32183 23.9759 8.12225 24.9846 8.12225C25.9933 8.12225 26.9922 8.32183 27.9242 8.70957C28.8561 9.09732 29.7029 9.66564 30.4162 10.3821C31.1295 11.0985 31.6953 11.9491 32.0813 12.8852C32.4674 13.8212 32.666 14.8246 32.666 15.8378Z" fill="#FCE8CB"/>
<path id="Vector_6" d="M24.9844 26.9733C23.2787 26.9733 21.3096 25.5333 19.584 23.0243C17.9734 20.6822 16.9712 17.9288 16.9712 15.8377C16.9712 13.703 17.8155 11.6557 19.3182 10.1463C20.821 8.63683 22.8592 7.78882 24.9844 7.78882C27.1097 7.78882 29.1478 8.63683 30.6507 10.1463C32.1535 11.6557 32.9977 13.703 32.9977 15.8377C32.9977 20.3355 28.7765 26.9733 24.9844 26.9733ZM24.9844 8.45548C23.0358 8.45726 21.1674 9.23559 19.7894 10.6197C18.4115 12.0037 17.6366 13.8804 17.6348 15.8377C17.6348 19.8155 21.7411 26.3066 24.9844 26.3066C26.5088 26.3066 28.345 24.9377 29.9003 22.6488C31.4003 20.4266 32.334 17.8243 32.334 15.8377C32.3322 13.8804 31.5573 12.0037 30.1794 10.6197C28.8015 9.23559 26.9332 8.45726 24.9844 8.45548Z" fill="#1D2939"/>
<path id="Vector_7" d="M23.0219 15.7513C23.0219 15.9002 22.978 16.0458 22.8956 16.1697C22.8132 16.2937 22.696 16.3902 22.559 16.4472C22.4219 16.5042 22.2711 16.5192 22.1257 16.4901C21.9802 16.4611 21.8465 16.3893 21.7416 16.2839C21.6367 16.1786 21.5653 16.0443 21.5364 15.8981C21.5075 15.7521 21.5222 15.6005 21.579 15.4629C21.6358 15.3252 21.7319 15.2076 21.8553 15.1248C21.9786 15.0421 22.1236 14.9979 22.2719 14.9979C22.3706 14.9976 22.4682 15.0169 22.5593 15.0546C22.6505 15.0924 22.7333 15.1478 22.803 15.2178C22.8727 15.2879 22.9279 15.3711 22.9655 15.4626C23.0031 15.5541 23.0222 15.6522 23.0219 15.7513Z" fill="#1D2939"/>
<path id="Vector_8" d="M28.4472 15.7513C28.4472 15.9002 28.4032 16.0458 28.3208 16.1697C28.2385 16.2937 28.1213 16.3902 27.9843 16.4472C27.8472 16.5042 27.6964 16.5192 27.551 16.4901C27.4054 16.4611 27.2718 16.3893 27.1669 16.2839C27.062 16.1786 26.9906 16.0443 26.9617 15.8981C26.9327 15.7521 26.9476 15.6005 27.0043 15.4629C27.0611 15.3252 27.1572 15.2076 27.2805 15.1248C27.4039 15.0421 27.5489 14.9979 27.6972 14.9979C27.7959 14.9976 27.8935 15.0169 27.9846 15.0546C28.0757 15.0924 28.1586 15.1478 28.2282 15.2178C28.2979 15.2879 28.3531 15.3711 28.3907 15.4626C28.4284 15.5541 28.4475 15.6522 28.4472 15.7513Z" fill="#1D2939"/>
<path id="Vector_9" d="M22.0665 18C22.0665 18.5355 21.4869 18.9688 20.7745 18.9688C20.0621 18.9688 19.4824 18.5245 19.4824 18C19.4824 17.4755 20.0621 17.0311 20.7745 17.0311C21.4869 17.0311 22.0665 17.4533 22.0665 18Z" fill="#F5978A"/>
<path id="Vector_10" d="M30.4869 18C30.4869 18.5355 29.9095 18.9688 29.1949 18.9688C28.4803 18.9688 27.9028 18.5245 27.9028 18C27.9028 17.4755 28.4825 17.0311 29.1949 17.0311C29.9073 17.0311 30.4869 17.4533 30.4869 18Z" fill="#F5978A"/>
<path id="Vector_11" d="M25.0731 6.41785C20.6837 6.41785 17.124 9.83785 17.124 14.0534C17.1228 14.4623 17.1979 14.8678 17.3453 15.249C17.416 15.4445 18.5554 14.8178 18.6528 14.7512C19.1347 14.3999 19.5359 13.9491 19.8298 13.429C19.9478 13.221 20.0491 13.0041 20.1329 12.7801C20.3961 12.0868 21.1085 10.1578 21.8298 10.309C22.8945 10.5244 23.9782 10.6308 25.0642 10.6268C26.1571 10.6324 27.2475 10.5258 28.3187 10.309C29.0422 10.1578 29.7545 12.0868 30.0156 12.7801C30.0957 13.0042 30.194 13.2213 30.3099 13.429C30.7988 14.2778 31.624 15.0868 32.6306 15.2356C32.6306 15.1868 32.6926 15.169 32.739 15.1534C33.0687 15.0334 33.0223 14.3178 33.0223 14.0534C33.0244 9.83785 29.4648 6.41785 25.0731 6.41785Z" fill="#475467"/>
<path id="Vector_12" d="M17.4181 15.6155C17.3746 15.6169 17.3312 15.6109 17.2898 15.5978C17.2322 15.5808 17.1793 15.5508 17.1351 15.5099C17.0909 15.469 17.0568 15.4185 17.0353 15.3622C16.8733 14.945 16.7893 14.5012 16.7876 14.0533C16.7876 9.65997 20.5022 6.08441 25.0685 6.08441C29.6349 6.08441 33.3518 9.65997 33.3518 14.0533V14.1378C33.3518 14.5288 33.3695 15.2488 32.876 15.4555C32.8628 15.4688 32.8518 15.4822 32.8384 15.4933C32.8024 15.5222 32.7608 15.5433 32.7162 15.5555C32.6718 15.5678 32.6253 15.5708 32.5796 15.5644C31.6039 15.4222 30.6482 14.6755 30.0199 13.5955C29.8924 13.3692 29.7836 13.133 29.6947 12.8888L29.677 12.8466C28.8473 10.6466 28.4469 10.6111 28.376 10.6245C27.2889 10.8456 26.1822 10.9542 25.073 10.9488C23.9645 10.9542 22.8584 10.8456 21.7721 10.6245C21.7012 10.6088 21.2986 10.6422 20.469 12.8466L20.4535 12.8888C20.3654 13.1326 20.2581 13.3689 20.1327 13.5955C19.8123 14.1584 19.3746 14.6451 18.8495 15.0222C18.8495 15.0222 17.9048 15.6155 17.4181 15.6155ZM25.073 6.75108C20.8695 6.75108 17.4557 10.0266 17.4557 14.0533C17.4532 14.3438 17.4981 14.6329 17.5884 14.9088C17.8943 14.7836 18.1901 14.635 18.4734 14.4644C18.9143 14.1414 19.2816 13.7278 19.5508 13.2511C19.6593 13.0638 19.7532 12.8684 19.8318 12.6666L19.8473 12.6244C20.4048 11.1422 21.0398 9.79997 21.9026 9.98219C22.9446 10.1944 24.0054 10.2986 25.0685 10.2933C26.1324 10.2986 27.1939 10.1944 28.2367 9.98219C29.0995 9.79997 29.7367 11.1422 30.2942 12.6178L30.3097 12.6622C30.3881 12.8698 30.4835 13.0705 30.5951 13.2622C31.0884 14.12 31.803 14.7133 32.5309 14.8778L32.6106 14.8444C32.6504 14.7911 32.6947 14.6222 32.688 14.1488V14.0533C32.6924 10.0266 29.2743 6.75108 25.073 6.75108Z" fill="#1D2939"/>
<path id="Vector_13" d="M18.4866 7.91782C19.7897 9.56671 21.3495 11.3334 23.23 11.8623C26.2631 12.7289 31.6371 11.6401 31.6371 7.26227C31.6371 4.4556 29.2964 1.06672 24.9269 3.64671C19.5153 6.84671 16.3716 0.695599 16.3716 3.50227C16.3716 4.39115 16.7277 5.28005 17.1946 6.07782L18.4866 7.91782Z" fill="#475467"/>
<path id="Vector_14" d="M25.3583 12.471C24.6112 12.477 23.8668 12.3798 23.1459 12.1822C21.2079 11.6288 19.6371 9.90439 18.23 8.12439L18.2168 8.10884L16.9247 6.26883L16.9093 6.24439C16.3274 5.23772 16.042 4.34217 16.042 3.50217C16.042 3.13105 16.0863 2.68217 16.4203 2.49105C16.8164 2.26883 17.2787 2.54438 17.969 2.96438C19.3495 3.7955 21.6593 5.1866 24.7544 3.35994C27.104 1.97105 28.7367 2.3355 29.6902 2.88217C31.261 3.7866 31.9646 5.73327 31.9646 7.26217C31.9771 7.99601 31.8141 8.72216 31.4891 9.37956C31.1642 10.0369 30.6869 10.6063 30.0973 11.04C28.7875 12.0467 26.991 12.471 25.3583 12.471ZM18.7522 7.71772C20.0796 9.40884 21.5707 11.051 23.3251 11.5422C25.1393 12.06 27.9137 11.8733 29.7034 10.5155C30.2143 10.1453 30.6274 9.65545 30.9069 9.0885C31.1864 8.52154 31.3239 7.89462 31.3075 7.26217C31.3075 5.92883 30.7079 4.23105 29.3672 3.46217C28.2168 2.7955 26.741 2.96438 25.0973 3.9355C21.6637 5.96439 19.042 4.37994 17.6349 3.5355C17.3596 3.34785 17.0624 3.19485 16.7499 3.07994C16.7093 3.21674 16.6928 3.35965 16.7013 3.50217C16.7035 4.22217 16.9557 4.99994 17.4778 5.89772L18.7522 7.71772Z" fill="#1D2939"/>
<path id="Vector_15" d="M24.9844 22.429C24.4727 22.4575 23.9646 22.3272 23.5292 22.0557C23.0937 21.7842 22.7522 21.3845 22.5508 20.9112C22.5129 20.8313 22.5082 20.7396 22.5377 20.6563C22.5672 20.5729 22.6283 20.5047 22.7079 20.4667C22.7874 20.4287 22.8786 20.424 22.9617 20.4536C23.0446 20.4831 23.1125 20.5446 23.1503 20.6245C23.5176 21.4 24.0973 21.7623 24.9733 21.7623C25.3512 21.7798 25.7257 21.6833 26.0486 21.4853C26.3716 21.2873 26.6281 20.9968 26.7853 20.6512C26.8208 20.5771 26.8824 20.5189 26.9581 20.4876C27.0339 20.4565 27.1183 20.4544 27.1954 20.482C27.2726 20.5095 27.3368 20.5647 27.3758 20.637C27.4149 20.7092 27.4259 20.7935 27.407 20.8733C27.2034 21.3456 26.8641 21.7459 26.4325 22.0231C26.0008 22.3003 25.4966 22.4416 24.9844 22.429Z" fill="#1D2939"/>
<path id="Vector_16" d="M24.6838 26.6266C22.4695 26.6242 20.3465 25.7397 18.7808 24.167C17.2151 22.5943 16.3344 20.4619 16.332 18.2377C16.332 18.1494 16.367 18.0646 16.4292 18.0021C16.4915 17.9395 16.5759 17.9044 16.6639 17.9044C16.7519 17.9044 16.8363 17.9395 16.8986 18.0021C16.9608 18.0646 16.9958 18.1494 16.9958 18.2377C16.9981 20.2851 17.8088 22.2479 19.2502 23.6956C20.6914 25.1432 22.6456 25.9576 24.6838 25.96C24.7718 25.96 24.8562 25.9951 24.9185 26.0576C24.9807 26.1201 25.0157 26.2049 25.0157 26.2933C25.0157 26.3816 24.9807 26.4664 24.9185 26.5289C24.8562 26.5915 24.7718 26.6266 24.6838 26.6266Z" fill="#1D2939"/>
<path id="Vector_17" d="M25.9116 25.0712H24.25C23.7967 25.0712 23.4292 25.4403 23.4292 25.8956V26.3689C23.4292 26.8242 23.7967 27.1934 24.25 27.1934H25.9116C26.3648 27.1934 26.7323 26.8242 26.7323 26.3689V25.8956C26.7323 25.4403 26.3648 25.0712 25.9116 25.0712Z" fill="#EF6D7A"/>
<path id="Vector_18" d="M25.9113 27.5245H24.2499C23.9441 27.5245 23.651 27.4025 23.4348 27.1853C23.2186 26.9682 23.0972 26.6737 23.0972 26.3666V25.8956C23.0978 25.5887 23.2195 25.2946 23.4355 25.0776C23.6515 24.8605 23.9444 24.7384 24.2499 24.7378H25.9113C26.2169 24.7384 26.5098 24.8605 26.7258 25.0776C26.9419 25.2946 27.0634 25.5887 27.064 25.8956V26.3666C27.064 26.6737 26.9426 26.9682 26.7264 27.1853C26.5103 27.4025 26.2171 27.5245 25.9113 27.5245ZM24.2499 25.4045C24.1204 25.4051 23.9963 25.457 23.9048 25.5489C23.8132 25.6409 23.7615 25.7655 23.7609 25.8956V26.3666C23.7615 26.4968 23.8132 26.6213 23.9048 26.7133C23.9963 26.8053 24.1204 26.8572 24.2499 26.8578H25.9113C26.041 26.8578 26.1654 26.806 26.2571 26.7139C26.3488 26.6219 26.4003 26.497 26.4003 26.3666V25.8956C26.4003 25.7653 26.3488 25.6404 26.2571 25.5483C26.1654 25.4562 26.041 25.4045 25.9113 25.4045H24.2499Z" fill="#1D2939"/>
<path id="Vector_19" d="M14.4424 17.4423V17.8023C14.4424 18.2484 14.6188 18.6764 14.933 18.9918C15.2471 19.3073 15.673 19.4845 16.1172 19.4845H17.0354C17.1585 19.4845 17.2768 19.4353 17.3638 19.3478C17.451 19.2603 17.5 19.1417 17.5 19.0178V14.1912C17.5 14.0674 17.451 13.9488 17.3638 13.8613C17.2768 13.7737 17.1585 13.7245 17.0354 13.7245H16.1172C15.8971 13.7245 15.6792 13.7681 15.4758 13.8528C15.2725 13.9375 15.0877 14.0616 14.9322 14.218C14.7767 14.3745 14.6533 14.5602 14.5693 14.7645C14.4853 14.9689 14.4422 15.1878 14.4424 15.409V17.4423Z" fill="#EF6D7A"/>
<path id="Vector_20" d="M17.0351 19.8178H16.117C15.585 19.8172 15.0749 19.6047 14.6988 19.2268C14.3225 18.849 14.111 18.3366 14.1104 17.8022V15.4089C14.1104 14.8742 14.3217 14.3613 14.698 13.9829C15.0742 13.6046 15.5846 13.3917 16.117 13.3912H17.0351C17.2462 13.3917 17.4485 13.4762 17.5977 13.6261C17.7469 13.776 17.8311 13.9792 17.8316 14.1912V19.0178C17.8316 19.1228 17.8111 19.2269 17.771 19.324C17.731 19.421 17.6723 19.5092 17.5984 19.5835C17.5244 19.6577 17.4366 19.7167 17.3399 19.7569C17.2434 19.7971 17.1397 19.8178 17.0351 19.8178ZM16.117 14.0578C15.7607 14.0584 15.4191 14.201 15.1673 14.4543C14.9156 14.7076 14.7741 15.051 14.7741 15.4089V17.8022C14.7741 18.16 14.9156 18.503 15.1674 18.7561C15.4193 19.009 15.7609 19.1512 16.117 19.1512H17.0351C17.0704 19.1512 17.1041 19.1371 17.129 19.1121C17.1539 19.0871 17.168 19.0532 17.168 19.0178V14.1912C17.168 14.1558 17.1539 14.1219 17.129 14.0969C17.1041 14.0719 17.0704 14.0578 17.0351 14.0578H16.117Z" fill="#1D2939"/>
<path id="Vector_21" d="M33.6304 19.4845H33.0398C32.8977 19.4845 32.7616 19.4278 32.6612 19.327C32.5607 19.226 32.5044 19.0893 32.5044 18.9466V14.26C32.5044 14.1174 32.5607 13.9806 32.6612 13.8798C32.7616 13.7788 32.8977 13.7222 33.0398 13.7222H33.6304C34.1407 13.7222 34.6302 13.9255 34.9915 14.2876C35.3527 14.6496 35.5563 15.1407 35.5574 15.6533V17.5422C35.5584 17.797 35.5091 18.0494 35.4127 18.285C35.3163 18.5206 35.1744 18.7348 34.9954 18.9152C34.8164 19.0956 34.6037 19.2387 34.3694 19.3364C34.1352 19.4341 33.8841 19.4845 33.6304 19.4845Z" fill="#EF6D7A"/>
<path id="Vector_22" d="M33.6284 19.8178H33.0377C32.8081 19.8178 32.5878 19.7264 32.4252 19.5635C32.2627 19.4005 32.171 19.1796 32.1704 18.9489V14.2622C32.171 14.0314 32.2626 13.8101 32.4251 13.6469C32.5876 13.4837 32.8079 13.3917 33.0377 13.3912H33.6284C34.2273 13.3917 34.8016 13.631 35.225 14.0564C35.6485 14.4817 35.8867 15.0585 35.8873 15.66V17.5555C35.8849 18.156 35.646 18.7311 35.2227 19.155C34.7994 19.5789 34.2261 19.8172 33.6284 19.8178ZM33.0377 14.0578C32.9837 14.0578 32.932 14.0793 32.8937 14.1177C32.8556 14.1561 32.8342 14.208 32.8342 14.2622V18.9489C32.8348 19.0027 32.8565 19.0542 32.8946 19.092C32.9327 19.1299 32.9842 19.1512 33.0377 19.1512H33.6284C34.0507 19.1517 34.456 18.9841 34.7554 18.685C35.0549 18.3859 35.2241 17.9797 35.2257 17.5555V15.6667C35.2263 15.4557 35.1854 15.2465 35.1054 15.0514C35.0254 14.8562 34.9079 14.6788 34.7595 14.5293C34.6111 14.3798 34.4348 14.2613 34.2407 14.1803C34.0467 14.0994 33.8385 14.0578 33.6284 14.0578H33.0377Z" fill="#1D2939"/>
<path id="Vector_23" d="M19.5914 49.7779C19.5003 49.7779 19.4128 49.743 19.3483 49.6811C19.2838 49.6191 19.2476 49.5349 19.2476 49.4473V47.1329C19.2674 47.0628 19.3106 47.0011 19.3706 46.957C19.4305 46.9129 19.5039 46.889 19.5794 46.889C19.6548 46.889 19.7283 46.9129 19.7883 46.957C19.8483 47.0011 19.8914 47.0628 19.9113 47.1329V49.4473C19.9115 49.5311 19.8786 49.6119 19.8192 49.6732C19.7598 49.7346 19.6784 49.772 19.5914 49.7779Z" fill="#1D2939"/>
<path id="Vector_24" d="M10.142 49.3267H16.1505V46.3977C16.1505 45.9732 16.0667 45.553 15.9039 45.1609C15.7409 44.7688 15.5022 44.4125 15.2013 44.1124C14.9002 43.8123 14.5429 43.5742 14.1497 43.4118C13.7564 43.2494 13.3349 43.1657 12.9093 43.1657H10.7528V41.7778C10.2347 42.1765 9.60717 42.4087 8.95362 42.4435C8.31189 42.4054 7.69705 42.1732 7.19109 41.7778H7.15437V43.1724H5.01131C4.15167 43.1724 3.32723 43.5129 2.71937 44.1191C2.11151 44.7251 1.77002 45.5472 1.77002 46.4044V49.3333H10.142V49.3267Z" fill="#FCE8CB"/>
<path id="Vector_25" d="M16.0473 49.7641H10.0297C9.97992 49.7789 9.9274 49.7817 9.87634 49.7722C9.82527 49.7627 9.77708 49.7413 9.73555 49.7095C9.69403 49.6776 9.66034 49.6365 9.63712 49.5891C9.61391 49.5417 9.60183 49.4894 9.60183 49.4364C9.60183 49.3835 9.61391 49.3312 9.63712 49.2838C9.66034 49.2364 9.69403 49.1951 9.73555 49.1634C9.77708 49.1316 9.82527 49.11 9.87634 49.1005C9.9274 49.0911 9.97992 49.0939 10.0297 49.1088H15.713V46.4327C15.7121 45.6409 15.4037 44.8818 14.8552 44.3219C14.3069 43.762 13.5634 43.447 12.7878 43.4461H10.6583C10.5696 43.4461 10.4845 43.4101 10.4219 43.3462C10.3592 43.2821 10.3239 43.1953 10.3239 43.1048V42.2686C9.87048 42.5266 9.36197 42.6672 8.84294 42.6781C8.32132 42.6638 7.81177 42.5146 7.36195 42.2446V43.1048C7.36195 43.1953 7.32672 43.2821 7.26403 43.3462C7.20134 43.4101 7.1163 43.4461 7.02764 43.4461H4.90811C4.13284 43.4479 3.38982 43.7631 2.84162 44.3228C2.29342 44.8825 1.98466 45.6412 1.98289 46.4327V49.1088H7.30177C7.3516 49.0939 7.40412 49.0911 7.45518 49.1005C7.50624 49.11 7.55444 49.1316 7.59596 49.1634C7.63748 49.1951 7.67118 49.2364 7.6944 49.2838C7.71761 49.3312 7.72969 49.3835 7.72969 49.4364C7.72969 49.4894 7.71761 49.5417 7.6944 49.5891C7.67118 49.6365 7.63748 49.6776 7.59596 49.7095C7.55444 49.7413 7.50624 49.7627 7.45518 49.7722C7.40412 49.7817 7.3516 49.7789 7.30177 49.7641H1.66195C1.57328 49.7641 1.48825 49.7282 1.42555 49.6641C1.36287 49.6001 1.32764 49.5133 1.32764 49.4227V46.4191C1.32941 45.4537 1.70579 44.5285 2.37438 43.8458C3.04295 43.1631 3.94923 42.7789 4.89473 42.7771H6.72008V41.6746C6.72008 41.5841 6.75529 41.4973 6.81799 41.4333C6.88068 41.3693 6.96572 41.3333 7.05438 41.3333H7.09116C7.15669 41.3338 7.22063 41.354 7.27502 41.3913C7.72784 41.757 8.27994 41.9715 8.85631 42.0058C9.44341 41.9748 10.0076 41.7629 10.4744 41.3981C10.5235 41.365 10.5801 41.3456 10.6389 41.3421C10.6975 41.3385 10.7562 41.3508 10.8087 41.3776C10.8594 41.4067 10.9017 41.4488 10.9316 41.4996C10.9615 41.5505 10.9779 41.6085 10.9792 41.6678V42.7635H12.8012C13.7473 42.7644 14.6544 43.1483 15.3237 43.831C15.993 44.5137 16.3698 45.4395 16.3716 46.4054V49.4091C16.3734 49.4542 16.3664 49.4992 16.3511 49.5416C16.3357 49.5839 16.3122 49.6227 16.2821 49.6558C16.2519 49.6887 16.2156 49.7153 16.1753 49.7339C16.135 49.7525 16.0916 49.7627 16.0473 49.7641Z" fill="#1D2939"/>
<path id="Vector_26" d="M10.142 49.3334H16.1505V46.3752C16.1509 45.9465 16.0675 45.5218 15.9047 45.1256C15.742 44.7294 15.5032 44.3694 15.2022 44.0663C14.9011 43.763 14.5436 43.5226 14.1502 43.3588C13.7567 43.1949 13.335 43.1107 12.9093 43.1111H12.3819L10.1553 46.0861L9.00368 45.2121L7.85537 46.0861L5.62886 43.1111H5.01131C4.15167 43.1111 3.32723 43.4551 2.71937 44.0672C2.11151 44.6793 1.77002 45.5096 1.77002 46.3752V49.3334H10.142Z" fill="#8AC6DD"/>
<path id="Vector_27" d="M16.0476 49.7609H10.0299C9.98007 49.7756 9.92755 49.7783 9.87649 49.769C9.82543 49.7596 9.77722 49.7384 9.7357 49.7071C9.69418 49.6756 9.66048 49.635 9.63727 49.5882C9.61406 49.5415 9.60198 49.4899 9.60198 49.4375C9.60198 49.3852 9.61406 49.3337 9.63727 49.2869C9.66048 49.2401 9.69418 49.1995 9.7357 49.168C9.77722 49.1367 9.82543 49.1155 9.87649 49.1062C9.92755 49.0968 9.98007 49.0995 10.0299 49.1142H15.7133V46.4731C15.7133 45.6914 15.4051 44.9417 14.8565 44.3889C14.3079 43.8362 13.5639 43.5256 12.788 43.5256H12.4537L10.3141 46.389C10.2608 46.4551 10.1847 46.4985 10.1009 46.5104C10.0172 46.5223 9.93205 46.5018 9.86274 46.4529L8.90325 45.7253L7.9471 46.4529C7.8802 46.4955 7.80047 46.5127 7.72212 46.5017C7.64376 46.4905 7.57186 46.4518 7.51919 46.3923L5.37955 43.529H4.90817C4.13262 43.5298 3.38907 43.8406 2.84067 44.3932C2.29227 44.9458 1.98378 45.695 1.9829 46.4765V49.1175H7.30188C7.3517 49.1029 7.40423 49.1001 7.45529 49.1095C7.50636 49.1189 7.55455 49.14 7.59607 49.1715C7.6376 49.2028 7.67129 49.2435 7.69451 49.2903C7.71772 49.3371 7.7298 49.3887 7.7298 49.4409C7.7298 49.4932 7.71772 49.5448 7.69451 49.5916C7.67129 49.6383 7.6376 49.6791 7.59607 49.7104C7.55455 49.7418 7.50636 49.763 7.45529 49.7724C7.40423 49.7817 7.3517 49.779 7.30188 49.7643H1.66196C1.57329 49.7643 1.48825 49.7289 1.42556 49.6656C1.36287 49.6025 1.32764 49.5168 1.32764 49.4274V46.463C1.33471 45.5115 1.71527 44.6015 2.38618 43.9317C3.05708 43.262 3.96378 42.8871 4.90817 42.8889H5.5534C5.62039 42.8909 5.68521 42.9132 5.73946 42.9529C5.79371 42.9926 5.83488 43.0477 5.85763 43.1113L7.83344 45.7523L8.72606 45.0785C8.78269 45.0379 8.85047 45.016 8.91997 45.016C8.98948 45.016 9.05725 45.0379 9.11388 45.0785L10.0098 45.7523L12.0158 43.0876C12.0389 43.0296 12.0785 42.9798 12.1296 42.9444C12.1808 42.9091 12.2412 42.8897 12.3033 42.8889H12.8014C13.748 42.8898 14.6558 43.2692 15.3251 43.9437C15.9945 44.6181 16.371 45.5327 16.3719 46.4867V49.451C16.3653 49.5339 16.3286 49.6114 16.2687 49.6687C16.2089 49.7258 16.1301 49.7588 16.0476 49.7609Z" fill="#1D2939"/>
<path id="Vector_28" fill-rule="evenodd" clip-rule="evenodd" d="M4.64607 35.1077C4.64676 35.3718 4.5694 35.63 4.4238 35.8498C4.27821 36.0696 4.07093 36.241 3.82823 36.3424C3.58553 36.4437 3.31834 36.4704 3.06052 36.419C2.80271 36.3677 2.56587 36.2407 2.38001 36.054C2.19416 35.8673 2.06766 35.6295 2.01655 35.3705C1.96544 35.1114 1.99202 34.8431 2.09292 34.5994C2.19382 34.3556 2.3645 34.1474 2.58332 34.0011C2.80215 33.8549 3.05927 33.7772 3.32211 33.7779C3.67324 33.7779 4.01 33.918 4.25829 34.1674C4.50658 34.4168 4.64607 34.755 4.64607 35.1077Z" fill="#FCE8CB"/>
<path id="Vector_29" d="M3.31545 36.6667C3.00929 36.6661 2.71019 36.5743 2.45594 36.403C2.20169 36.2317 2.0037 35.9886 1.88698 35.7042C1.77026 35.4199 1.74005 35.1072 1.80018 34.8057C1.86029 34.5042 2.00804 34.2273 2.22476 34.0101C2.44148 33.7928 2.71743 33.645 3.01775 33.5852C3.31807 33.5255 3.62929 33.5565 3.91209 33.6744C4.19488 33.7922 4.43656 33.9916 4.60659 34.2473C4.77661 34.503 4.86736 34.8037 4.86736 35.1112C4.86651 35.5241 4.70262 35.9197 4.41168 36.2114C4.12073 36.5029 3.72648 36.6667 3.31545 36.6667ZM3.31545 34.1804C3.13219 34.1804 2.95303 34.235 2.80066 34.3373C2.64827 34.4396 2.52951 34.5849 2.45937 34.755C2.38924 34.9251 2.37089 35.1122 2.40664 35.2927C2.44239 35.4732 2.53064 35.6392 2.66024 35.7693C2.78983 35.8995 2.95494 35.9881 3.13468 36.024C3.31443 36.0599 3.50074 36.0415 3.67005 35.9711C3.83936 35.9006 3.98408 35.7813 4.08591 35.6282C4.18772 35.4752 4.24206 35.2952 4.24206 35.1112C4.24206 34.989 4.21809 34.8679 4.17153 34.755C4.12496 34.6421 4.05671 34.5395 3.97067 34.453C3.88462 34.3666 3.78247 34.298 3.67005 34.2513C3.55762 34.2045 3.43713 34.1804 3.31545 34.1804Z" fill="#1D2939"/>
<path id="Vector_30" fill-rule="evenodd" clip-rule="evenodd" d="M15.708 35.1112C15.708 35.3749 15.6367 35.6327 15.5029 35.852C15.3693 36.0712 15.1792 36.2421 14.9569 36.343C14.7345 36.4439 14.4899 36.4704 14.2539 36.4189C14.0178 36.3675 13.8009 36.2405 13.6307 36.054C13.4606 35.8675 13.3447 35.63 13.2978 35.3713C13.2508 35.1127 13.2749 34.8446 13.367 34.6009C13.4591 34.3573 13.6151 34.149 13.8152 34.0026C14.0153 33.856 14.2505 33.7779 14.4912 33.7779C14.814 33.7779 15.1234 33.9183 15.3517 34.1684C15.5798 34.4184 15.708 34.7576 15.708 35.1112Z" fill="#FCE8CB"/>
<path id="Vector_31" d="M14.4913 36.6667C14.1632 36.6667 13.8424 36.5756 13.5694 36.4046C13.2966 36.2337 13.0839 35.9908 12.9584 35.7065C12.8328 35.4222 12.7999 35.1095 12.8639 34.8077C12.928 34.506 13.086 34.2288 13.3181 34.0113C13.5501 33.7937 13.8458 33.6456 14.1677 33.5856C14.4895 33.5256 14.8231 33.5563 15.1263 33.6741C15.4295 33.7918 15.6887 33.9912 15.871 34.247C16.0533 34.5027 16.1506 34.8036 16.1506 35.1112C16.1506 35.5238 15.9758 35.9194 15.6647 36.2112C15.3535 36.5028 14.9314 36.6667 14.4913 36.6667ZM14.4913 34.1805C14.295 34.1805 14.1031 34.235 13.9398 34.3373C13.7765 34.4396 13.6492 34.5849 13.5741 34.755C13.4989 34.9251 13.4793 35.1122 13.5177 35.2927C13.5559 35.4733 13.6505 35.6392 13.7893 35.7693C13.9282 35.8995 14.1051 35.9882 14.2977 36.024C14.4903 36.0599 14.6899 36.0415 14.8713 35.9711C15.0527 35.9007 15.2078 35.7813 15.3168 35.6283C15.4259 35.4752 15.4841 35.2952 15.4841 35.1112C15.4832 34.8646 15.3783 34.6284 15.1924 34.454C15.0063 34.2796 14.7543 34.1813 14.4913 34.1805Z" fill="#1D2939"/>
<path id="Vector_32" d="M14.5999 34.4888C14.5999 37.6261 11.5438 42.4444 8.85107 42.4444C6.28057 42.4444 3.09887 37.6261 3.09887 34.4888C3.08023 33.7309 3.21519 32.977 3.4958 32.2715C3.77641 31.566 4.19701 30.9231 4.73283 30.3806C5.26867 29.8381 5.9089 29.4069 6.61586 29.1127C7.32282 28.8183 8.08223 28.6666 8.84938 28.6666C9.61653 28.6666 10.3759 28.8183 11.0829 29.1127C11.7899 29.4069 12.4301 29.8381 12.9659 30.3806C13.5018 30.9231 13.9224 31.566 14.2029 32.2715C14.4835 32.977 14.6185 33.7309 14.5999 34.4888Z" fill="#FCE8CB"/>
<path id="Vector_33" d="M8.84943 42.6667C6.07961 42.6667 2.87598 37.6787 2.87598 34.4246C2.87598 32.8386 3.50532 31.3175 4.62556 30.196C5.7458 29.0745 7.26517 28.4444 8.84943 28.4444C10.4337 28.4444 11.9531 29.0745 13.0733 30.196C14.1935 31.3175 14.8229 32.8386 14.8229 34.4246C14.8229 37.7522 11.676 42.6667 8.84943 42.6667ZM8.84943 29.0859C7.43333 29.0859 6.07523 29.6491 5.0739 30.6516C4.07257 31.654 3.51003 33.0137 3.51003 34.4314C3.51003 37.3178 6.49008 42.0319 8.84943 42.0319C11.2688 42.0319 14.1888 37.3546 14.1888 34.4314C14.1888 33.0137 13.6263 31.654 12.625 30.6516C11.6236 29.6491 10.2655 29.0859 8.84943 29.0859Z" fill="#1D2939"/>
<path id="Vector_34" d="M7.5222 34.3369C7.52152 34.4463 7.48869 34.5531 7.4278 34.6439C7.36692 34.7346 7.2807 34.8053 7.17997 34.847C7.07924 34.8888 6.96848 34.8997 6.8616 34.8785C6.75471 34.8571 6.65647 34.8046 6.57919 34.7274C6.50191 34.6503 6.44904 34.5519 6.42722 34.4447C6.4054 34.3375 6.4156 34.2262 6.45652 34.1247C6.49746 34.0234 6.56732 33.9363 6.65731 33.8746C6.74731 33.8128 6.85344 33.7793 6.9624 33.7779C7.03588 33.777 7.10879 33.7909 7.1769 33.8186C7.245 33.8463 7.30692 33.8874 7.35903 33.9394C7.41115 33.9915 7.45242 34.0535 7.48044 34.1217C7.50845 34.1899 7.52265 34.263 7.5222 34.3369Z" fill="#1D2939"/>
<path id="Vector_35" d="M11.5047 34.3335C11.5046 34.4439 11.4719 34.5517 11.4107 34.6432C11.3495 34.7348 11.2625 34.8059 11.1608 34.8477C11.0591 34.8894 10.9475 34.8998 10.8399 34.8775C10.7324 34.8553 10.6338 34.8014 10.5569 34.7227C10.48 34.644 10.4281 34.5441 10.4079 34.4356C10.3877 34.3272 10.4001 34.2152 10.4434 34.1139C10.4869 34.0125 10.5594 33.9265 10.6515 33.8667C10.7438 33.8069 10.8518 33.7759 10.9615 33.7779C11.1068 33.7797 11.2454 33.8392 11.3472 33.9432C11.4489 34.0473 11.5055 34.1876 11.5047 34.3335Z" fill="#1D2939"/>
<path id="Vector_36" d="M6.63709 35.9999C6.63709 36.3692 6.24205 36.6665 5.75058 36.6665C5.25911 36.6665 4.86719 36.3692 4.86719 35.9999C4.86719 35.6306 5.26223 35.3332 5.75058 35.3332C6.23895 35.3332 6.63709 35.6306 6.63709 35.9999Z" fill="#F5978A"/>
<path id="Vector_37" d="M13.0532 35.9999C13.0532 36.3692 12.606 36.6665 12.0575 36.6665C11.5091 36.6665 11.062 36.3692 11.062 35.9999C11.062 35.6306 11.5091 35.3332 12.0575 35.3332C12.606 35.3332 13.0532 35.6306 13.0532 35.9999Z" fill="#F5978A"/>
<path id="Vector_38" d="M8.95901 27.5556C5.72213 27.5556 3.09717 30.0422 3.09717 33.105C3.09812 33.4022 3.15598 33.6965 3.26771 33.9725C3.32121 34.1149 4.16052 33.6612 4.23075 33.6115C4.58665 33.3578 4.88223 33.0301 5.09681 32.6513C5.18474 32.5007 5.26076 32.3435 5.3242 32.1811C5.51815 31.6746 6.04314 30.2739 6.57482 30.3832C8.14896 30.6923 9.76907 30.6923 11.3432 30.3832C11.8782 30.2739 12.4032 31.6746 12.5972 32.1811C12.6595 32.3434 12.7344 32.5006 12.8212 32.6513C12.9904 32.9834 13.2316 33.2744 13.5276 33.5033C13.8235 33.7323 14.167 33.8936 14.5333 33.9758C14.5333 33.9427 14.5801 33.9295 14.6135 33.9162C14.8576 33.8301 14.8208 33.3103 14.8208 33.1182C14.8208 30.0323 12.1959 27.5556 8.95901 27.5556Z" fill="#475467"/>
<path id="Vector_39" d="M3.20026 34.4403C3.16182 34.4457 3.1228 34.4457 3.08435 34.4403C3.02976 34.4239 2.97975 34.395 2.93831 34.3557C2.89687 34.3164 2.86515 34.2679 2.8457 34.2142C2.71963 33.8862 2.6549 33.5377 2.65479 33.1861C2.65479 29.8522 5.48442 27.111 8.95839 27.111C12.4324 27.111 15.2654 29.8522 15.2654 33.1828V33.2445C15.2654 33.5562 15.2654 34.125 14.8734 34.3032L14.8495 34.3272C14.8139 34.3557 14.7728 34.3769 14.7289 34.3893C14.685 34.4015 14.6391 34.405 14.5938 34.3992C14.1723 34.3083 13.7762 34.1248 13.4337 33.8618C13.0912 33.5987 12.811 33.2627 12.613 32.8778C12.5152 32.7064 12.4309 32.5278 12.3607 32.3432V32.3124C11.8119 30.8527 11.5357 30.702 11.4642 30.6883C9.81771 31.0172 8.12294 31.0172 6.47649 30.6883C6.41172 30.6883 6.13558 30.8527 5.5867 32.3089V32.3432C5.51724 32.528 5.43288 32.7069 5.33442 32.8778C5.09 33.3113 4.75504 33.6866 4.35257 33.9777C4.00382 34.2091 3.6117 34.3665 3.20026 34.4403ZM14.6893 34.0256L14.8051 34.3306H14.8291L14.6893 34.0256ZM8.95839 27.7758C5.8458 27.7758 3.31276 30.2018 3.31276 33.1861C3.31054 33.368 3.33465 33.5493 3.38436 33.7241C3.58025 33.6409 3.77045 33.5448 3.95369 33.4363C4.27417 33.2005 4.54139 32.8993 4.73781 32.5523C4.81808 32.4115 4.8876 32.265 4.94577 32.1137V32.0795C5.37533 30.935 5.87307 29.8968 6.58218 30.0475C8.14321 30.3582 9.74971 30.3582 11.3107 30.0475C12.0198 29.8968 12.5176 30.935 12.9472 32.0795V32.1137C13.0046 32.2653 13.0742 32.412 13.1551 32.5523C13.4375 33.1088 13.9278 33.5303 14.5188 33.7241C14.557 33.5743 14.5697 33.419 14.5563 33.265V33.193C14.6074 30.1949 12.0744 27.7758 8.95839 27.7758Z" fill="#1D2939"/>
<path id="Vector_40" d="M6.71368 42.319L5.55322 43.1974L7.79089 46.1801L8.95135 45.3016L6.71368 42.319Z" fill="#475467"/>
<path id="Vector_41" d="M7.82482 46.4445H7.78177C7.69844 46.4272 7.62492 46.3785 7.57647 46.3082L5.36786 43.3648C5.32083 43.2963 5.3012 43.2124 5.31285 43.1299C5.3245 43.0475 5.36659 42.9724 5.43078 42.9197L6.5831 42.0625C6.65111 42.0135 6.73511 41.9921 6.81819 42.0027C6.90189 42.015 6.97772 42.0591 7.03012 42.1256L9.23211 45.0657C9.28011 45.1347 9.3003 45.2193 9.28864 45.3025C9.27696 45.3856 9.23428 45.4614 9.1692 45.5143L8.02349 46.3814C7.96576 46.4234 7.89609 46.4454 7.82482 46.4445ZM6.06322 43.2452L7.88773 45.6771L8.5235 45.1953L6.69899 42.7669L6.06322 43.2452Z" fill="#1D2939"/>
<path id="Vector_42" d="M8.94287 45.2973L10.1033 46.1757L12.341 43.193L11.1805 42.3146L8.94287 45.2973Z" fill="#475467"/>
<path id="Vector_43" d="M10.0904 46.4445C10.0212 46.4454 9.95369 46.4232 9.89849 46.3814L8.75351 45.5143C8.71984 45.489 8.69164 45.4571 8.67059 45.4205C8.64955 45.3841 8.6361 45.3436 8.63107 45.3017C8.6205 45.2184 8.64178 45.1341 8.69063 45.0657L10.8979 42.1256C10.9502 42.0591 11.026 42.015 11.1097 42.0027C11.1927 41.9921 11.2766 42.0135 11.3446 42.0625L12.4896 42.9296C12.5537 42.9824 12.5958 43.0575 12.6075 43.1399C12.619 43.2224 12.5995 43.3062 12.5525 43.3748L10.3452 46.3082C10.3158 46.3489 10.2775 46.3822 10.2334 46.4057C10.1893 46.4294 10.1404 46.4426 10.0904 46.4445ZM9.39218 45.1953L10.0275 45.6771L11.8641 43.2452L11.2023 42.7669L9.39218 45.1953Z" fill="#1D2939"/>
<path id="Vector_44" d="M4.32756 49.7778C4.23954 49.7778 4.15513 49.7425 4.09289 49.6796C4.03066 49.6167 3.99569 49.5314 3.99569 49.4426V47.0958C3.98127 47.0458 3.97856 46.9932 3.98778 46.9419C3.99699 46.8908 4.01788 46.8425 4.0488 46.8008C4.0797 46.7591 4.11979 46.7254 4.16587 46.702C4.21194 46.6788 4.26276 46.6666 4.31428 46.6666C4.3658 46.6666 4.41661 46.6788 4.46269 46.702C4.50877 46.7254 4.54885 46.7591 4.57977 46.8008C4.61067 46.8425 4.63157 46.8908 4.64079 46.9419C4.65 46.9932 4.64729 47.0458 4.63286 47.0958V49.4426C4.63313 49.527 4.60183 49.6084 4.54524 49.6706C4.48863 49.7328 4.41089 49.771 4.32756 49.7778Z" fill="#1D2939"/>
<path id="Vector_45" d="M8.88648 39.331C8.47774 39.3491 8.0724 39.2581 7.7251 39.0703C7.37779 38.8824 7.10519 38.6067 6.94401 38.2803C6.90869 38.245 6.88325 38.2031 6.86968 38.1578C6.8561 38.1125 6.85476 38.0652 6.86577 38.0193C6.87677 37.9735 6.89982 37.9306 6.93311 37.8938C6.9664 37.8571 7.00905 37.8274 7.05771 37.8073C7.10636 37.7872 7.15973 37.7771 7.21363 37.7777C7.26754 37.7784 7.32053 37.7899 7.36847 37.8113C7.41642 37.8327 7.45801 37.8634 7.49002 37.901C7.52203 37.9387 7.54358 37.9823 7.553 38.0283C7.66036 38.2541 7.84696 38.4449 8.08631 38.5735C8.32567 38.7022 8.60562 38.762 8.88648 38.7449C9.16134 38.7545 9.43342 38.6938 9.66871 38.5702C9.904 38.4464 10.0921 38.2654 10.2094 38.0495C10.2548 37.9964 10.3189 37.9576 10.3919 37.9389C10.465 37.9203 10.5431 37.9229 10.6144 37.9462C10.6857 37.9695 10.7462 38.0125 10.7869 38.0684C10.8274 38.1242 10.8459 38.1902 10.8395 38.256C10.6739 38.5833 10.3998 38.8604 10.0519 39.0519C9.70405 39.2434 9.29829 39.3405 8.88648 39.331Z" fill="#1D2939"/>
<path id="Vector_46" d="M49.5578 46.4044V49.3333H35.1772V46.4044C35.1772 45.5472 35.5194 44.7251 36.1284 44.1191C36.7374 43.5129 37.5634 43.1724 38.4245 43.1724H40.5683V41.7778H40.6051C41.1119 42.1732 41.728 42.4054 42.3709 42.4435C43.0257 42.4091 43.6545 42.1768 44.1735 41.7778V43.1657H46.3205C47.1812 43.1685 48.0056 43.511 48.6126 44.1182C49.2196 44.7255 49.5595 45.5477 49.5578 46.4044Z" fill="#FCE8CB"/>
<path id="Vector_47" d="M49.6658 49.7777H35.2904C35.2017 49.7777 35.1167 49.7417 35.054 49.6776C34.9913 49.6135 34.9561 49.5265 34.9561 49.4359V46.4273C34.9578 45.4598 35.3347 44.5325 36.004 43.8487C36.6732 43.1648 37.5804 42.7803 38.5265 42.7794H40.3485V41.6751C40.3485 41.5845 40.3838 41.4975 40.4464 41.4335C40.5091 41.3693 40.5942 41.3333 40.6828 41.3333H40.7196C40.7863 41.3331 40.8515 41.3534 40.9068 41.3914C41.3584 41.7576 41.9094 41.9725 42.4847 42.0068C43.073 41.9765 43.6385 41.7643 44.1062 41.3982C44.1552 41.3684 44.211 41.3517 44.2681 41.3501C44.3252 41.3485 44.3818 41.3618 44.4324 41.3889C44.483 41.416 44.5261 41.4559 44.5573 41.5048C44.5886 41.5538 44.607 41.61 44.611 41.6684V42.7658H46.4329C47.3785 42.7675 48.2847 43.1525 48.9534 43.8362C49.6219 44.5199 49.9983 45.4467 50 46.4137V49.4222C50.0019 49.4683 49.9945 49.5142 49.9786 49.5572C49.9625 49.6002 49.9383 49.6396 49.907 49.6728C49.8758 49.7061 49.8384 49.7324 49.7969 49.7504C49.7554 49.7685 49.7108 49.7777 49.6658 49.7777ZM35.6013 49.1213H49.3448V46.441C49.343 45.6481 49.0343 44.8884 48.4861 44.3277C47.9378 43.7671 47.1948 43.4514 46.4196 43.4495H44.2734C44.1846 43.4495 44.0996 43.4135 44.0369 43.3494C43.9742 43.2852 43.939 43.1984 43.939 43.1076V42.27C43.4857 42.5289 42.9771 42.6698 42.458 42.6803C41.9375 42.6655 41.4292 42.5162 40.9803 42.2461V43.1076C40.9803 43.1984 40.9451 43.2852 40.8824 43.3494C40.8197 43.4135 40.7347 43.4495 40.6461 43.4495H38.5265C37.751 43.4504 37.0074 43.7659 36.4591 44.3267C35.9106 44.8875 35.6022 45.6478 35.6013 46.441V49.1213Z" fill="#1D2939"/>
<path id="Vector_48" d="M49.5578 46.3752V49.3334H35.1772V46.3752C35.1768 45.9465 35.2605 45.5218 35.4236 45.1256C35.5866 44.7294 35.8258 44.3694 36.1275 44.0663C36.429 43.763 36.7871 43.5226 37.1814 43.3588C37.5756 43.1949 37.998 43.1107 38.4245 43.1111H39.0667L41.3007 46.0861L42.4511 45.2121L43.6016 46.0861L45.8322 43.1111H46.3472C47.2021 43.1209 48.0187 43.4691 48.6197 44.0802C49.2208 44.6913 49.5579 45.5159 49.5578 46.3752Z" fill="#FFBA93"/>
<path id="Vector_49" d="M49.666 49.7778H35.2904C35.2017 49.7778 35.1167 49.7422 35.054 49.6789C34.9913 49.6155 34.9561 49.5297 34.9561 49.4401V46.4684C34.964 45.5169 35.3436 44.607 36.0122 43.9367C36.6808 43.2662 37.5845 42.8898 38.5266 42.8889H39.1685C39.2354 42.8909 39.3002 42.9133 39.3545 42.953C39.4088 42.9928 39.4499 43.0481 39.4727 43.1118L41.4484 45.7593L42.3445 45.0839C42.4011 45.0431 42.4689 45.0213 42.5383 45.0213C42.6078 45.0213 42.6756 45.0431 42.7323 45.0839L43.6249 45.7593L45.6308 43.0881C45.6539 43.03 45.6935 42.98 45.7447 42.9446C45.7958 42.9091 45.8563 42.8897 45.9183 42.8889H46.4331C47.3793 42.8907 48.286 43.2714 48.9547 43.9474C49.6234 44.6234 49.9994 45.5398 50.0003 46.4954V49.4671C49.9935 49.5519 49.9554 49.631 49.8934 49.6886C49.8315 49.7462 49.7502 49.778 49.666 49.7778ZM35.6013 49.1294H49.345V46.4819C49.3442 45.6985 49.0357 44.9475 48.4873 44.3935C47.9389 43.8396 47.1953 43.528 46.4198 43.5271H46.0854L43.9425 46.3975C43.8893 46.4639 43.8131 46.5074 43.7294 46.5193C43.6456 46.5312 43.5605 46.5106 43.4912 46.4617L42.535 45.7323L41.5755 46.4617C41.5074 46.508 41.4248 46.5275 41.3434 46.5164C41.262 46.5051 41.1875 46.464 41.1343 46.4008L38.9913 43.5305H38.5266C37.7507 43.5305 37.0067 43.8418 36.4581 44.3959C35.9095 44.9501 35.6013 45.7017 35.6013 46.4853V49.1294Z" fill="#1D2939"/>
<path id="Vector_50" fill-rule="evenodd" clip-rule="evenodd" d="M38.0528 35.1112C38.0528 35.3749 37.9814 35.6327 37.8477 35.852C37.7139 36.0712 37.5239 36.2421 37.3016 36.343C37.0792 36.4439 36.8346 36.4704 36.5985 36.4189C36.3625 36.3675 36.1457 36.2405 35.9755 36.054C35.8054 35.8675 35.6895 35.63 35.6425 35.3713C35.5956 35.1127 35.6197 34.8446 35.7118 34.6009C35.8038 34.3573 35.9598 34.149 36.1599 34.0026C36.36 33.856 36.5953 33.7779 36.8359 33.7779C37.1586 33.7779 37.4682 33.9183 37.6963 34.1684C37.9246 34.4184 38.0528 34.7576 38.0528 35.1112Z" fill="#FCE8CB"/>
<path id="Vector_51" d="M36.8365 36.6667C36.5084 36.6667 36.1875 36.5756 35.9147 36.4046C35.6418 36.2337 35.4291 35.9908 35.3036 35.7065C35.1779 35.4222 35.1451 35.1095 35.2091 34.8077C35.2732 34.506 35.4312 34.2288 35.6633 34.0113C35.8952 33.7937 36.191 33.6456 36.5128 33.5856C36.8347 33.5256 37.1684 33.5563 37.4715 33.6741C37.7747 33.7918 38.0339 33.9912 38.2162 34.247C38.3985 34.5027 38.4959 34.8036 38.4959 35.1112C38.4959 35.5238 38.321 35.9194 38.0098 36.2112C37.6987 36.5028 37.2766 36.6667 36.8365 36.6667ZM36.8365 34.1805C36.6401 34.1805 36.4483 34.235 36.2849 34.3373C36.1217 34.4396 35.9944 34.5849 35.9193 34.755C35.8442 34.9251 35.8245 35.1122 35.8628 35.2927C35.9011 35.4733 35.9957 35.6392 36.1345 35.7693C36.2734 35.8995 36.4502 35.9882 36.6428 36.024C36.8354 36.0599 37.035 36.0415 37.2165 35.9711C37.3978 35.9007 37.5529 35.7813 37.662 35.6283C37.7711 35.4752 37.8293 35.2952 37.8293 35.1112C37.8284 34.8646 37.7236 34.6284 37.5375 34.454C37.3516 34.2796 37.0995 34.1813 36.8365 34.1805Z" fill="#1D2939"/>
<path id="Vector_52" fill-rule="evenodd" clip-rule="evenodd" d="M49.3365 35.1112C49.3365 35.3749 49.2586 35.6327 49.1128 35.852C48.9669 36.0712 48.7597 36.2421 48.517 36.343C48.2745 36.4439 48.0076 36.4704 47.7501 36.4189C47.4926 36.3675 47.2561 36.2405 47.0705 36.054C46.8848 35.8675 46.7584 35.63 46.7072 35.3713C46.6559 35.1127 46.6823 34.8446 46.7827 34.6009C46.8832 34.3573 47.0533 34.149 47.2716 34.0026C47.4899 33.856 47.7465 33.7779 48.009 33.7779C48.3611 33.7779 48.6988 33.9183 48.9477 34.1684C49.1966 34.4184 49.3365 34.7576 49.3365 35.1112Z" fill="#FCE8CB"/>
<path id="Vector_53" d="M48.0091 36.6667C47.7028 36.6667 47.4034 36.5756 47.1487 36.4046C46.8941 36.2337 46.6956 35.9908 46.5784 35.7065C46.4611 35.4222 46.4304 35.1095 46.4902 34.8077C46.5499 34.506 46.6974 34.2288 46.9141 34.0113C47.1307 33.7937 47.4066 33.6456 47.707 33.5856C48.0074 33.5256 48.3188 33.5563 48.6018 33.6741C48.8847 33.7918 49.1266 33.9912 49.2968 34.247C49.467 34.5027 49.5578 34.8036 49.5578 35.1112C49.5569 35.5235 49.3935 35.9187 49.1033 36.2101C48.8131 36.5017 48.4196 36.6659 48.0091 36.6667ZM48.0091 34.1805C47.8258 34.1798 47.6463 34.2339 47.4935 34.3358C47.3407 34.4376 47.2214 34.5827 47.1508 34.7527C47.0801 34.9227 47.0613 35.11 47.0967 35.2908C47.1321 35.4715 47.22 35.6376 47.3495 35.7682C47.479 35.8987 47.6441 35.9876 47.8239 36.0238C48.0038 36.0599 48.1902 36.0417 48.3597 35.9714C48.5292 35.9011 48.6742 35.7817 48.7761 35.6286C48.8781 35.4755 48.9325 35.2955 48.9325 35.1112C48.9317 34.8651 48.8342 34.6294 48.6613 34.4551C48.4884 34.2809 48.2541 34.1822 48.0091 34.1805Z" fill="#1D2939"/>
<path id="Vector_54" d="M48.2283 34.4888C48.2283 37.6261 45.1723 42.4444 42.4761 42.4444C39.9091 42.4444 36.7273 37.6261 36.7273 34.4888C36.7086 33.7309 36.8436 32.977 37.1243 32.2715C37.4049 31.566 37.8254 30.9231 38.3612 30.3806C38.8971 29.8381 39.5374 29.4069 40.2443 29.1127C40.9512 28.8183 41.7106 28.6666 42.4778 28.6666C43.245 28.6666 44.0044 28.8183 44.7113 29.1127C45.4183 29.4069 46.0585 29.8381 46.5944 30.3806C47.1302 30.9231 47.5508 31.566 47.8313 32.2715C48.112 32.977 48.247 33.7309 48.2283 34.4888Z" fill="#FCE8CB"/>
<path id="Vector_55" d="M42.4778 42.6667C39.708 42.6667 36.5044 37.6787 36.5044 34.4246C36.5044 33.6393 36.6589 32.8617 36.9591 32.1362C37.2593 31.4105 37.6993 30.7513 38.254 30.196C38.8087 29.6406 39.4672 29.2002 40.1919 28.8996C40.9166 28.5991 41.6934 28.4444 42.4778 28.4444C43.2623 28.4444 44.0391 28.5991 44.7638 28.8996C45.4886 29.2002 46.147 29.6406 46.7017 30.196C47.2564 30.7513 47.6964 31.4105 47.9966 32.1362C48.2968 32.8617 48.4513 33.6393 48.4513 34.4246C48.4513 37.7522 45.3044 42.6667 42.4778 42.6667ZM42.4778 29.0859C41.0617 29.0859 39.7037 29.6491 38.7023 30.6516C37.701 31.654 37.1385 33.0137 37.1385 34.4314C37.1385 37.3178 40.1151 42.0319 42.4778 42.0319C44.8972 42.0319 47.8172 37.3546 47.8172 34.4314C47.8172 33.0137 47.2547 31.654 46.2534 30.6516C45.252 29.6491 43.894 29.0859 42.4778 29.0859Z" fill="#1D2939"/>
<path id="Vector_56" d="M40.9289 34.3335C40.9289 34.4431 40.8966 34.5502 40.8362 34.6415C40.7757 34.7326 40.6896 34.8039 40.589 34.846C40.4883 34.8883 40.3774 34.8997 40.2703 34.8787C40.1633 34.8579 40.0647 34.8056 39.9871 34.7286C39.9094 34.6516 39.8563 34.5532 39.8342 34.4459C39.8121 34.3386 39.8221 34.2271 39.863 34.1255C39.9038 34.0239 39.9737 33.9367 40.0637 33.8748C40.1538 33.813 40.26 33.7793 40.3692 33.7779C40.4424 33.7767 40.5154 33.79 40.5834 33.8174C40.6515 33.8448 40.7134 33.8855 40.7656 33.9373C40.8177 33.9891 40.859 34.0507 40.8871 34.1189C40.9151 34.1869 40.9294 34.2599 40.9289 34.3335Z" fill="#1D2939"/>
<path id="Vector_57" d="M44.9119 34.3335C44.9119 34.4437 44.8792 34.5514 44.8181 34.6428C44.7571 34.7343 44.6703 34.8055 44.5689 34.8473C44.4674 34.8892 44.3558 34.8998 44.2483 34.8778C44.1409 34.8559 44.0424 34.8023 43.9653 34.7239C43.8882 34.6455 43.836 34.546 43.8155 34.4377C43.7949 34.3295 43.8068 34.2176 43.8497 34.1162C43.8926 34.0148 43.9645 33.9286 44.0564 33.8682C44.1481 33.808 44.2557 33.7766 44.3654 33.7779C44.4376 33.7784 44.509 33.793 44.5755 33.8213C44.6421 33.8494 44.7024 33.8904 44.7531 33.942C44.804 33.9937 44.8441 34.0547 44.8713 34.1219C44.8984 34.1891 44.9123 34.261 44.9119 34.3335Z" fill="#1D2939"/>
<path id="Vector_58" d="M40.2656 35.9999C40.2656 36.3692 39.8185 36.6665 39.27 36.6665C38.7216 36.6665 38.2744 36.3692 38.2744 35.9999C38.2744 35.6306 38.7216 35.3332 39.27 35.3332C39.8185 35.3332 40.2656 35.6306 40.2656 35.9999Z" fill="#F5978A"/>
<path id="Vector_59" d="M46.4603 35.9999C46.4603 36.3692 46.0653 36.6665 45.5769 36.6665C45.0886 36.6665 44.6904 36.3692 44.6904 35.9999C44.6904 35.6306 45.0854 35.3332 45.5769 35.3332C46.0683 35.3332 46.4603 35.6306 46.4603 35.9999Z" fill="#F5978A"/>
<path id="Vector_60" d="M42.5877 27.5556C39.3506 27.5556 36.7256 30.0422 36.7256 33.105C36.7265 33.4022 36.7844 33.6965 36.8961 33.9725C36.9463 34.1149 37.7856 33.6612 37.8559 33.6115C38.213 33.3582 38.5098 33.0304 38.7253 32.6513C38.8119 32.5 38.8879 32.3429 38.9527 32.1811C39.1433 31.6746 39.6683 30.2739 40.2034 30.3832C41.7776 30.6923 43.3977 30.6923 44.9719 30.3832C45.5036 30.2739 46.0286 31.6746 46.2226 32.1811C46.286 32.3435 46.362 32.5007 46.45 32.6513C46.619 32.9829 46.8598 33.2735 47.1551 33.5024C47.4505 33.7313 47.7931 33.893 48.1588 33.9758C48.1588 33.9427 48.2056 33.9295 48.239 33.9162C48.4831 33.8301 48.4496 33.3103 48.4496 33.1182C48.4496 30.0323 45.8246 27.5556 42.5877 27.5556Z" fill="#475467"/>
<path id="Vector_61" d="M36.8193 34.4401C36.7816 34.4458 36.7431 34.4458 36.7054 34.4401C36.6515 34.4242 36.6021 34.3954 36.5614 34.3561C36.5205 34.3167 36.4895 34.268 36.4709 34.2139C36.345 33.8866 36.2814 33.5377 36.2832 33.186C36.2832 29.8522 39.0606 27.111 42.4779 27.111C45.8952 27.111 48.6726 29.8522 48.6726 33.1826V33.2442C48.6726 33.556 48.6726 34.1249 48.2906 34.303L48.2639 34.327C48.2289 34.3556 48.1886 34.3766 48.1453 34.389C48.1022 34.4014 48.0571 34.4048 48.0126 34.3989C47.5985 34.3081 47.2091 34.1246 46.8725 33.8615C46.536 33.5985 46.2605 33.2625 46.0661 32.8777C45.9694 32.7066 45.8864 32.5279 45.8181 32.3431V32.3088C45.2788 30.8527 45.0074 30.7019 44.937 30.6882C44.1324 30.8571 43.3127 30.9398 42.4914 30.9349C41.6667 30.9391 40.8437 30.8565 40.0356 30.6882C39.9753 30.6882 39.7005 30.8527 39.1612 32.3088V32.3431C39.0903 32.5274 39.0064 32.706 38.9099 32.8777C38.6713 33.3113 38.3431 33.6866 37.9484 33.9775C37.6067 34.2085 37.2225 34.3659 36.8193 34.4401ZM48.1064 34.0255L48.2237 34.3304H48.2438L48.1064 34.0255ZM42.4779 27.7757C39.4157 27.7757 36.9266 30.2016 36.9266 33.186C36.9261 33.3678 36.9497 33.5487 36.9969 33.7239C37.1897 33.6415 37.3767 33.5453 37.5564 33.4361C37.8731 33.2014 38.1371 32.9 38.3303 32.5522C38.4078 32.4107 38.4761 32.2642 38.5347 32.1135V32.0792C38.9601 30.9349 39.4493 29.8966 40.1428 30.0475C41.6769 30.3581 43.2555 30.3581 44.7896 30.0475C45.4831 29.8966 45.9756 30.9349 46.3977 32.0792V32.1135C46.4549 32.2649 46.5232 32.4114 46.6021 32.5522C46.8805 33.108 47.3621 33.5291 47.9422 33.7239C47.9782 33.5738 47.9906 33.4189 47.9791 33.2649V33.1929C48.0294 30.1948 45.5368 27.7757 42.4779 27.7757Z" fill="#1D2939"/>
<path id="Vector_62" d="M40.2762 42.3185L39.1157 43.1969L41.3534 46.1796L42.5138 45.3011L40.2762 42.3185Z" fill="#475467"/>
<path id="Vector_63" d="M41.3744 46.4445C41.3219 46.4437 41.2704 46.4309 41.2243 46.4072C41.1781 46.3836 41.1386 46.3498 41.109 46.3087L38.7796 43.372C38.7296 43.304 38.7082 43.2205 38.7199 43.1384C38.7316 43.0561 38.7752 42.981 38.8424 42.9278L40.0507 42.0627C40.1235 42.013 40.2135 41.9917 40.3022 42.0031C40.3456 42.0086 40.3875 42.0222 40.4253 42.0434C40.4631 42.0644 40.4961 42.0924 40.5223 42.1258L42.8517 45.0591C42.9045 45.1267 42.9282 45.2109 42.918 45.2944C42.9042 45.3787 42.8567 45.4547 42.7853 45.5066L41.577 46.3716C41.5202 46.4172 41.4488 46.4429 41.3744 46.4445ZM39.5129 43.2527L41.4373 45.6789L42.1078 45.1982L40.1835 42.7754L39.5129 43.2527Z" fill="#1D2939"/>
<path id="Vector_64" d="M42.5029 45.2967L43.6633 46.1751L45.9011 43.1924L44.7406 42.314L42.5029 45.2967Z" fill="#475467"/>
<path id="Vector_65" d="M43.7185 46.4445C43.6495 46.4441 43.5824 46.422 43.5266 46.3814L42.3847 45.5134C42.3171 45.4615 42.2721 45.3852 42.259 45.3006C42.2494 45.2168 42.2718 45.1324 42.3219 45.0646L44.5294 42.1218C44.5819 42.0573 44.6567 42.0151 44.7389 42.0033C44.821 41.9917 44.9045 42.0114 44.9729 42.0587L46.118 42.9265C46.1821 42.9793 46.2242 43.0545 46.2359 43.137C46.2474 43.2195 46.2279 43.3033 46.1809 43.3721L43.9734 46.3082C43.9439 46.3488 43.9057 46.3821 43.8615 46.4057C43.8174 46.4294 43.7685 46.4426 43.7185 46.4445ZM43.0203 45.1943L43.6557 45.6764L45.4792 43.2424L44.8306 42.7636L43.0203 45.1943Z" fill="#1D2939"/>
<path id="Vector_66" d="M47.0267 49.7778C46.9387 49.7778 46.8543 49.7425 46.7922 49.6796C46.7299 49.6167 46.695 49.5314 46.695 49.4426V47.0958C46.6805 47.0458 46.6778 46.9932 46.687 46.9419C46.6962 46.8908 46.7171 46.8425 46.748 46.8008C46.7789 46.7591 46.819 46.7254 46.8651 46.702C46.9112 46.6788 46.962 46.6666 47.0135 46.6666C47.0651 46.6666 47.1158 46.6788 47.162 46.702C47.208 46.7254 47.2481 46.7591 47.279 46.8008C47.3099 46.8425 47.3308 46.8908 47.34 46.9419C47.3492 46.9932 47.3465 47.0458 47.3321 47.0958V49.4426C47.3324 49.527 47.301 49.6084 47.2445 49.6706C47.1879 49.7328 47.1101 49.771 47.0267 49.7778Z" fill="#1D2939"/>
<path id="Vector_67" d="M42.3757 39.331C41.9842 39.3497 41.5961 39.2532 41.2635 39.0543C40.9309 38.8555 40.6696 38.5637 40.5148 38.2184C40.4807 38.1434 40.4777 38.0587 40.5063 37.9816C40.5349 37.9045 40.5932 37.8409 40.6691 37.8035C40.7469 37.7717 40.8343 37.7693 40.9139 37.7967C40.9935 37.8241 41.0593 37.8794 41.0983 37.9514C41.2015 38.1902 41.3804 38.392 41.6095 38.5282C41.8388 38.6643 42.1067 38.7281 42.3757 38.7103C42.639 38.7207 42.8997 38.6563 43.125 38.5252C43.3505 38.3943 43.5307 38.2025 43.6432 37.9739C43.6866 37.9176 43.748 37.8766 43.818 37.8568C43.888 37.837 43.9628 37.8397 44.0311 37.8645C44.0993 37.8892 44.1573 37.9346 44.1962 37.9939C44.2352 38.0531 44.2529 38.1229 44.2466 38.1926C44.0892 38.54 43.8268 38.8342 43.4933 39.0371C43.1598 39.2401 42.7705 39.3424 42.3757 39.331Z" fill="#1D2939"/>
<path id="Vector_68" fill-rule="evenodd" clip-rule="evenodd" d="M48.6727 28.4429C48.6727 28.4429 45.9598 31.3334 42.6101 31.3334C39.2604 31.3334 38.0532 30.0394 38.0532 28.4429C38.0532 26.8463 39.2604 25.5556 42.6101 25.5556C45.9598 25.5556 48.6727 28.4429 48.6727 28.4429Z" fill="#475467"/>
<path id="Vector_69" d="M42.5917 31.5556C38.258 31.5556 37.6108 29.5322 37.6108 28.3317C37.6108 27.1311 38.258 25.1111 42.5917 25.1111C46.1121 25.1111 48.9075 27.9877 49.0295 28.1091C49.0847 28.1708 49.1152 28.2506 49.1152 28.3333C49.1152 28.416 49.0847 28.4958 49.0295 28.5576C48.9075 28.6791 46.1121 31.5556 42.5917 31.5556ZM42.5917 25.7586C40.6163 25.7586 38.2614 26.2071 38.2614 28.3317C38.2614 30.4562 40.6163 30.9081 42.5917 30.9081C45.2787 30.9081 47.5928 28.996 48.3179 28.3317C47.5928 27.6707 45.2787 25.7586 42.5917 25.7586Z" fill="#1D2939"/>
<path id="Vector_70" d="M31.7611 49.7778C31.6731 49.7778 31.5887 49.7425 31.5264 49.6796C31.4643 49.6167 31.4293 49.5314 31.4293 49.4426V47.0958C31.4149 47.0458 31.4122 46.9932 31.4213 46.9419C31.4306 46.8908 31.4514 46.8425 31.4824 46.8008C31.5133 46.7591 31.5534 46.7254 31.5995 46.702C31.6455 46.6788 31.6963 46.6666 31.7479 46.6666C31.7994 46.6666 31.8502 46.6788 31.8962 46.702C31.9424 46.7254 31.9825 46.7591 32.0133 46.8008C32.0442 46.8425 32.0652 46.8908 32.0744 46.9419C32.0836 46.9932 32.0809 47.0458 32.0664 47.0958V49.4426C32.0668 49.527 32.0354 49.6084 31.9788 49.6706C31.9222 49.7328 31.8445 49.771 31.7611 49.7778Z" fill="#1D2939"/>
<path id="Vector_71" d="M31.6369 33.3333H19.4688V47.3333H31.6369V33.3333Z" fill="#475467"/>
<path id="Vector_72" d="M31.7448 47.7778H19.5821C19.4934 47.7778 19.4083 47.7423 19.3456 47.6792C19.2828 47.6161 19.2476 47.5305 19.2476 47.4412V33.4477C19.2476 33.3585 19.2828 33.2729 19.3456 33.2097C19.4083 33.1466 19.4934 33.1111 19.5821 33.1111H31.7448C31.8335 33.1111 31.9186 33.1466 31.9814 33.2097C32.0441 33.2729 32.0794 33.3585 32.0794 33.4477V47.4546C32.0759 47.5415 32.0391 47.6238 31.9768 47.684C31.9144 47.7442 31.8313 47.7779 31.7448 47.7778ZM19.9067 47.1315H31.4336V33.7742H19.9067V47.1315Z" fill="#1D2939"/>
<path id="Vector_73" d="M32.9646 49.3236V47.8857C32.9646 47.469 32.8793 47.0564 32.7138 46.6714C32.5483 46.2864 32.3056 45.9366 31.9998 45.642C31.6938 45.3473 31.3307 45.1135 30.931 44.9541C30.5313 44.7946 30.103 44.7125 29.6704 44.7125H27.4923V43.3498C26.964 43.736 26.3262 43.9583 25.6637 43.987C25.0114 43.9499 24.3865 43.7219 23.8724 43.3334H23.8351V44.7223H21.6571C20.7833 44.7223 19.9455 45.0567 19.3277 45.6518C18.7099 46.2469 18.3628 47.054 18.3628 47.8955V49.3334L32.9646 49.3236Z" fill="#FCE8CB"/>
<path id="Vector_74" d="M32.8515 49.7778H18.476C18.3872 49.7778 18.3022 49.7419 18.2395 49.678C18.1768 49.6141 18.1416 49.5274 18.1416 49.4371V47.938C18.1495 46.9787 18.5287 46.0612 19.1966 45.3849C19.8645 44.7088 20.7673 44.3284 21.7088 44.3267H23.5341V43.2296C23.5341 43.1393 23.5694 43.0526 23.632 42.9887C23.6947 42.9248 23.7798 42.8889 23.8685 42.8889H23.9052C23.9714 42.8884 24.036 42.9099 24.0891 42.9502C24.5427 43.3138 25.0944 43.5276 25.6705 43.5634C26.2577 43.534 26.8223 43.3223 27.2885 42.9571C27.3375 42.9272 27.3934 42.9107 27.4505 42.9091C27.5075 42.9074 27.5642 42.9207 27.6148 42.9477C27.6654 42.9747 27.7084 43.0145 27.7397 43.0632C27.771 43.112 27.7894 43.1681 27.7934 43.2262V44.3267H29.6187C30.5648 44.3284 31.4716 44.7125 32.1402 45.3946C32.809 46.0767 33.1849 47.0012 33.1859 47.9653V49.4644C33.1791 49.5499 33.141 49.6297 33.079 49.6878C33.017 49.7459 32.9358 49.778 32.8515 49.7778ZM18.7868 49.1237H32.5272V47.9517C32.5272 47.1616 32.2195 46.4039 31.6716 45.8449C31.1238 45.2859 30.3806 44.9715 29.6053 44.9705H27.459C27.3703 44.9705 27.2853 44.9347 27.2226 44.8707C27.1599 44.8069 27.1247 44.7202 27.1247 44.6299V43.7918C26.6716 44.0506 26.1631 44.1922 25.6437 44.204C25.1221 44.1893 24.6126 44.0404 24.1626 43.7714V44.6673C24.1626 44.7577 24.1274 44.8444 24.0647 44.9082C24.002 44.9722 23.917 45.008 23.8284 45.008H21.682C20.9068 45.009 20.1636 45.3234 19.6157 45.8824C19.0679 46.4414 18.7601 47.1991 18.7601 47.9892L18.7868 49.1237Z" fill="#1D2939"/>
<path id="Vector_75" d="M32.9646 49.32V47.8667C32.9646 47.4464 32.8794 47.0303 32.714 46.642C32.5486 46.2537 32.3062 45.9009 32.0006 45.6039C31.695 45.3067 31.3322 45.0709 30.9329 44.9101C30.5336 44.7493 30.1056 44.6666 29.6734 44.6666H29.1514L26.8907 47.5832L25.7247 46.7296L24.5553 47.5832L22.3081 44.6797H21.6539C20.7811 44.6797 19.9439 45.0169 19.3268 45.617C18.7096 46.2172 18.3628 47.0311 18.3628 47.8798V49.3332L32.9646 49.32Z" fill="#F16C7A"/>
<path id="Vector_76" d="M32.8515 49.7778H18.476C18.3872 49.7778 18.3022 49.7427 18.2395 49.6802C18.1768 49.6177 18.1416 49.5329 18.1416 49.4445V47.9745C18.1505 47.0364 18.5299 46.1396 19.1977 45.4787C19.8656 44.8178 20.7678 44.4462 21.7088 44.4445H22.354C22.421 44.4465 22.4858 44.4686 22.54 44.5079C22.5943 44.5471 22.6355 44.6016 22.6583 44.6645L24.634 47.2745L25.53 46.6078C25.5866 46.5677 25.6544 46.546 25.7239 46.546C25.7934 46.546 25.8612 46.5677 25.9178 46.6078L26.8105 47.2745L28.8164 44.6411C28.8394 44.5837 28.8791 44.5345 28.9302 44.4995C28.9814 44.4645 29.0418 44.4453 29.1039 44.4445H29.6187C30.5642 44.4462 31.4706 44.8215 32.1391 45.4882C32.8077 46.1548 33.1841 47.0584 33.1859 48.0011V49.4711C33.1791 49.5549 33.141 49.633 33.079 49.6898C33.017 49.7467 32.9358 49.7781 32.8515 49.7778ZM18.7868 49.1378H32.5272V47.9878C32.5264 47.2155 32.2183 46.475 31.6704 45.9287C31.1226 45.3826 30.38 45.0754 29.6053 45.0745H29.271L27.1314 47.9045C27.0782 47.97 27.002 48.013 26.9183 48.0248C26.8345 48.0365 26.7494 48.0161 26.68 47.9678L25.7239 47.2478L24.7644 47.9678C24.6951 48.0161 24.61 48.0365 24.5263 48.0248C24.4425 48.013 24.3664 47.97 24.3131 47.9045L22.1735 45.0745H21.7088C20.9341 45.0754 20.1914 45.3826 19.6437 45.9287C19.0959 46.475 18.7877 47.2155 18.7868 47.9878V49.1378Z" fill="#1D2939"/>
<path id="Vector_77" fill-rule="evenodd" clip-rule="evenodd" d="M21.4601 36.5555C21.4601 36.7971 21.3822 37.0335 21.2363 37.2344C21.0905 37.4355 20.8831 37.5921 20.6406 37.6846C20.398 37.7771 20.1311 37.8013 19.8736 37.7541C19.6161 37.707 19.3796 37.5906 19.1939 37.4197C19.0083 37.2487 18.8819 37.031 18.8307 36.7939C18.7795 36.5568 18.8057 36.311 18.9062 36.0877C19.0066 35.8643 19.1769 35.6735 19.3951 35.5392C19.6134 35.4049 19.8701 35.3332 20.1326 35.3332C20.4847 35.3332 20.8223 35.4619 21.0712 35.6912C21.3202 35.9204 21.4601 36.2313 21.4601 36.5555Z" fill="#FCE8CB"/>
<path id="Vector_78" d="M20.0256 38.2223C19.697 38.223 19.3758 38.1257 19.1024 37.9429C18.829 37.76 18.6158 37.4997 18.4898 37.195C18.3637 36.8903 18.3306 36.555 18.3945 36.2314C18.4584 35.9077 18.6165 35.6104 18.8488 35.3771C19.081 35.1439 19.377 34.985 19.6992 34.9208C20.0214 34.8567 20.3554 34.8899 20.6587 35.0165C20.962 35.1431 21.2211 35.3572 21.4032 35.6319C21.5853 35.9065 21.682 36.2292 21.6814 36.5591C21.6805 36.9999 21.5057 37.4224 21.1954 37.7342C20.8851 38.0458 20.4644 38.2214 20.0256 38.2223ZM20.0256 35.564C19.8297 35.564 19.6381 35.6224 19.4752 35.7317C19.3123 35.841 19.1852 35.9965 19.1103 36.1783C19.0353 36.3601 19.0156 36.5602 19.0538 36.7532C19.092 36.9462 19.1864 37.1236 19.325 37.2628C19.4635 37.402 19.6401 37.4968 19.8323 37.5351C20.0244 37.5735 20.2236 37.5539 20.4047 37.4785C20.5857 37.4031 20.7405 37.2756 20.8493 37.112C20.9582 36.9483 21.0163 36.7559 21.0163 36.5591C21.0181 36.4273 20.9938 36.2964 20.9449 36.1741C20.8959 36.0517 20.8232 35.9403 20.731 35.8465C20.6388 35.7525 20.529 35.678 20.4079 35.6271C20.2868 35.5762 20.1568 35.55 20.0256 35.5501V35.564Z" fill="#1D2939"/>
<path id="Vector_79" d="M23.4939 43.7971L22.3335 44.6754L24.5711 47.6581L25.7316 46.7798L23.4939 43.7971Z" fill="#475467"/>
<path id="Vector_80" d="M24.6449 47.9999C24.5957 47.9991 24.5474 47.9875 24.5033 47.9656C24.4592 47.9437 24.4206 47.9124 24.3902 47.8736L22.1837 44.9332C22.1358 44.8642 22.1156 44.7797 22.1273 44.6964C22.1389 44.6132 22.1815 44.5375 22.2466 44.4846L23.3911 43.6207C23.4586 43.5705 23.5426 43.548 23.626 43.5576C23.7102 43.5708 23.786 43.616 23.8378 43.6838L26.0441 46.6244C26.093 46.6926 26.1142 46.7769 26.1037 46.8602C26.0914 46.9442 26.0477 47.0203 25.9813 47.0729L24.8367 47.9367C24.7809 47.9774 24.7138 47.9995 24.6449 47.9999ZM22.8851 44.8036L24.7077 47.2324L25.3429 46.7539L23.5202 44.3219L22.8851 44.8036Z" fill="#1D2939"/>
<path id="Vector_81" d="M25.7217 46.7814L26.8822 47.6597L29.1198 44.677L27.9594 43.7987L25.7217 46.7814Z" fill="#475467"/>
<path id="Vector_82" d="M26.9029 47.9999C26.8341 47.9995 26.767 47.9774 26.7113 47.9368L25.5674 47.0692C25.5011 47.0166 25.4573 46.9404 25.445 46.8565C25.4345 46.773 25.4557 46.6886 25.5046 46.6204L27.7096 43.6786C27.7623 43.6132 27.8376 43.5704 27.9204 43.5586C28.0032 43.547 28.0874 43.5673 28.156 43.6154L29.2997 44.4797C29.3661 44.5323 29.4098 44.6084 29.4221 44.6924C29.4326 44.7758 29.4114 44.8602 29.3625 44.9284L27.1575 47.8702C27.1274 47.9096 27.089 47.9417 27.0449 47.9641C27.0008 47.9866 26.9523 47.9987 26.9029 47.9999ZM26.2054 46.7533L26.8401 47.2321L28.6617 44.8021L28.0138 44.3201L26.2054 46.7533Z" fill="#1D2939"/>
<path id="Vector_83" fill-rule="evenodd" clip-rule="evenodd" d="M32.5221 36.5555C32.5221 36.7971 32.4442 37.0335 32.2983 37.2344C32.1525 37.4355 31.9452 37.5921 31.7026 37.6846C31.4601 37.7771 31.1931 37.8013 30.9356 37.7541C30.6781 37.707 30.4417 37.5906 30.256 37.4197C30.0703 37.2487 29.944 37.031 29.8927 36.7939C29.8415 36.5568 29.8678 36.311 29.9682 36.0877C30.0687 35.8643 30.2388 35.6735 30.4572 35.5392C30.6754 35.4049 30.9321 35.3332 31.1946 35.3332C31.5467 35.3332 31.8844 35.4619 32.1332 35.6912C32.3822 35.9204 32.5221 36.2313 32.5221 36.5555Z" fill="#FCE8CB"/>
<path id="Vector_84" d="M31.3053 38.2222C30.9772 38.2222 30.6563 38.1245 30.3834 37.9414C30.1106 37.7582 29.8979 37.498 29.7724 37.1934C29.6467 36.8888 29.6138 36.5537 29.6779 36.2305C29.742 35.9071 29.9 35.6102 30.1321 35.377C30.364 35.144 30.6598 34.9853 30.9816 34.921C31.3035 34.8566 31.6371 34.8896 31.9403 35.0158C32.2435 35.1419 32.5027 35.3556 32.685 35.6296C32.8673 35.9037 32.9646 36.226 32.9646 36.5556C32.9646 36.9976 32.7898 37.4215 32.4786 37.7341C32.1675 38.0466 31.7454 38.2222 31.3053 38.2222ZM31.3053 35.5639C31.1092 35.5639 30.9176 35.6223 30.7546 35.7319C30.5915 35.8414 30.4646 35.997 30.3897 36.179C30.3148 36.3611 30.2954 36.5614 30.3339 36.7545C30.3724 36.9477 30.4671 37.1249 30.606 37.2639C30.7449 37.403 30.9217 37.4974 31.1141 37.5355C31.3065 37.5735 31.5059 37.5533 31.6868 37.4774C31.8678 37.4016 32.0223 37.2735 32.1308 37.1094C32.2392 36.9453 32.2967 36.7525 32.296 36.5556C32.2915 36.2946 32.1851 36.046 31.9998 35.8632C31.8145 35.6803 31.5651 35.5778 31.3053 35.5779V35.5639Z" fill="#1D2939"/>
<path id="Vector_85" d="M31.416 35.964C31.416 39.1363 28.36 44.0001 25.6638 44.0001C23.0933 44.0001 19.9116 39.1363 19.9116 35.964C19.9116 34.4411 20.5177 32.9807 21.5964 31.904C22.6752 30.8272 24.1383 30.2223 25.6638 30.2223C27.1894 30.2223 28.6525 30.8272 29.7312 31.904C30.81 32.9807 31.416 34.4411 31.416 35.964Z" fill="#FCE8CB"/>
<path id="Vector_86" d="M25.6639 44.2223C22.8941 44.2223 19.6904 39.2355 19.6904 35.9789C19.6904 35.1937 19.8449 34.4163 20.1451 33.6908C20.4453 32.9655 20.8853 32.3064 21.44 31.7512C21.9947 31.196 22.6532 30.7556 23.3779 30.4552C24.1026 30.1547 24.8794 30 25.6639 30C26.4483 30 27.2251 30.1547 27.9498 30.4552C28.6746 30.7556 29.333 31.196 29.8877 31.7512C30.4424 32.3064 30.8824 32.9655 31.1826 33.6908C31.4828 34.4163 31.6373 35.1937 31.6373 35.9789C31.6373 39.3056 28.4904 44.2223 25.6639 44.2223ZM25.6639 30.6447C24.2477 30.6447 22.8897 31.2077 21.8883 32.21C20.887 33.2122 20.3245 34.5716 20.3245 35.9889C20.3245 38.8781 23.3012 43.5876 25.6639 43.5876C28.0832 43.5876 31.0032 38.9115 31.0032 35.9889C31.0032 34.5716 30.4407 33.2122 29.4394 32.21C28.438 31.2077 27.08 30.6447 25.6639 30.6447Z" fill="#1D2939"/>
<path id="Vector_87" d="M24.1149 35.8889C24.1149 35.9985 24.0826 36.1057 24.0222 36.1968C23.9617 36.288 23.8758 36.3592 23.775 36.4015C23.6744 36.4437 23.5635 36.4551 23.4564 36.4342C23.3493 36.4133 23.2508 36.3611 23.1732 36.284C23.0956 36.207 23.0423 36.1087 23.0202 36.0014C22.9982 35.894 23.0082 35.7825 23.049 35.6809C23.0898 35.5793 23.1596 35.492 23.2497 35.4302C23.3398 35.3684 23.4461 35.3346 23.5551 35.3334C23.6284 35.3324 23.701 35.3462 23.7689 35.3737C23.8368 35.4012 23.8986 35.442 23.9506 35.4937C24.0026 35.5453 24.044 35.6069 24.0722 35.6747C24.1005 35.7425 24.1149 35.8153 24.1149 35.8889Z" fill="#1D2939"/>
<path id="Vector_88" d="M28.3185 35.8889C28.3185 35.9991 28.2859 36.1067 28.2249 36.1983C28.1638 36.2897 28.077 36.3609 27.9755 36.4027C27.8741 36.4446 27.7625 36.4552 27.6551 36.4333C27.5476 36.4112 27.4491 36.3576 27.372 36.2793C27.2949 36.2009 27.2428 36.1013 27.2222 35.993C27.2017 35.8848 27.2135 35.7729 27.2565 35.6716C27.2993 35.5701 27.3713 35.4839 27.4631 35.4237C27.5549 35.3635 27.6625 35.332 27.7722 35.3334C27.9177 35.3351 28.0567 35.3944 28.159 35.4984C28.2613 35.6024 28.3185 35.7427 28.3185 35.8889Z" fill="#1D2939"/>
<path id="Vector_89" d="M23.4515 37.5555C23.4515 37.9218 23.0565 38.2222 22.5682 38.2222C22.0798 38.2222 21.6816 37.9093 21.6816 37.5555C21.6816 37.2019 22.0766 36.8889 22.5682 36.8889C23.0597 36.8889 23.4515 37.1863 23.4515 37.5555Z" fill="#F5978A"/>
<path id="Vector_90" d="M29.6459 37.5555C29.6459 37.9218 29.2509 38.2222 28.7594 38.2222C28.2679 38.2222 27.876 37.9093 27.876 37.5555C27.876 37.2019 28.271 36.8889 28.7594 36.8889C29.2477 36.8889 29.6459 37.1863 29.6459 37.5555Z" fill="#F5978A"/>
<path id="Vector_91" d="M25.6606 40.8862C25.2897 40.9068 24.9218 40.8065 24.6067 40.5993C24.2915 40.3919 24.0443 40.0874 23.8985 39.727C23.8863 39.6548 23.8969 39.5803 23.9287 39.5151C23.9605 39.45 24.0117 39.3976 24.0744 39.3659C24.1371 39.3344 24.2078 39.3254 24.2759 39.3404C24.3439 39.3554 24.4053 39.3934 24.4509 39.4488C24.5477 39.6986 24.7168 39.9099 24.934 40.0524C25.1512 40.195 25.4055 40.2616 25.6606 40.2429C25.9099 40.2536 26.1567 40.1865 26.3702 40.0501C26.5837 39.9136 26.7543 39.7138 26.8608 39.4756C26.9019 39.4171 26.96 39.3741 27.0263 39.3536C27.0926 39.333 27.1635 39.3358 27.2281 39.3616C27.2927 39.3874 27.3476 39.4347 27.3845 39.4964C27.4214 39.5581 27.4381 39.6308 27.4322 39.7035C27.282 40.0644 27.0332 40.3696 26.7175 40.5803C26.4019 40.791 26.0339 40.8976 25.6606 40.8862Z" fill="#1D2939"/>
<path id="Vector_92" d="M32.0795 33.8795C32.0794 34.4454 32.0062 35.009 31.8619 35.5555C30.4318 34.8516 29.0754 34.0025 27.8132 33.0214C27.4407 32.7365 27.078 32.4415 26.7318 32.1263C26.302 31.7462 25.9018 31.3327 25.5351 30.8894C24.7647 29.9052 24.1373 28.8136 23.6724 27.6479C24.6376 27.3321 25.6627 27.2526 26.6638 27.416C27.6651 27.5795 28.6141 27.981 29.4337 28.5882C30.2533 29.1954 30.9201 29.9908 31.3799 30.9098C31.8397 31.8287 32.0794 32.8451 32.0795 33.8761V33.8795Z" fill="#475467"/>
<path id="Vector_93" d="M31.9763 35.7777C31.9272 35.7762 31.8787 35.7648 31.834 35.7441C30.3453 35.0268 28.932 34.1649 27.6149 33.171C27.1879 32.8352 26.8151 32.5497 26.4864 32.2574C26.033 31.8655 25.6104 31.44 25.2224 30.9844C24.408 29.975 23.7459 28.8537 23.2568 27.6556C23.239 27.6142 23.23 27.5696 23.23 27.5246C23.23 27.4796 23.239 27.435 23.2568 27.3936C23.2761 27.3529 23.3034 27.3166 23.3372 27.2866C23.371 27.2566 23.4105 27.2335 23.4533 27.219C24.4947 26.8872 25.6003 26.804 26.6801 26.976C27.76 27.148 28.7836 27.5705 29.6676 28.209C30.5515 28.8474 31.2708 29.6839 31.7669 30.65C32.2629 31.6163 32.5216 32.6849 32.522 33.769C32.523 34.3656 32.4444 34.9597 32.2881 35.5358C32.2766 35.5824 32.2545 35.6257 32.2233 35.6624C32.1921 35.6991 32.1529 35.7282 32.1085 35.7474C32.0674 35.7672 32.0222 35.7776 31.9763 35.7777ZM24.0057 27.7363C24.4479 28.7531 25.0258 29.7067 25.7239 30.5713C26.0908 31.0008 26.4896 31.4028 26.9168 31.7738C27.2353 32.0559 27.5946 32.3415 28.0114 32.6572C29.18 33.5429 30.4277 34.3209 31.7392 34.9816C31.8179 34.5821 31.8576 34.176 31.8578 33.769C31.8578 32.1162 31.1956 30.5309 30.0168 29.3619C28.8379 28.1928 27.2389 27.5356 25.5714 27.5347C25.0429 27.535 24.5168 27.6027 24.0057 27.7363Z" fill="#1D2939"/>
<path id="Vector_94" d="M30.2995 29.3563C29.1694 30.3665 27.9503 31.2746 26.6567 32.0699C24.3227 33.4807 21.8476 34.6487 19.2707 35.5555C19.1093 34.9839 19.027 34.393 19.0264 33.7995C19.0267 32.5051 19.4194 31.2407 20.1538 30.1696C20.8881 29.0986 21.9303 28.2702 23.1455 27.7917C24.3607 27.3132 25.6931 27.2064 26.9703 27.4853C28.2475 27.7642 29.4107 28.416 30.3095 29.3563H30.2995Z" fill="#475467"/>
<path id="Vector_95" d="M19.3714 35.9999C19.321 35.9996 19.2715 35.9866 19.2271 35.9624C19.1872 35.9427 19.1519 35.9146 19.1236 35.8799C19.0952 35.8452 19.0745 35.8048 19.0627 35.7613C18.6462 34.2596 18.7369 32.6593 19.3204 31.216C19.904 29.7728 20.9467 28.5699 22.282 27.7993C23.6174 27.0287 25.1684 26.735 26.6872 26.965C28.2062 27.1951 29.6053 27.9355 30.6615 29.0682C30.7211 29.1328 30.7535 29.2183 30.7521 29.3068C30.7473 29.3953 30.7088 29.4784 30.6447 29.5385C29.5002 30.5911 28.2654 31.5377 26.9551 32.3671C24.5916 33.8273 22.0848 35.0333 19.4753 35.9658C19.4427 35.9829 19.4076 35.9944 19.3714 35.9999ZM25.6739 27.5416C25.0257 27.5402 24.3815 27.6437 23.7653 27.8482C22.5101 28.2553 21.4152 29.0582 20.6396 30.1405C19.864 31.2227 19.4479 32.5278 19.4519 33.8665C19.4508 34.3251 19.5002 34.7824 19.5994 35.2297C22.0431 34.3305 24.3908 33.1819 26.6063 31.8013C27.7902 31.0538 28.912 30.2094 29.9604 29.2761C28.8043 28.1529 27.2634 27.5308 25.6638 27.5416H25.6739Z" fill="#1D2939"/>
<path id="Vector_96" d="M10.8962 4.1911H4.81207C4.35387 4.1911 3.98242 4.56419 3.98242 5.02443V9.8022C3.98242 10.2624 4.35387 10.6355 4.81207 10.6355H10.8962C11.3543 10.6355 11.7258 10.2624 11.7258 9.8022V5.02443C11.7258 4.56419 11.3543 4.1911 10.8962 4.1911Z" fill="#FCE8CB"/>
<path id="Vector_97" d="M10.8959 10.9687H4.8119C4.50423 10.9687 4.20913 10.8461 3.99137 10.6279C3.77361 10.4095 3.65098 10.1134 3.65039 9.80433V5.02433C3.65098 4.71509 3.77354 4.41869 3.99123 4.20002C4.20893 3.98135 4.50403 3.85825 4.8119 3.85767H10.8959C11.2038 3.85825 11.4989 3.98135 11.7166 4.20002C11.9344 4.41869 12.0569 4.71509 12.0575 5.02433V9.80433C12.0569 10.1134 11.9343 10.4095 11.7165 10.6279C11.4987 10.8461 11.2036 10.9687 10.8959 10.9687ZM4.8119 4.52433C4.67988 4.52433 4.55327 4.57701 4.45991 4.67078C4.36656 4.76455 4.31411 4.89173 4.31411 5.02433V9.80433C4.31411 9.86988 4.327 9.9348 4.35205 9.99533C4.37709 10.0559 4.41379 10.1109 4.46005 10.1571C4.5063 10.2034 4.56119 10.24 4.62157 10.2649C4.68195 10.2897 4.74663 10.3024 4.8119 10.3021H10.8959C10.9612 10.3024 11.0259 10.2897 11.0863 10.2649C11.1466 10.24 11.2015 10.2034 11.2478 10.1571C11.294 10.1109 11.3308 10.0559 11.3558 9.99533C11.3808 9.9348 11.3937 9.86988 11.3937 9.80433V5.02433C11.3937 4.89173 11.3413 4.76455 11.248 4.67078C11.1546 4.57701 11.028 4.52433 10.8959 4.52433H4.8119Z" fill="#1D2939"/>
<path id="Vector_98" d="M11.7256 13.8579H3.98226C3.89423 13.8579 3.80983 13.8228 3.7476 13.7602C3.68536 13.6977 3.65039 13.6129 3.65039 13.5246C3.65039 13.4361 3.68536 13.3513 3.7476 13.2888C3.80983 13.2263 3.89423 13.1912 3.98226 13.1912H11.7256C11.8136 13.1912 11.898 13.2263 11.9603 13.2888C12.0225 13.3513 12.0575 13.4361 12.0575 13.5246C12.0575 13.6129 12.0225 13.6977 11.9603 13.7602C11.898 13.8228 11.8136 13.8579 11.7256 13.8579Z" fill="#1D2939"/>
<path id="Vector_99" d="M11.7256 17.4134H3.98226C3.89423 17.4134 3.80983 17.3783 3.7476 17.3158C3.68536 17.2533 3.65039 17.1685 3.65039 17.0801C3.65039 16.9917 3.68536 16.9069 3.7476 16.8444C3.80983 16.7819 3.89423 16.7468 3.98226 16.7468H11.7256C11.8136 16.7468 11.898 16.7819 11.9603 16.8444C12.0225 16.9069 12.0575 16.9917 12.0575 17.0801C12.0575 17.1685 12.0225 17.2533 11.9603 17.3158C11.898 17.3783 11.8136 17.4134 11.7256 17.4134Z" fill="#1D2939"/>
<path id="Vector_100" d="M11.7256 20.969H3.98226C3.89423 20.969 3.80983 20.9339 3.7476 20.8714C3.68536 20.8089 3.65039 20.7241 3.65039 20.6356C3.65039 20.5473 3.68536 20.4625 3.7476 20.4C3.80983 20.3374 3.89423 20.3023 3.98226 20.3023H11.7256C11.8136 20.3023 11.898 20.3374 11.9603 20.4C12.0225 20.4625 12.0575 20.5473 12.0575 20.6356C12.0575 20.7241 12.0225 20.8089 11.9603 20.8714C11.898 20.9339 11.8136 20.969 11.7256 20.969Z" fill="#1D2939"/>
<path id="Vector_101" d="M45.1882 4.1911H39.1041C38.6459 4.1911 38.2744 4.56419 38.2744 5.02443V9.8022C38.2744 10.2624 38.6459 10.6355 39.1041 10.6355H45.1882C45.6463 10.6355 46.0177 10.2624 46.0177 9.8022V5.02443C46.0177 4.56419 45.6463 4.1911 45.1882 4.1911Z" fill="#FCE8CB"/>
<path id="Vector_102" d="M45.188 10.9687H39.1038C38.7962 10.9687 38.5011 10.8461 38.2833 10.6279C38.0656 10.4095 37.943 10.1134 37.9424 9.80433V5.02433C37.943 4.71509 38.0655 4.41869 38.2832 4.20002C38.5009 3.98135 38.796 3.85825 39.1038 3.85767H45.188C45.4958 3.85825 45.7909 3.98135 46.0086 4.20002C46.2263 4.41869 46.3489 4.71509 46.3495 5.02433V9.80433C46.3489 10.1134 46.2262 10.4095 46.0085 10.6279C45.7907 10.8461 45.4956 10.9687 45.188 10.9687ZM39.1038 4.52433C38.9719 4.52433 38.8453 4.57701 38.7519 4.67078C38.6585 4.76455 38.6061 4.89173 38.6061 5.02433V9.80433C38.6061 9.86988 38.6189 9.9348 38.644 9.99533C38.669 10.0559 38.7058 10.1109 38.7521 10.1571C38.7983 10.2034 38.8532 10.24 38.9135 10.2649C38.9739 10.2897 39.0386 10.3024 39.1038 10.3021H45.188C45.2532 10.3024 45.3179 10.2897 45.3783 10.2649C45.4386 10.24 45.4935 10.2034 45.5398 10.1571C45.586 10.1109 45.6228 10.0559 45.6478 9.99533C45.6729 9.9348 45.6857 9.86988 45.6857 9.80433V5.02433C45.6857 4.89173 45.6333 4.76455 45.54 4.67078C45.4466 4.57701 45.32 4.52433 45.188 4.52433H39.1038Z" fill="#1D2939"/>
<path id="Vector_103" d="M46.0176 13.8579H38.2743C38.1862 13.8579 38.1019 13.8228 38.0396 13.7602C37.9774 13.6977 37.9424 13.6129 37.9424 13.5246C37.9424 13.4361 37.9774 13.3513 38.0396 13.2888C38.1019 13.2263 38.1862 13.1912 38.2743 13.1912H46.0176C46.1056 13.1912 46.19 13.2263 46.2523 13.2888C46.3145 13.3513 46.3495 13.4361 46.3495 13.5246C46.3495 13.6129 46.3145 13.6977 46.2523 13.7602C46.19 13.8228 46.1056 13.8579 46.0176 13.8579Z" fill="#1D2939"/>
<path id="Vector_104" d="M46.0176 17.4134H38.2743C38.1862 17.4134 38.1019 17.3783 38.0396 17.3158C37.9774 17.2533 37.9424 17.1685 37.9424 17.0801C37.9424 16.9917 37.9774 16.9069 38.0396 16.8444C38.1019 16.7819 38.1862 16.7468 38.2743 16.7468H46.0176C46.1056 16.7468 46.19 16.7819 46.2523 16.8444C46.3145 16.9069 46.3495 16.9917 46.3495 17.0801C46.3495 17.1685 46.3145 17.2533 46.2523 17.3158C46.19 17.3783 46.1056 17.4134 46.0176 17.4134Z" fill="#1D2939"/>
<path id="Vector_105" d="M46.0176 20.969H38.2743C38.1862 20.969 38.1019 20.9339 38.0396 20.8714C37.9774 20.8089 37.9424 20.7241 37.9424 20.6356C37.9424 20.5473 37.9774 20.4625 38.0396 20.4C38.1019 20.3374 38.1862 20.3023 38.2743 20.3023H46.0176C46.1056 20.3023 46.19 20.3374 46.2523 20.4C46.3145 20.4625 46.3495 20.5473 46.3495 20.6356C46.3495 20.7241 46.3145 20.8089 46.2523 20.8714C46.19 20.9339 46.1056 20.969 46.0176 20.969Z" fill="#1D2939"/>
<path id="Vector_106" d="M45.8825 0.666568H42.564C43.4793 0.667156 44.3571 1.03251 45.0045 1.68245C45.652 2.33239 46.0163 3.21379 46.0175 4.13324V4.20879C46.2305 4.42623 46.3498 4.71924 46.3494 5.02434V9.80212C46.3498 10.1072 46.2305 10.4002 46.0175 10.6177V13.191C46.1055 13.191 46.1899 13.2262 46.2521 13.2887C46.3144 13.3512 46.3494 13.4359 46.3494 13.5244C46.3494 13.6127 46.3144 13.6975 46.2521 13.76C46.1899 13.8225 46.1055 13.8577 46.0175 13.8577V16.7466C46.1055 16.7466 46.1899 16.7817 46.2521 16.8442C46.3144 16.9067 46.3494 16.9915 46.3494 17.0799C46.3494 17.1683 46.3144 17.2531 46.2521 17.3156C46.1899 17.3781 46.1055 17.4132 46.0175 17.4132V20.3021C46.1055 20.3021 46.1899 20.3372 46.2521 20.3998C46.3144 20.4623 46.3494 20.5471 46.3494 20.6354C46.3494 20.7239 46.3144 20.8087 46.2521 20.8712C46.1899 20.9337 46.1055 20.9688 46.0175 20.9688V26.0177C47.1001 26.5735 48.0899 27.2955 48.9512 28.1577C49.0099 28.2197 49.0427 28.302 49.0427 28.3877C49.0427 28.4733 49.0099 28.5557 48.9512 28.6177C48.5271 29.0464 48.0682 29.4388 47.5794 29.791C48.2955 30.7941 48.6822 31.9967 48.6856 33.231V33.2932C48.6908 33.4364 48.6856 33.5797 48.6701 33.7221C48.8673 33.8111 49.0448 33.9389 49.1923 34.0977C49.292 33.77 49.3427 33.4293 49.3427 33.0866V4.13324C49.3421 3.67741 49.2522 3.22615 49.0779 2.80524C48.9038 2.38432 48.6488 2.002 48.3274 1.68009C48.006 1.35818 47.6248 1.10299 47.2053 0.92909C46.7858 0.755189 46.3364 0.665984 45.8825 0.666568Z" fill="#FF8C4B"/>
</g>
</g>
<defs>
<clipPath id="clip0_56_847">
<rect width="50" height="50" fill="white"/>
</clipPath>
</defs>
</svg>
