<svg width="49" height="48" viewBox="0 0 49 48" fill="none" xmlns="http://www.w3.org/2000/svg">
<g clip-path="url(#clip0_1649_178678)">
<path d="M27.2099 0.320078H4.48427C4.00634 0.318956 3.53288 0.412541 3.091 0.595475C2.64912 0.778409 2.24751 1.0471 1.90917 1.38616C1.57082 1.72521 1.30238 2.12798 1.11923 2.57139C0.936072 3.0148 0.841796 3.49015 0.841797 3.97021V31.7633C0.841797 32.2426 0.935793 32.7173 1.11842 33.1601C1.30104 33.603 1.56872 34.0054 1.90617 34.3443C2.24361 34.6833 2.64422 34.9521 3.08511 35.1356C3.52601 35.319 3.99856 35.4134 4.47578 35.4134H44.5706C45.5344 35.4134 46.4588 35.0288 47.1403 34.3443C47.8218 33.6598 48.2046 32.7314 48.2046 31.7633V3.97021C48.2046 3.49087 48.1106 3.01622 47.928 2.57337C47.7454 2.13051 47.4777 1.72812 47.1403 1.38918C46.8028 1.05023 46.4022 0.781365 45.9613 0.597928C45.5204 0.414492 45.0479 0.320078 44.5706 0.320078H27.2099Z" fill="#FFBA93"/>
<path d="M44.5709 35.7333H4.476C3.42806 35.7322 2.42337 35.3136 1.68236 34.5693C0.941353 33.825 0.524562 32.8158 0.523438 31.7632L0.523438 3.97013C0.524562 2.91754 0.941353 1.90837 1.68236 1.16407C2.42337 0.419773 3.42806 0.0011294 4.476 0L27.2017 0C27.2862 0 27.3672 0.0337142 27.4269 0.0937258C27.4867 0.153737 27.5203 0.235131 27.5203 0.32C27.5203 0.404869 27.4867 0.486263 27.4269 0.546274C27.3672 0.606286 27.2862 0.64 27.2017 0.64H4.476C3.59688 0.640565 2.75392 0.991599 2.13228 1.616C1.51065 2.2404 1.16117 3.0871 1.16061 3.97013V31.7632C1.16117 32.6462 1.51065 33.4929 2.13228 34.1173C2.75392 34.7417 3.59688 35.0928 4.476 35.0933H44.5709C45.45 35.0928 46.293 34.7417 46.9146 34.1173C47.5362 33.4929 47.8857 32.6462 47.8863 31.7632V3.97013C47.8857 3.0871 47.5362 2.2404 46.9146 1.616C46.293 0.991599 45.45 0.640565 44.5709 0.64H29.916C29.8315 0.64 29.7505 0.606286 29.6907 0.546274C29.631 0.486263 29.5974 0.404869 29.5974 0.32C29.5974 0.235131 29.631 0.153737 29.6907 0.0937258C29.7505 0.0337142 29.8315 0 29.916 0L44.5709 0C45.6188 0.0011294 46.6235 0.419773 47.3645 1.16407C48.1055 1.90837 48.5223 2.91754 48.5234 3.97013V31.7632C48.5223 32.8158 48.1055 33.825 47.3645 34.5693C46.6235 35.3136 45.6188 35.7322 44.5709 35.7333Z" fill="#1D2939"/>
<path fill-rule="evenodd" clip-rule="evenodd" d="M18.912 16.0149C18.912 16.3453 18.8144 16.6682 18.6317 16.9429C18.449 17.2176 18.1892 17.4317 17.8854 17.5581C17.5815 17.6846 17.2471 17.7176 16.9245 17.6532C16.6019 17.5887 16.3056 17.4296 16.073 17.196C15.8404 16.9624 15.6821 16.6648 15.6179 16.3408C15.5537 16.0167 15.5867 15.6809 15.7125 15.3756C15.8384 15.0704 16.0515 14.8095 16.325 14.626C16.5985 14.4425 16.92 14.3445 17.2489 14.3445C17.69 14.3445 18.113 14.5205 18.4249 14.8337C18.7367 15.147 18.912 15.5719 18.912 16.0149Z" fill="#FCE8CB"/>
<path d="M17.2492 18.0052C16.8572 18.0052 16.4741 17.8885 16.1483 17.6698C15.8224 17.4511 15.5684 17.1402 15.4184 16.7765C15.2684 16.4128 15.2292 16.0126 15.3057 15.6265C15.3821 15.2404 15.5708 14.8858 15.848 14.6074C16.1251 14.329 16.4782 14.1395 16.8626 14.0627C17.247 13.9859 17.6454 14.0253 18.0075 14.1759C18.3696 14.3266 18.6791 14.5817 18.8968 14.909C19.1145 15.2363 19.2308 15.6212 19.2308 16.0148C19.2296 16.5424 19.0205 17.048 18.6491 17.421C18.2778 17.794 17.7744 18.0041 17.2492 18.0052ZM17.2492 14.6644C16.9833 14.6644 16.7233 14.7436 16.5022 14.892C16.2812 15.0404 16.1088 15.2513 16.0071 15.498C15.9053 15.7448 15.8787 16.0163 15.9306 16.2783C15.9825 16.5402 16.1105 16.7808 16.2985 16.9697C16.4865 17.1585 16.7261 17.2872 16.9869 17.3393C17.2477 17.3914 17.518 17.3646 17.7637 17.2624C18.0093 17.1602 18.2193 16.9871 18.367 16.7651C18.5147 16.543 18.5936 16.2819 18.5936 16.0148C18.593 15.6568 18.4512 15.3137 18.1992 15.0606C17.9472 14.8074 17.6056 14.665 17.2492 14.6644Z" fill="#1D2939"/>
<path d="M31.8831 15.2043C31.8831 19.2939 27.9603 25.5744 24.5089 25.5744C21.2148 25.5744 17.1348 19.2939 17.1348 15.2043C17.1348 14.2316 17.3255 13.2684 17.6961 12.3698C18.0667 11.4711 18.6099 10.6546 19.2946 9.9668C19.9794 9.27901 20.7923 8.73342 21.687 8.36118C22.5816 7.98895 23.5405 7.79736 24.5089 7.79736C25.4773 7.79736 26.4362 7.98895 27.3309 8.36118C28.2256 8.73342 29.0385 9.27901 29.7232 9.9668C30.408 10.6546 30.9512 11.4711 31.3218 12.3698C31.6923 13.2684 31.8831 14.2316 31.8831 15.2043Z" fill="#FCE8CB"/>
<path d="M24.5092 25.8944C22.8716 25.8944 20.9814 24.512 19.3247 22.1034C17.7785 19.8549 16.8164 17.2117 16.8164 15.2042C16.8164 13.1549 17.6269 11.1895 19.0696 9.74046C20.5122 8.29138 22.4689 7.47729 24.5092 7.47729C26.5494 7.47729 28.5061 8.29138 29.9487 9.74046C31.3914 11.1895 32.2019 13.1549 32.2019 15.2042C32.2019 19.5221 28.1495 25.8944 24.5092 25.8944ZM24.5092 8.11729C22.6384 8.11899 20.8448 8.86619 19.522 10.1949C18.1992 11.5236 17.4553 13.3252 17.4536 15.2042C17.4536 19.0229 21.3955 25.2544 24.5092 25.2544C25.9725 25.2544 27.7353 23.9402 29.2284 21.7429C30.6684 19.6096 31.5647 17.1114 31.5647 15.2042C31.563 13.3252 30.8191 11.5236 29.4963 10.1949C28.1735 8.86619 26.3799 8.11899 24.5092 8.11729Z" fill="#1D2939"/>
<path d="M22.6255 15.1212C22.6255 15.2642 22.5833 15.404 22.5042 15.5229C22.4251 15.6419 22.3126 15.7346 22.1811 15.7893C22.0495 15.844 21.9047 15.8584 21.7651 15.8305C21.6254 15.8026 21.4971 15.7337 21.3964 15.6325C21.2957 15.5314 21.2272 15.4025 21.1994 15.2622C21.1716 15.122 21.1859 14.9765 21.2404 14.8444C21.2948 14.7122 21.3871 14.5993 21.5055 14.5198C21.6239 14.4404 21.7631 14.398 21.9055 14.398C22.0002 14.3977 22.0939 14.4162 22.1814 14.4524C22.2689 14.4887 22.3484 14.5419 22.4153 14.6091C22.4822 14.6764 22.5352 14.7562 22.5713 14.8441C22.6074 14.9319 22.6258 15.0261 22.6255 15.1212Z" fill="#1D2939"/>
<path d="M27.8326 15.1212C27.8326 15.2642 27.7904 15.404 27.7112 15.5229C27.6321 15.6419 27.5197 15.7346 27.3881 15.7893C27.2565 15.844 27.1118 15.8584 26.9721 15.8305C26.8324 15.8026 26.7042 15.7337 26.6035 15.6325C26.5028 15.5314 26.4342 15.4025 26.4064 15.2622C26.3786 15.122 26.3929 14.9765 26.4474 14.8444C26.5019 14.7122 26.5942 14.5993 26.7126 14.5198C26.831 14.4404 26.9702 14.398 27.1126 14.398C27.2072 14.3977 27.301 14.4162 27.3884 14.4524C27.4759 14.4887 27.5554 14.5419 27.6223 14.6091C27.6892 14.6764 27.7423 14.7562 27.7783 14.8441C27.8144 14.9319 27.8329 15.0261 27.8326 15.1212Z" fill="#1D2939"/>
<path d="M21.7073 17.28C21.7073 17.7941 21.1508 18.2101 20.4669 18.2101C19.783 18.2101 19.2266 17.7835 19.2266 17.28C19.2266 16.7765 19.783 16.3499 20.4669 16.3499C21.1508 16.3499 21.7073 16.7552 21.7073 17.28Z" fill="#F5978A"/>
<path d="M29.7893 17.28C29.7893 17.7941 29.235 18.2101 28.5489 18.2101C27.8629 18.2101 27.3086 17.7835 27.3086 17.28C27.3086 16.7765 27.8651 16.3499 28.5489 16.3499C29.2328 16.3499 29.7893 16.7552 29.7893 17.28Z" fill="#F5978A"/>
<path d="M24.5921 6.16113C20.3783 6.16113 16.961 9.44433 16.961 13.4913C16.9598 13.8838 17.0318 14.2731 17.1733 14.639C17.2413 14.8267 18.3351 14.2251 18.4286 14.1611C18.8911 13.8239 19.2764 13.3911 19.5585 12.8918C19.6717 12.6922 19.769 12.4839 19.8494 12.2689C20.1022 11.6033 20.7861 9.75153 21.4785 9.8966C22.5006 10.1034 23.541 10.2056 24.5836 10.2017C25.6326 10.2071 26.6795 10.1048 27.7079 9.8966C28.4024 9.75153 29.0863 11.6033 29.3369 12.2689C29.4137 12.484 29.5082 12.6924 29.6194 12.8918C30.0887 13.7067 30.8809 14.4833 31.8473 14.6262C31.8473 14.5793 31.9068 14.5622 31.9514 14.5473C32.2679 14.4321 32.2232 13.7451 32.2232 13.4913C32.2254 9.44433 28.808 6.16113 24.5921 6.16113Z" fill="#475467"/>
<path d="M17.244 14.9909C17.2023 14.9923 17.1606 14.9865 17.1208 14.9739C17.0655 14.9576 17.0147 14.9288 16.9723 14.8895C16.9299 14.8503 16.8972 14.8018 16.8765 14.7477C16.721 14.3472 16.6403 13.9212 16.6387 13.4912C16.6387 9.2736 20.2047 5.84106 24.5884 5.84106C28.9721 5.84106 32.5403 9.2736 32.5403 13.4912V13.5723C32.5403 13.9477 32.5573 14.6389 32.0836 14.8373C32.0709 14.8501 32.0603 14.8629 32.0475 14.8736C32.0129 14.9013 31.973 14.9216 31.9302 14.9333C31.8875 14.9451 31.8429 14.948 31.799 14.9419C30.8624 14.8053 29.9449 14.0885 29.3417 13.0517C29.2193 12.8345 29.1149 12.6077 29.0295 12.3733L29.0125 12.3328C28.216 10.2208 27.8316 10.1867 27.7636 10.1995C26.72 10.4118 25.6575 10.5161 24.5927 10.5109C23.5286 10.5161 22.4667 10.4118 21.4238 10.1995C21.3558 10.1845 20.9693 10.2165 20.1728 12.3328L20.158 12.3733C20.0734 12.6073 19.9704 12.8342 19.85 13.0517C19.5424 13.5921 19.1222 14.0593 18.6181 14.4213C18.6181 14.4213 17.7112 14.9909 17.244 14.9909ZM24.5927 6.48106C20.5573 6.48106 17.2801 9.6256 17.2801 13.4912C17.2777 13.7701 17.3208 14.0476 17.4075 14.3125C17.7011 14.1923 17.9851 14.0496 18.2571 13.8859C18.6803 13.5758 19.0329 13.1787 19.2914 12.7211C19.3955 12.5413 19.4857 12.3537 19.5612 12.16L19.576 12.1195C20.1112 10.6965 20.7208 9.408 21.5491 9.58293C22.5494 9.78665 23.5678 9.88673 24.5884 9.8816C25.6097 9.88673 26.6288 9.78665 27.6298 9.58293C28.4581 9.408 29.0698 10.6965 29.605 12.1131L29.6199 12.1557C29.6952 12.355 29.7868 12.5477 29.8939 12.7317C30.3675 13.5552 31.0535 14.1248 31.7523 14.2827L31.8288 14.2507C31.867 14.1995 31.9095 14.0373 31.9031 13.5829V13.4912C31.9073 9.6256 28.6259 6.48106 24.5927 6.48106Z" fill="#1D2939"/>
<path d="M18.2707 7.60112C19.5216 9.18406 21.019 10.8801 22.8243 11.3878C25.7362 12.2198 30.8951 11.1745 30.8951 6.97179C30.8951 4.27739 28.648 1.02406 24.4533 3.50086C19.2583 6.57286 16.2402 0.667789 16.2402 3.36219C16.2402 4.21552 16.5822 5.06886 17.0303 5.83472L18.2707 7.60112Z" fill="#475467"/>
<path d="M24.8675 11.9722C24.1503 11.9779 23.4356 11.8846 22.7437 11.6949C20.8831 11.1637 19.3752 9.50823 18.0244 7.79943L18.0116 7.7845L16.7713 6.0181L16.7564 5.99463C16.1978 5.02823 15.9238 4.1685 15.9238 3.3621C15.9238 3.00583 15.9663 2.5749 16.287 2.39143C16.6672 2.1781 17.1111 2.44263 17.7737 2.84583C19.099 3.6437 21.3164 4.97916 24.2877 3.22556C26.5433 1.89223 28.1107 2.2421 29.0261 2.7669C30.5341 3.63516 31.2095 5.50396 31.2095 6.9717C31.2215 7.67619 31.065 8.37329 30.7531 9.00439C30.4411 9.63548 29.9829 10.1821 29.4169 10.5984C28.1596 11.5648 26.435 11.9722 24.8675 11.9722ZM18.5256 7.40903C19.7999 9.0325 21.2314 10.609 22.9157 11.0805C24.6573 11.5776 27.3206 11.3984 29.0389 10.0949C29.5292 9.73951 29.9258 9.26925 30.1941 8.72498C30.4625 8.1807 30.5945 7.57885 30.5787 6.9717C30.5787 5.6917 30.0031 4.06183 28.716 3.3237C27.6116 2.6837 26.195 2.84583 24.6169 3.7781C21.3206 5.72583 18.8038 4.20476 17.453 3.3941C17.1887 3.21396 16.9034 3.06708 16.6035 2.95676C16.5644 3.08809 16.5486 3.22528 16.5567 3.3621C16.5589 4.0533 16.801 4.79996 17.3022 5.66183L18.5256 7.40903Z" fill="#1D2939"/>
<path d="M24.5078 21.5318C24.0166 21.5592 23.5288 21.4341 23.1108 21.1735C22.6929 20.9128 22.3649 20.5291 22.1716 20.0747C22.1352 19.998 22.1307 19.91 22.159 19.83C22.1873 19.75 22.246 19.6845 22.3224 19.648C22.3987 19.6115 22.4863 19.607 22.566 19.6354C22.6456 19.6638 22.7108 19.7228 22.7471 19.7995C23.0997 20.544 23.6562 20.8918 24.4972 20.8918C24.86 20.9086 25.2195 20.816 25.5295 20.6259C25.8395 20.4358 26.0858 20.1569 26.2367 19.8251C26.2708 19.754 26.3299 19.6981 26.4026 19.6681C26.4753 19.6382 26.5564 19.6362 26.6304 19.6627C26.7045 19.6891 26.7661 19.7421 26.8036 19.8115C26.8411 19.8808 26.8517 19.9617 26.8335 20.0384C26.6381 20.4918 26.3123 20.8761 25.898 21.1422C25.4836 21.4083 24.9995 21.5439 24.5078 21.5318Z" fill="#1D2939"/>
<path d="M24.2189 25.5616C22.0931 25.5593 20.0551 24.7101 18.552 23.2003C17.0489 21.6905 16.2034 19.6434 16.2012 17.5082C16.2012 17.4234 16.2347 17.342 16.2945 17.282C16.3542 17.2219 16.4353 17.1882 16.5198 17.1882C16.6042 17.1882 16.6853 17.2219 16.745 17.282C16.8048 17.342 16.8383 17.4234 16.8383 17.5082C16.8406 19.4737 17.6189 21.358 19.0025 22.7478C20.3862 24.1375 22.2621 24.9193 24.2189 24.9216C24.3034 24.9216 24.3844 24.9553 24.4441 25.0153C24.5039 25.0753 24.5375 25.1567 24.5375 25.2416C24.5375 25.3264 24.5039 25.4078 24.4441 25.4678C24.3844 25.5279 24.3034 25.5616 24.2189 25.5616Z" fill="#1D2939"/>
<path d="M25.3986 24.0684H23.8036C23.3684 24.0684 23.0156 24.4227 23.0156 24.8598V25.3142C23.0156 25.7513 23.3684 26.1057 23.8036 26.1057H25.3986C25.8338 26.1057 26.1866 25.7513 26.1866 25.3142V24.8598C26.1866 24.4227 25.8338 24.0684 25.3986 24.0684Z" fill="#EF6D7A"/>
<path d="M25.3989 26.4235H23.8038C23.5103 26.4235 23.2289 26.3064 23.0214 26.0979C22.8138 25.8895 22.6973 25.6068 22.6973 25.312V24.8598C22.6978 24.5652 22.8146 24.2828 23.022 24.0745C23.2294 23.8661 23.5105 23.7489 23.8038 23.7483H25.3989C25.6922 23.7489 25.9733 23.8661 26.1807 24.0745C26.3881 24.2828 26.5048 24.5652 26.5054 24.8598V25.312C26.5054 25.6068 26.3888 25.8895 26.1813 26.0979C25.9738 26.3064 25.6923 26.4235 25.3989 26.4235ZM23.8038 24.3883C23.6795 24.3889 23.5604 24.4387 23.4725 24.527C23.3846 24.6153 23.335 24.7349 23.3344 24.8598V25.312C23.335 25.4369 23.3846 25.5565 23.4725 25.6448C23.5604 25.7331 23.6795 25.7829 23.8038 25.7835H25.3989C25.5233 25.7835 25.6427 25.7338 25.7308 25.6454C25.8188 25.557 25.8682 25.4371 25.8682 25.312V24.8598C25.8682 24.7347 25.8188 24.6148 25.7308 24.5264C25.6427 24.438 25.5233 24.3883 25.3989 24.3883H23.8038Z" fill="#1D2939"/>
<path d="M14.3887 16.7444V17.09C14.3887 17.5183 14.5581 17.929 14.8596 18.2319C15.1611 18.5347 15.57 18.7049 15.9965 18.7049H16.8779C16.9962 18.7049 17.1096 18.6577 17.1933 18.5737C17.2769 18.4897 17.3239 18.3757 17.3239 18.2569V13.6233C17.3239 13.5045 17.2769 13.3905 17.1933 13.3065C17.1096 13.2225 16.9962 13.1753 16.8779 13.1753H15.9965C15.7851 13.1753 15.5759 13.2171 15.3807 13.2984C15.1855 13.3797 15.0082 13.4989 14.8588 13.6491C14.7095 13.7992 14.5911 13.9775 14.5104 14.1737C14.4298 14.3699 14.3884 14.5801 14.3887 14.7924V16.7444Z" fill="#EF6D7A"/>
<path d="M16.8781 19.0251H15.9967C15.486 19.0245 14.9963 18.8205 14.6352 18.4577C14.274 18.095 14.0709 17.6031 14.0703 17.0901V14.7925C14.0703 14.2792 14.2732 13.7868 14.6344 13.4236C14.9956 13.0604 15.4856 12.856 15.9967 12.8555H16.8781C17.0807 12.856 17.2749 12.9371 17.4181 13.081C17.5614 13.2249 17.6421 13.42 17.6427 13.6235V18.2571C17.6427 18.3579 17.6229 18.4578 17.5845 18.551C17.5461 18.6441 17.4898 18.7288 17.4188 18.8001C17.3478 18.8714 17.2635 18.928 17.1707 18.9666C17.0779 19.0052 16.9785 19.0251 16.8781 19.0251ZM15.9967 13.4955C15.6546 13.496 15.3267 13.6329 15.085 13.8761C14.8432 14.1193 14.7075 14.4489 14.7075 14.7925V17.0901C14.7075 17.4336 14.8433 17.7629 15.0851 18.0058C15.3269 18.2486 15.6548 18.3851 15.9967 18.3851H16.8781C16.9119 18.3851 16.9443 18.3716 16.9682 18.3476C16.9921 18.3236 17.0055 18.291 17.0055 18.2571V13.6235C17.0055 13.5895 16.9921 13.557 16.9682 13.533C16.9443 13.509 16.9119 13.4955 16.8781 13.4955H15.9967Z" fill="#1D2939"/>
<path d="M32.8083 18.7051H32.2412C32.1049 18.7051 31.9742 18.6507 31.8778 18.5539C31.7814 18.457 31.7272 18.3257 31.7272 18.1888V13.6896C31.7272 13.5527 31.7814 13.4214 31.8778 13.3246C31.9742 13.2277 32.1049 13.1733 32.2412 13.1733H32.8083C33.2982 13.1733 33.7681 13.3685 34.1149 13.7161C34.4617 14.0636 34.6571 14.5351 34.6582 15.0272V16.8405C34.659 17.0851 34.6118 17.3274 34.5192 17.5536C34.4266 17.7798 34.2905 17.9854 34.1186 18.1586C33.9468 18.3318 33.7425 18.4692 33.5177 18.563C33.2928 18.6568 33.0518 18.7051 32.8083 18.7051Z" fill="#EF6D7A"/>
<path d="M32.8059 19.0251H32.2388C32.0184 19.0251 31.8069 18.9373 31.6509 18.7809C31.4948 18.6245 31.4068 18.4124 31.4062 18.1909V13.6917C31.4068 13.4701 31.4947 13.2577 31.6507 13.101C31.8067 12.9443 32.0182 12.856 32.2388 12.8555H32.8059C33.3808 12.856 33.9321 13.0857 34.3386 13.4941C34.7452 13.9024 34.9738 14.4561 34.9744 15.0336V16.8533C34.9721 17.4297 34.7428 17.9818 34.3364 18.3888C33.93 18.7957 33.3797 19.0245 32.8059 19.0251ZM32.2388 13.4955C32.187 13.4955 32.1373 13.5161 32.1006 13.553C32.064 13.5898 32.0434 13.6397 32.0434 13.6917V18.1909C32.044 18.2426 32.0648 18.292 32.1014 18.3283C32.138 18.3647 32.1874 18.3851 32.2388 18.3851H32.8059C33.2113 18.3856 33.6004 18.2247 33.8878 17.9376C34.1753 17.6504 34.3377 17.2605 34.3393 16.8533V15.04C34.3399 14.8374 34.3007 14.6366 34.2238 14.4493C34.147 14.2619 34.0342 14.0916 33.8917 13.9481C33.7493 13.8046 33.58 13.6908 33.3937 13.6131C33.2074 13.5354 33.0076 13.4955 32.8059 13.4955H32.2388Z" fill="#1D2939"/>
<path d="M19.3301 47.7865C19.2426 47.7865 19.1586 47.7531 19.0967 47.6936C19.0348 47.634 19 47.5533 19 47.4691V45.2473C19.019 45.1801 19.0605 45.1207 19.1181 45.0784C19.1756 45.0361 19.2461 45.0132 19.3186 45.0132C19.3911 45.0132 19.4615 45.0361 19.5191 45.0784C19.5767 45.1207 19.6182 45.1801 19.6372 45.2473V47.4691C19.6374 47.5496 19.6058 47.6271 19.5488 47.6861C19.4918 47.745 19.4136 47.7809 19.3301 47.7865Z" fill="#1D2939"/>
<path d="M10.2597 47.3536H16.028V44.5418C16.028 44.1343 15.9475 43.7309 15.7911 43.3544C15.6347 42.978 15.4055 42.636 15.1166 42.3479C14.8276 42.0598 14.4846 41.8312 14.1071 41.6753C13.7296 41.5194 13.325 41.4391 12.9163 41.4391H10.8462V40.1067C10.3487 40.4894 9.74632 40.7123 9.1189 40.7457C8.50285 40.7092 7.9126 40.4863 7.42689 40.1067H7.39164V41.4455H5.3343C4.50904 41.4455 3.71758 41.7724 3.13404 42.3543C2.55049 42.9361 2.22266 43.7253 2.22266 44.5482V47.36H10.2597V47.3536Z" fill="#FCE8CB"/>
<path d="M15.9278 47.7735H10.1509C10.1031 47.7877 10.0526 47.7904 10.0036 47.7813C9.9546 47.7722 9.90833 47.7516 9.86847 47.7211C9.82861 47.6905 9.79626 47.651 9.77397 47.6055C9.75169 47.56 9.74009 47.5098 9.74009 47.4589C9.74009 47.4081 9.75169 47.3579 9.77397 47.3124C9.79626 47.2669 9.82861 47.2273 9.86847 47.1968C9.90833 47.1663 9.9546 47.1456 10.0036 47.1365C10.0526 47.1274 10.1031 47.1301 10.1509 47.1444H15.6068V44.5754C15.606 43.8152 15.3099 43.0865 14.7834 42.549C14.2569 42.0115 13.5432 41.7091 12.7986 41.7082H10.7543C10.6691 41.7082 10.5875 41.6737 10.5273 41.6123C10.4671 41.5508 10.4333 41.4675 10.4333 41.3806V40.5778C9.998 40.8255 9.50984 40.9605 9.01156 40.971C8.5108 40.9572 8.02164 40.814 7.58981 40.5548V41.3806C7.58981 41.4675 7.55599 41.5508 7.49581 41.6123C7.43562 41.6737 7.35399 41.7082 7.26887 41.7082H5.23412C4.48986 41.71 3.77657 42.0126 3.25029 42.5499C2.72402 43.0872 2.42761 43.8155 2.42591 44.5754V47.1444H7.53204C7.57987 47.1301 7.63029 47.1274 7.67931 47.1365C7.72833 47.1456 7.7746 47.1663 7.81446 47.1968C7.85432 47.2273 7.88667 47.2669 7.90896 47.3124C7.93124 47.3579 7.94284 47.4081 7.94284 47.4589C7.94284 47.5098 7.93124 47.56 7.90896 47.6055C7.88667 47.651 7.85432 47.6905 7.81446 47.7211C7.7746 47.7516 7.72833 47.7722 7.67931 47.7813C7.63029 47.7904 7.57987 47.7877 7.53204 47.7735H2.11781C2.0327 47.7735 1.95106 47.739 1.89088 47.6775C1.83069 47.6161 1.79688 47.5327 1.79688 47.4458V44.5623C1.79857 43.6355 2.1599 42.7473 2.80174 42.0919C3.44357 41.4366 4.3136 41.0677 5.22128 41.066H6.97361V40.0076C6.97361 39.9207 7.00742 39.8374 7.06761 39.7759C7.12779 39.7145 7.20943 39.6799 7.29454 39.6799H7.32985C7.39276 39.6804 7.45414 39.6998 7.50636 39.7356C7.94106 40.0867 8.47108 40.2926 9.0244 40.3255C9.58802 40.2958 10.1296 40.0924 10.5777 39.7422C10.6248 39.7104 10.6793 39.6918 10.7356 39.6884C10.792 39.6849 10.8482 39.6967 10.8987 39.7225C10.9473 39.7504 10.988 39.7908 11.0167 39.8396C11.0454 39.8885 11.0611 39.9441 11.0624 40.0011V41.0529H12.8115C13.7197 41.0538 14.5906 41.4223 15.2331 42.0777C15.8756 42.7331 16.2374 43.6219 16.2391 44.5492V47.4327C16.2408 47.476 16.2341 47.5192 16.2193 47.5599C16.2046 47.6005 16.1821 47.6378 16.1531 47.6695C16.1242 47.7011 16.0893 47.7267 16.0507 47.7445C16.012 47.7624 15.9702 47.7722 15.9278 47.7735Z" fill="#1D2939"/>
<path d="M10.2597 47.3601H16.028V44.5202C16.0284 44.1086 15.9482 43.7009 15.792 43.3206C15.6357 42.9402 15.4066 42.5946 15.1175 42.3036C14.8285 42.0125 14.4853 41.7817 14.1076 41.6244C13.7299 41.4671 13.3251 41.3863 12.9163 41.3867H12.41L10.2725 44.2427L9.16697 43.4036L8.0646 44.2427L5.92715 41.3867H5.3343C4.50904 41.3867 3.71758 41.7169 3.13404 42.3045C2.55049 42.8921 2.22266 43.6892 2.22266 44.5202V47.3601H10.2597Z" fill="#8AC6DD"/>
<path d="M15.928 47.7705H10.151C10.1032 47.7846 10.0528 47.7872 10.0038 47.7782C9.95475 47.7692 9.90847 47.7489 9.86861 47.7188C9.82875 47.6886 9.7964 47.6496 9.77412 47.6047C9.75184 47.5598 9.74024 47.5103 9.74024 47.46C9.74024 47.4098 9.75184 47.3603 9.77412 47.3154C9.7964 47.2705 9.82875 47.2315 9.86861 47.2013C9.90847 47.1712 9.95475 47.1509 10.0038 47.1419C10.0528 47.1329 10.1032 47.1355 10.151 47.1496H15.6071V44.6142C15.6071 43.8637 15.3112 43.144 14.7846 42.6133C14.2579 42.0827 13.5436 41.7846 12.7988 41.7846H12.4779L10.4238 44.5334C10.3727 44.5969 10.2996 44.6386 10.2192 44.65C10.1388 44.6614 10.0571 44.6417 9.99057 44.5948L9.06946 43.8963L8.15156 44.5948C8.08733 44.6357 8.01079 44.6522 7.93557 44.6416C7.86035 44.6309 7.79132 44.5937 7.74076 44.5366L5.68671 41.7878H5.23418C4.48965 41.7886 3.77585 42.087 3.24938 42.6175C2.72292 43.148 2.42677 43.8672 2.42592 44.6174V47.1528H7.53214C7.57997 47.1388 7.6304 47.1361 7.67942 47.1451C7.72844 47.1541 7.77471 47.1744 7.81457 47.2046C7.85443 47.2347 7.88679 47.2738 7.90907 47.3187C7.93135 47.3636 7.94295 47.4131 7.94295 47.4633C7.94295 47.5135 7.93135 47.563 7.90907 47.6079C7.88679 47.6528 7.85443 47.6919 7.81457 47.722C7.77471 47.7521 7.72844 47.7725 7.67942 47.7815C7.6304 47.7904 7.57997 47.7878 7.53214 47.7737H2.11782C2.0327 47.7737 1.95107 47.7397 1.89088 47.679C1.83069 47.6184 1.79688 47.5361 1.79688 47.4503V44.6045C1.80366 43.691 2.169 42.8174 2.81307 42.1744C3.45714 41.5315 4.32758 41.1716 5.23418 41.1733H5.85361C5.91791 41.1753 5.98014 41.1967 6.03222 41.2348C6.0843 41.2729 6.12382 41.3258 6.14566 41.3868L8.04244 43.9222L8.89936 43.2754C8.95372 43.2364 9.01879 43.2154 9.08551 43.2154C9.15224 43.2154 9.2173 43.2364 9.27166 43.2754L10.1318 43.9222L12.0575 41.3641C12.0796 41.3084 12.1177 41.2606 12.1668 41.2266C12.2159 41.1927 12.2739 41.1741 12.3335 41.1733H12.8117C13.7205 41.1742 14.5918 41.5384 15.2345 42.1859C15.8771 42.8334 16.2385 43.7114 16.2394 44.6272V47.473C16.233 47.5525 16.1978 47.6269 16.1403 47.6819C16.0828 47.7368 16.0072 47.7684 15.928 47.7705Z" fill="#1D2939"/>
<path fill-rule="evenodd" clip-rule="evenodd" d="M4.98226 33.7034C4.98292 33.9569 4.90866 34.2048 4.76888 34.4158C4.62911 34.6268 4.43012 34.7914 4.19713 34.8887C3.96414 34.986 3.70764 35.0116 3.46013 34.9623C3.21263 34.913 2.98526 34.7911 2.80684 34.6119C2.62842 34.4326 2.50698 34.2043 2.45792 33.9557C2.40885 33.707 2.43437 33.4494 2.53123 33.2154C2.6281 32.9814 2.79195 32.7815 3.00202 32.6411C3.21209 32.5007 3.45893 32.4261 3.71125 32.4268C4.04835 32.4268 4.37163 32.5613 4.60999 32.8007C4.84835 33.0401 4.98226 33.3648 4.98226 33.7034Z" fill="#FCE8CB"/>
<path d="M3.70627 35.2C3.41236 35.1994 3.12522 35.1113 2.88114 34.9469C2.63706 34.7824 2.44699 34.549 2.33494 34.276C2.22289 34.0031 2.19389 33.7029 2.2516 33.4135C2.30932 33.124 2.45116 32.8582 2.65921 32.6497C2.86725 32.4411 3.13217 32.2992 3.42048 32.2418C3.70879 32.1845 4.00756 32.2142 4.27904 32.3274C4.55053 32.4405 4.78254 32.6319 4.94576 32.8774C5.10899 33.1229 5.19611 33.4115 5.19611 33.7067C5.19528 34.1031 5.03796 34.4829 4.75865 34.7629C4.47934 35.0428 4.10086 35.2 3.70627 35.2ZM3.70627 32.8132C3.53034 32.8132 3.35835 32.8656 3.21207 32.9638C3.06578 33.062 2.95176 33.2015 2.88444 33.3648C2.81711 33.5281 2.79949 33.7077 2.83382 33.881C2.86814 34.0543 2.95286 34.2136 3.07727 34.3385C3.20167 34.4635 3.36017 34.5486 3.53273 34.583C3.70529 34.6175 3.88414 34.5998 4.04669 34.5322C4.20923 34.4646 4.34816 34.35 4.4459 34.2031C4.54365 34.0562 4.59582 33.8834 4.59582 33.7067C4.59582 33.5894 4.57281 33.4732 4.52811 33.3648C4.4834 33.2564 4.41788 33.1579 4.33528 33.0749C4.25267 32.9919 4.15461 32.9261 4.04669 32.8812C3.93876 32.8363 3.82309 32.8132 3.70627 32.8132Z" fill="#1D2939"/>
<path fill-rule="evenodd" clip-rule="evenodd" d="M15.6039 33.7068C15.6039 33.9599 15.5354 34.2074 15.407 34.4179C15.2786 34.6284 15.0962 34.7924 14.8827 34.8893C14.6693 34.9862 14.4344 35.0116 14.2078 34.9622C13.9812 34.9128 13.7731 34.7909 13.6097 34.6119C13.4464 34.4328 13.3351 34.2048 13.29 33.9565C13.245 33.7082 13.2681 33.4508 13.3565 33.2169C13.4449 32.983 13.5946 32.7831 13.7867 32.6425C13.9788 32.5018 14.2047 32.4268 14.4357 32.4268C14.7455 32.4268 15.0427 32.5616 15.2617 32.8017C15.4808 33.0417 15.6039 33.3673 15.6039 33.7068Z" fill="#FCE8CB"/>
<path d="M14.4347 35.2C14.1197 35.2 13.8117 35.1125 13.5497 34.9484C13.2878 34.7843 13.0836 34.5511 12.963 34.2782C12.8425 34.0053 12.8109 33.7051 12.8724 33.4154C12.9339 33.1257 13.0856 32.8596 13.3084 32.6508C13.5311 32.4419 13.815 32.2997 14.124 32.2421C14.4329 32.1845 14.7532 32.214 15.0443 32.3271C15.3354 32.4401 15.5842 32.6315 15.7592 32.8771C15.9342 33.1226 16.0276 33.4114 16.0276 33.7067C16.0276 34.1028 15.8598 34.4826 15.5611 34.7627C15.2624 35.0427 14.8572 35.2 14.4347 35.2ZM14.4347 32.8132C14.2462 32.8132 14.0619 32.8656 13.9052 32.9638C13.7485 33.062 13.6263 33.2015 13.5542 33.3648C13.482 33.5281 13.4632 33.7077 13.4999 33.881C13.5367 34.0543 13.6275 34.2136 13.7608 34.3385C13.8941 34.4635 14.0639 34.5486 14.2488 34.583C14.4337 34.6175 14.6253 34.5998 14.7994 34.5322C14.9736 34.4646 15.1225 34.35 15.2272 34.2031C15.3319 34.0562 15.3878 33.8834 15.3878 33.7067C15.3869 33.47 15.2862 33.2432 15.1077 33.0758C14.9291 32.9084 14.6872 32.814 14.4347 32.8132Z" fill="#1D2939"/>
<path d="M14.5387 33.1093C14.5387 36.1211 11.6049 40.7467 9.01985 40.7467C6.55217 40.7467 3.49772 36.1211 3.49772 33.1093C3.47983 32.3817 3.60939 31.658 3.87878 30.9807C4.14817 30.3034 4.55194 29.6862 5.06634 29.1654C5.58073 28.6446 6.19536 28.2307 6.87404 27.9482C7.55272 27.6656 8.28175 27.52 9.01822 27.52C9.75468 27.52 10.4837 27.6656 11.1624 27.9482C11.8411 28.2307 12.4557 28.6446 12.9701 29.1654C13.4845 29.6862 13.8883 30.3034 14.1577 30.9807C14.427 31.658 14.5566 32.3817 14.5387 33.1093Z" fill="#FCE8CB"/>
<path d="M9.01967 40.96C6.36065 40.96 3.28516 36.1715 3.28516 33.0476C3.28516 31.525 3.88933 30.0648 4.96476 28.9881C6.04019 27.9115 7.49878 27.3066 9.01967 27.3066C10.5406 27.3066 11.9992 27.9115 13.0746 28.9881C14.15 30.0648 14.7542 31.525 14.7542 33.0476C14.7542 36.2421 11.7332 40.96 9.01967 40.96ZM9.01967 27.9224C7.66022 27.9224 6.35644 28.4631 5.39517 29.4255C4.43389 30.3878 3.89385 31.6931 3.89385 33.0541C3.89385 35.8251 6.7547 40.3506 9.01967 40.3506C11.3423 40.3506 14.1455 35.8604 14.1455 33.0541C14.1455 31.6931 13.6054 30.3878 12.6442 29.4255C11.6829 28.4631 10.3791 27.9224 9.01967 27.9224Z" fill="#1D2939"/>
<path d="M7.74553 32.9634C7.74489 33.0684 7.71337 33.171 7.65492 33.2581C7.59647 33.3452 7.5137 33.4131 7.41699 33.4531C7.32029 33.4932 7.21396 33.5037 7.11135 33.4833C7.00875 33.4628 6.91443 33.4124 6.84024 33.3383C6.76605 33.2643 6.7153 33.1698 6.69435 33.0669C6.6734 32.964 6.68319 32.8571 6.72249 32.7597C6.76178 32.6624 6.82884 32.5788 6.91524 32.5196C7.00163 32.4603 7.10353 32.4281 7.20812 32.4268C7.27866 32.4259 7.34866 32.4392 7.41404 32.4658C7.47942 32.4924 7.53886 32.5319 7.58889 32.5818C7.63893 32.6318 7.67855 32.6913 7.70544 32.7568C7.73233 32.8223 7.74596 32.8925 7.74553 32.9634Z" fill="#1D2939"/>
<path d="M11.5678 32.9602C11.5678 33.0661 11.5364 33.1696 11.4776 33.2575C11.4188 33.3454 11.3353 33.4137 11.2377 33.4538C11.1402 33.4938 11.0329 33.5038 10.9297 33.4824C10.8264 33.4611 10.7318 33.4093 10.658 33.3338C10.5841 33.2582 10.5343 33.1623 10.5149 33.0582C10.4955 32.9541 10.5074 32.8466 10.5491 32.7493C10.5907 32.652 10.6603 32.5694 10.7489 32.512C10.8374 32.4546 10.941 32.4249 11.0464 32.4268C11.1858 32.4285 11.3189 32.4856 11.4166 32.5855C11.5143 32.6854 11.5687 32.8201 11.5678 32.9602Z" fill="#1D2939"/>
<path d="M6.89443 34.5599C6.89443 34.9145 6.51519 35.1999 6.04338 35.1999C5.57157 35.1999 5.19531 34.9145 5.19531 34.5599C5.19531 34.2054 5.57455 33.9199 6.04338 33.9199C6.5122 33.9199 6.89443 34.2054 6.89443 34.5599Z" fill="#F5978A"/>
<path d="M13.0541 34.5599C13.0541 34.9145 12.6248 35.1999 12.0983 35.1999C11.5718 35.1999 11.1426 34.9145 11.1426 34.5599C11.1426 34.2054 11.5718 33.9199 12.0983 33.9199C12.6248 33.9199 13.0541 34.2054 13.0541 34.5599Z" fill="#F5978A"/>
<path d="M9.12347 26.4534C6.01605 26.4534 3.49609 28.8405 3.49609 31.7808C3.497 32.0661 3.55256 32.3487 3.65981 32.6136C3.71117 32.7503 4.51692 32.3148 4.58433 32.2671C4.92599 32.0235 5.20976 31.7089 5.41576 31.3453C5.50017 31.2007 5.57315 31.0498 5.63405 30.8939C5.82023 30.4076 6.32423 29.063 6.83464 29.1679C8.34581 29.4646 9.90112 29.4646 11.4123 29.1679C11.9259 29.063 12.4299 30.4076 12.6161 30.8939C12.6759 31.0497 12.7478 31.2006 12.8312 31.3453C12.9936 31.6641 13.2251 31.9434 13.5093 32.1632C13.7934 32.383 14.1231 32.5379 14.4748 32.6168C14.4748 32.585 14.5197 32.5723 14.5518 32.5596C14.7861 32.4769 14.7508 31.9779 14.7508 31.7935C14.7508 28.831 12.2309 26.4534 9.12347 26.4534Z" fill="#475467"/>
<path d="M3.59592 33.0627C3.55901 33.0679 3.52155 33.0679 3.48464 33.0627C3.43224 33.047 3.38423 33.0192 3.34445 32.9815C3.30466 32.9438 3.27422 32.8972 3.25554 32.8456C3.13451 32.5308 3.07237 32.1962 3.07227 31.8587C3.07227 28.6581 5.78871 26.0266 9.12373 26.0266C12.4587 26.0266 15.1785 28.6581 15.1785 31.8555V31.9147C15.1785 32.214 15.1785 32.76 14.8021 32.9311L14.7792 32.9541C14.7449 32.9815 14.7056 33.0018 14.6634 33.0137C14.6212 33.0255 14.5771 33.0288 14.5337 33.0232C14.1291 32.936 13.7488 32.7598 13.42 32.5073C13.0912 32.2548 12.8222 31.9322 12.6322 31.5627C12.5383 31.3982 12.4573 31.2267 12.39 31.0495V31.0199C11.8631 29.6186 11.598 29.4739 11.5293 29.4608C9.94867 29.7765 8.32169 29.7765 6.74111 29.4608C6.67892 29.4608 6.41382 29.6186 5.8869 31.0166V31.0495C5.82023 31.2269 5.73923 31.3986 5.64471 31.5627C5.41007 31.9789 5.08851 32.3392 4.70213 32.6186C4.36733 32.8408 3.9909 32.9919 3.59592 33.0627ZM14.6254 32.6646L14.7366 32.9574H14.7595L14.6254 32.6646ZM9.12373 26.6648C6.13563 26.6648 3.70392 28.9937 3.70392 31.8587C3.70178 32.0333 3.72493 32.2073 3.77265 32.3752C3.96071 32.2953 4.1433 32.203 4.31921 32.0989C4.62687 31.8725 4.8834 31.5833 5.07196 31.2502C5.14902 31.1151 5.21576 30.9744 5.27161 30.8292V30.7963C5.68398 29.6976 6.16182 28.7009 6.84256 28.8456C8.34115 29.1439 9.88339 29.1439 11.382 28.8456C12.0627 28.7009 12.5406 29.6976 12.9529 30.7963V30.8292C13.0081 30.9747 13.0748 31.1155 13.1526 31.2502C13.4237 31.7845 13.8944 32.1891 14.4617 32.3752C14.4984 32.2313 14.5105 32.0823 14.4977 31.9344V31.8653C14.5468 28.9871 12.1151 26.6648 9.12373 26.6648Z" fill="#1D2939"/>
<path d="M6.96951 40.6265L5.85547 41.4697L8.00363 44.3331L9.11767 43.4899L6.96951 40.6265Z" fill="#475467"/>
<path d="M8.03574 44.5865H7.99441C7.91441 44.5699 7.84383 44.5231 7.79732 44.4557L5.67705 41.63C5.63191 41.5641 5.61306 41.4836 5.62424 41.4045C5.63543 41.3254 5.67583 41.2533 5.73745 41.2026L6.84368 40.3798C6.90897 40.3327 6.98961 40.3122 7.06938 40.3224C7.14972 40.3342 7.22252 40.3764 7.27282 40.4404L9.38673 43.2629C9.43282 43.329 9.45221 43.4102 9.441 43.4901C9.42979 43.57 9.38882 43.6427 9.32634 43.6935L8.22646 44.5259C8.17105 44.5661 8.10416 44.5874 8.03574 44.5865ZM6.34461 41.5152L8.09613 43.8497L8.70647 43.3873L6.95494 41.0559L6.34461 41.5152Z" fill="#1D2939"/>
<path d="M9.10862 43.4854L10.2227 44.3286L12.3708 41.4652L11.2568 40.622L9.10862 43.4854Z" fill="#475467"/>
<path d="M10.2102 44.5867C10.1437 44.5876 10.0789 44.5663 10.0259 44.5261L8.92673 43.6937C8.89441 43.6694 8.86734 43.6388 8.84713 43.6037C8.82693 43.5687 8.81402 43.5298 8.80919 43.4896C8.79904 43.4096 8.81947 43.3287 8.86637 43.2631L10.9853 40.4406C11.0356 40.3767 11.1083 40.3344 11.1886 40.3226C11.2683 40.3124 11.3489 40.3329 11.4142 40.38L12.5134 41.2124C12.5749 41.2631 12.6153 41.3352 12.6265 41.4143C12.6377 41.4935 12.6188 41.5739 12.5737 41.6398L10.4548 44.4559C10.4265 44.4949 10.3898 44.5269 10.3474 44.5495C10.3051 44.5722 10.2581 44.5849 10.2102 44.5867ZM9.53986 43.3875L10.1498 43.85L11.9129 41.5154L11.2776 41.0562L9.53986 43.3875Z" fill="#1D2939"/>
<path d="M4.67703 47.7867C4.59254 47.7867 4.5115 47.7528 4.45176 47.6925C4.39201 47.6321 4.35845 47.5502 4.35845 47.4649V45.212C4.3446 45.164 4.34199 45.1135 4.35084 45.0643C4.35969 45.0152 4.37975 44.9688 4.40942 44.9288C4.4391 44.8888 4.47758 44.8564 4.52181 44.834C4.56605 44.8117 4.61483 44.8 4.66429 44.8C4.71375 44.8 4.76252 44.8117 4.80676 44.834C4.851 44.8564 4.88948 44.8888 4.91915 44.9288C4.94883 44.9688 4.96889 45.0152 4.97773 45.0643C4.98658 45.1135 4.98398 45.164 4.97013 45.212V47.4649C4.97038 47.546 4.94034 47.6241 4.886 47.6838C4.83166 47.7435 4.75703 47.7802 4.67703 47.7867Z" fill="#1D2939"/>
<path d="M9.05438 37.7578C8.66199 37.7752 8.27287 37.6878 7.93945 37.5075C7.60604 37.3271 7.34434 37.0625 7.18961 36.7491C7.1557 36.7152 7.13127 36.675 7.11824 36.6315C7.10521 36.588 7.10393 36.5426 7.1145 36.4986C7.12506 36.4546 7.14719 36.4134 7.17915 36.3781C7.21111 36.3428 7.25204 36.3143 7.29876 36.295C7.34547 36.2757 7.3967 36.266 7.44845 36.2666C7.5002 36.2673 7.55107 36.2783 7.59709 36.2989C7.64312 36.3194 7.68305 36.3489 7.71378 36.385C7.74451 36.4212 7.7652 36.463 7.77424 36.5072C7.87731 36.724 8.05644 36.9071 8.28622 37.0306C8.516 37.1541 8.78476 37.2116 9.05438 37.1951C9.31825 37.2044 9.57944 37.1461 9.80532 37.0274C10.0312 36.9086 10.2117 36.7348 10.3244 36.5276C10.368 36.4766 10.4295 36.4393 10.4996 36.4214C10.5698 36.4035 10.6448 36.406 10.7132 36.4284C10.7816 36.4508 10.8397 36.492 10.8787 36.5457C10.9177 36.5993 10.9354 36.6626 10.9292 36.7258C10.7704 37.04 10.5071 37.306 10.1732 37.4899C9.83925 37.6737 9.44972 37.7669 9.05438 37.7578Z" fill="#1D2939"/>
<path d="M48.0983 44.5482V47.36H34.293V44.5482C34.293 43.7253 34.6214 42.9361 35.206 42.3543C35.7907 41.7724 36.5836 41.4455 37.4104 41.4455H39.4684V40.1067H39.5037C39.9903 40.4863 40.5816 40.7092 41.1988 40.7457C41.8275 40.7127 42.4311 40.4897 42.9293 40.1067V41.4391H44.9905C45.8167 41.4417 46.6081 41.7705 47.1909 42.3535C47.7736 42.9365 48.1 43.7258 48.0983 44.5482Z" fill="#FCE8CB"/>
<path d="M48.2014 47.7866H34.401C34.3159 47.7866 34.2343 47.752 34.1741 47.6905C34.1139 47.6289 34.0801 47.5454 34.0801 47.4584V44.5702C34.0818 43.6414 34.4435 42.7512 35.0861 42.0947C35.7286 41.4382 36.5995 41.0691 37.5077 41.0682H39.2568V40.0081C39.2568 39.9211 39.2906 39.8376 39.3508 39.7761C39.411 39.7145 39.4926 39.6799 39.5777 39.6799H39.613C39.6771 39.6798 39.7397 39.6992 39.7928 39.7357C40.2263 40.0873 40.7553 40.2936 41.3076 40.3265C41.8723 40.2974 42.4151 40.0937 42.8642 39.7423C42.9113 39.7136 42.9648 39.6976 43.0196 39.6961C43.0745 39.6945 43.1288 39.7073 43.1774 39.7333C43.226 39.7593 43.2673 39.7976 43.2973 39.8446C43.3273 39.8916 43.345 39.9456 43.3488 40.0016V41.0551H45.0979C46.0056 41.0568 46.8756 41.4264 47.5174 42.0827C48.1593 42.7391 48.5206 43.6288 48.5223 44.5571V47.4453C48.524 47.4895 48.517 47.5336 48.5017 47.5749C48.4863 47.6162 48.4629 47.654 48.433 47.6859C48.403 47.7178 48.367 47.7431 48.3272 47.7604C48.2874 47.7777 48.2446 47.7866 48.2014 47.7866ZM34.6995 47.1564H47.8933V44.5833C47.8916 43.8222 47.5952 43.0928 47.0689 42.5546C46.5426 42.0164 45.8293 41.7133 45.085 41.7115H43.0246C42.9395 41.7115 42.8579 41.6769 42.7977 41.6154C42.7375 41.5538 42.7037 41.4704 42.7037 41.3833V40.5792C42.2685 40.8277 41.7803 40.963 41.2819 40.9731C40.7822 40.9589 40.2942 40.8155 39.8634 40.5562V41.3833C39.8634 41.4704 39.8296 41.5538 39.7694 41.6154C39.7092 41.6769 39.6276 41.7115 39.5424 41.7115H37.5077C36.7632 41.7124 36.0494 42.0152 35.5229 42.5536C34.9965 43.092 34.7003 43.8219 34.6995 44.5833V47.1564Z" fill="#1D2939"/>
<path d="M48.0983 44.5202V47.3601H34.293V44.5202C34.2925 44.1086 34.3729 43.7009 34.5294 43.3206C34.6859 42.9402 34.9155 42.5946 35.2051 42.3036C35.4947 42.0125 35.8385 41.7817 36.2169 41.6244C36.5953 41.4671 37.0009 41.3863 37.4104 41.3867H38.0268L40.1715 44.2427L41.2759 43.4036L42.3803 44.2427L44.5217 41.3867H45.0162C45.8368 41.3961 46.6207 41.7303 47.1977 42.317C47.7747 42.9036 48.0983 43.6953 48.0983 44.5202Z" fill="#FFBA93"/>
<path d="M48.2016 47.7867H34.401C34.3159 47.7867 34.2343 47.7525 34.1741 47.6917C34.1139 47.6309 34.0801 47.5485 34.0801 47.4625V44.6097C34.0877 43.6962 34.4521 42.8227 35.094 42.1792C35.7359 41.5356 36.6034 41.1742 37.5078 41.1733H38.124C38.1883 41.1753 38.2505 41.1968 38.3026 41.2349C38.3547 41.2731 38.3942 41.3262 38.416 41.3873L40.3128 43.9289L41.1729 43.2805C41.2273 43.2414 41.2924 43.2204 41.3591 43.2204C41.4258 43.2204 41.4909 43.2414 41.5452 43.2805L42.4022 43.9289L44.3278 41.3646C44.35 41.3088 44.388 41.2608 44.4372 41.2268C44.4863 41.1927 44.5443 41.1741 44.6038 41.1733H45.0981C46.0063 41.1751 46.8769 41.5405 47.5188 42.1895C48.1607 42.8385 48.5217 43.7182 48.5226 44.6356V47.4884C48.5161 47.5698 48.4794 47.6458 48.4199 47.7011C48.3604 47.7564 48.2825 47.7869 48.2016 47.7867ZM34.6995 47.1642H47.8935V44.6226C47.8927 43.8706 47.5965 43.1496 47.07 42.6178C46.5436 42.086 45.8298 41.7869 45.0852 41.786H44.7643L42.707 44.5416C42.6559 44.6053 42.5828 44.6471 42.5024 44.6585C42.422 44.67 42.3403 44.6502 42.2738 44.6032L41.3559 43.903L40.4348 44.6032C40.3694 44.6477 40.2901 44.6664 40.2119 44.6557C40.1338 44.6449 40.0623 44.6054 40.0111 44.5448L37.9539 41.7893H37.5078C36.763 41.7893 36.0487 42.0881 35.522 42.6201C34.9954 43.1521 34.6995 43.8736 34.6995 44.6259V47.1642Z" fill="#1D2939"/>
<path fill-rule="evenodd" clip-rule="evenodd" d="M37.055 33.7068C37.055 33.9599 36.9865 34.2074 36.8582 34.4179C36.7298 34.6284 36.5474 34.7924 36.3339 34.8893C36.1205 34.9862 35.8856 35.0116 35.659 34.9622C35.4324 34.9128 35.2243 34.7909 35.0609 34.6119C34.8975 34.4328 34.7863 34.2048 34.7412 33.9565C34.6961 33.7082 34.7193 33.4508 34.8077 33.2169C34.8961 32.983 35.0458 32.7831 35.2379 32.6425C35.43 32.5018 35.6559 32.4268 35.8869 32.4268C36.1967 32.4268 36.4938 32.5616 36.7129 32.8017C36.932 33.0417 37.055 33.3673 37.055 33.7068Z" fill="#FCE8CB"/>
<path d="M35.8859 35.2C35.5708 35.2 35.2629 35.1125 35.0009 34.9484C34.739 34.7843 34.5348 34.5511 34.4142 34.2782C34.2937 34.0053 34.2621 33.7051 34.3236 33.4154C34.385 33.1257 34.5368 32.8596 34.7595 32.6508C34.9823 32.4419 35.2661 32.2997 35.5751 32.2421C35.8841 32.1845 36.2044 32.214 36.4955 32.3271C36.7865 32.4401 37.0353 32.6315 37.2104 32.8771C37.3854 33.1226 37.4788 33.4114 37.4788 33.7067C37.4788 34.1028 37.311 34.4826 37.0123 34.7627C36.7135 35.0427 36.3084 35.2 35.8859 35.2ZM35.8859 32.8132C35.6974 32.8132 35.5131 32.8656 35.3564 32.9638C35.1997 33.062 35.0775 33.2015 35.0054 33.3648C34.9332 33.5281 34.9143 33.7077 34.9511 33.881C34.9879 34.0543 35.0787 34.2136 35.212 34.3385C35.3452 34.4635 35.5151 34.5486 35.7 34.583C35.8848 34.6175 36.0765 34.5998 36.2506 34.5322C36.4248 34.4646 36.5736 34.35 36.6784 34.2031C36.7831 34.0562 36.839 33.8834 36.839 33.7067C36.8381 33.47 36.7374 33.2432 36.5589 33.0758C36.3803 32.9084 36.1384 32.814 35.8859 32.8132Z" fill="#1D2939"/>
<path fill-rule="evenodd" clip-rule="evenodd" d="M47.8866 33.7068C47.8866 33.9599 47.8118 34.2074 47.6718 34.4179C47.5318 34.6284 47.3327 34.7924 47.0999 34.8893C46.867 34.9862 46.6108 35.0116 46.3636 34.9622C46.1164 34.9128 45.8894 34.7909 45.7111 34.6119C45.5329 34.4328 45.4115 34.2048 45.3624 33.9565C45.3132 33.7082 45.3384 33.4508 45.4349 33.2169C45.5313 32.983 45.6947 32.7831 45.9042 32.6425C46.1138 32.5018 46.3602 32.4268 46.6122 32.4268C46.9502 32.4268 47.2743 32.5616 47.5133 32.8017C47.7523 33.0417 47.8866 33.3673 47.8866 33.7068Z" fill="#FCE8CB"/>
<path d="M46.6117 35.2C46.3177 35.2 46.0302 35.1125 45.7857 34.9484C45.5413 34.7843 45.3507 34.5511 45.2382 34.2782C45.1256 34.0053 45.0962 33.7051 45.1536 33.4154C45.2109 33.1257 45.3525 32.8596 45.5605 32.6508C45.7684 32.4419 46.0333 32.2997 46.3217 32.2421C46.6101 32.1845 46.909 32.214 47.1807 32.3271C47.4523 32.4401 47.6845 32.6315 47.8479 32.8771C48.0113 33.1226 48.0985 33.4114 48.0985 33.7067C48.0976 34.1025 47.9407 34.4819 47.6621 34.7617C47.3835 35.0416 47.0058 35.1992 46.6117 35.2ZM46.6117 32.8132C46.4357 32.8126 46.2634 32.8645 46.1167 32.9623C45.97 33.0601 45.8555 33.1994 45.7877 33.3626C45.7199 33.5258 45.7018 33.7056 45.7358 33.8791C45.7698 34.0526 45.8542 34.2121 45.9785 34.3374C46.1028 34.4627 46.2613 34.5481 46.4339 34.5828C46.6066 34.6175 46.7856 34.6 46.9483 34.5325C47.111 34.465 47.2501 34.3504 47.348 34.2034C47.4459 34.0564 47.4982 33.8836 47.4982 33.7067C47.4973 33.4705 47.4038 33.2442 47.2378 33.0769C47.0718 32.9096 46.8469 32.8149 46.6117 32.8132Z" fill="#1D2939"/>
<path d="M46.8219 33.1093C46.8219 36.1211 43.8881 40.7467 41.2998 40.7467C38.8354 40.7467 35.7809 36.1211 35.7809 33.1093C35.763 32.3817 35.8926 31.658 36.162 30.9807C36.4314 30.3034 36.8351 29.6862 37.3495 29.1654C37.8639 28.6446 38.4786 28.2307 39.1572 27.9482C39.8359 27.6656 40.565 27.52 41.3014 27.52C42.0379 27.52 42.7669 27.6656 43.4456 27.9482C44.1243 28.2307 44.7389 28.6446 45.2533 29.1654C45.7677 29.6862 46.1715 30.3034 46.4409 30.9807C46.7102 31.658 46.8398 32.3817 46.8219 33.1093Z" fill="#FCE8CB"/>
<path d="M41.3009 40.96C38.6419 40.96 35.5664 36.1715 35.5664 33.0476C35.5664 32.2937 35.7147 31.5472 36.0029 30.8507C36.2911 30.1541 36.7135 29.5212 37.246 28.9881C37.7785 28.455 38.4107 28.0322 39.1064 27.7436C39.8022 27.4551 40.5479 27.3066 41.3009 27.3066C42.054 27.3066 42.7997 27.4551 43.4954 27.7436C44.1912 28.0322 44.8233 28.455 45.3558 28.9881C45.8883 29.5212 46.3107 30.1541 46.5989 30.8507C46.8871 31.5472 47.0354 32.2937 47.0354 33.0476C47.0354 36.2421 44.0144 40.96 41.3009 40.96ZM41.3009 27.9224C39.9415 27.9224 38.6377 28.4631 37.6764 29.4255C36.7151 30.3878 36.1751 31.6931 36.1751 33.0541C36.1751 35.8251 39.0327 40.3506 41.3009 40.3506C43.6236 40.3506 46.4267 35.8604 46.4267 33.0541C46.4267 31.6931 45.8867 30.3878 44.9254 29.4255C43.9641 28.4631 42.6604 27.9224 41.3009 27.9224Z" fill="#1D2939"/>
<path d="M39.8158 32.9602C39.8158 33.0654 39.7849 33.1682 39.7268 33.2558C39.6687 33.3433 39.5862 33.4117 39.4895 33.4522C39.3929 33.4928 39.2864 33.5037 39.1836 33.4836C39.0808 33.4636 38.9862 33.4134 38.9117 33.3395C38.8372 33.2655 38.7861 33.1711 38.7649 33.0681C38.7437 32.9651 38.7533 32.858 38.7925 32.7605C38.8317 32.6629 38.8988 32.5792 38.9853 32.5198C39.0717 32.4605 39.1737 32.4281 39.2785 32.4268C39.3489 32.4256 39.4188 32.4384 39.4841 32.4647C39.5495 32.491 39.609 32.5301 39.659 32.5798C39.7091 32.6295 39.7488 32.6887 39.7757 32.7541C39.8026 32.8194 39.8163 32.8895 39.8158 32.9602Z" fill="#1D2939"/>
<path d="M43.6381 32.9601C43.6381 33.0659 43.6068 33.1693 43.5482 33.2571C43.4895 33.3449 43.4062 33.4133 43.3088 33.4534C43.2114 33.4936 43.1043 33.5038 43.0012 33.4827C42.898 33.4616 42.8034 33.4102 42.7294 33.3349C42.6554 33.2597 42.6054 33.1641 42.5856 33.0602C42.5658 32.9563 42.5773 32.8489 42.6184 32.7515C42.6596 32.6542 42.7287 32.5714 42.8168 32.5135C42.905 32.4557 43.0083 32.4255 43.1135 32.4268C43.1828 32.4272 43.2514 32.4413 43.3153 32.4684C43.3791 32.4954 43.4371 32.5348 43.4858 32.5843C43.5345 32.6339 43.573 32.6925 43.5992 32.757C43.6253 32.8215 43.6385 32.8905 43.6381 32.9601Z" fill="#1D2939"/>
<path d="M39.1791 34.5599C39.1791 34.9145 38.7498 35.1999 38.2233 35.1999C37.6968 35.1999 37.2676 34.9145 37.2676 34.5599C37.2676 34.2054 37.6968 33.9199 38.2233 33.9199C38.7498 33.9199 39.1791 34.2054 39.1791 34.5599Z" fill="#F5978A"/>
<path d="M45.1249 34.5599C45.1249 34.9145 44.7457 35.1999 44.2768 35.1999C43.808 35.1999 43.4258 34.9145 43.4258 34.5599C43.4258 34.2054 43.805 33.9199 44.2768 33.9199C44.7486 33.9199 45.1249 34.2054 45.1249 34.5599Z" fill="#F5978A"/>
<path d="M41.4069 26.4534C38.2993 26.4534 35.7793 28.8405 35.7793 31.7808C35.7802 32.0661 35.8358 32.3487 35.943 32.6136C35.9912 32.7503 36.7969 32.3148 36.8644 32.2671C37.2072 32.0239 37.4921 31.7092 37.699 31.3453C37.7822 31.2 37.8551 31.0492 37.9173 30.8939C38.1003 30.4076 38.6043 29.063 39.118 29.1679C40.6292 29.4646 42.1846 29.4646 43.6958 29.1679C44.2062 29.063 44.7102 30.4076 44.8964 30.8939C44.9573 31.0498 45.0303 31.2007 45.1147 31.3453C45.277 31.6636 45.5081 31.9426 45.7916 32.1623C46.0752 32.3821 46.4041 32.5373 46.7552 32.6168C46.7552 32.585 46.8001 32.5723 46.8322 32.5596C47.0666 32.4769 47.0344 31.9779 47.0344 31.7935C47.0344 28.831 44.5144 26.4534 41.4069 26.4534Z" fill="#475467"/>
<path d="M35.8701 33.0625C35.8339 33.068 35.797 33.068 35.7608 33.0625C35.709 33.0473 35.6616 33.0196 35.6224 32.9819C35.5833 32.9441 35.5535 32.8973 35.5356 32.8454C35.4148 32.5312 35.3536 32.1962 35.3555 31.8586C35.3555 28.6581 38.0218 26.0266 41.3024 26.0266C44.583 26.0266 47.2493 28.6581 47.2493 31.8553V31.9145C47.2493 32.2138 47.2493 32.7599 46.8826 32.9309L46.8569 32.9539C46.8232 32.9814 46.7846 33.0016 46.7431 33.0135C46.7017 33.0254 46.6583 33.0286 46.6157 33.023C46.2181 32.9358 45.8443 32.7596 45.5212 32.5071C45.1981 32.2546 44.9337 31.932 44.747 31.5626C44.6541 31.3984 44.5745 31.2268 44.509 31.0494V31.0165C43.9912 29.6186 43.7307 29.4738 43.6631 29.4607C42.8907 29.6228 42.1038 29.7022 41.3153 29.6975C40.5235 29.7016 39.7335 29.6223 38.9577 29.4607C38.8998 29.4607 38.6361 29.6186 38.1183 31.0165V31.0494C38.0503 31.2263 37.9697 31.3978 37.8771 31.5626C37.648 31.9789 37.333 32.3392 36.954 32.6184C36.6259 32.8402 36.2571 32.9913 35.8701 33.0625ZM46.7057 32.6645L46.8183 32.9572H46.8376L46.7057 32.6645ZM41.3024 26.6647C38.3627 26.6647 35.973 28.9936 35.973 31.8586C35.9726 32.0331 35.9953 32.2068 36.0406 32.375C36.2257 32.2959 36.4052 32.2035 36.5777 32.0987C36.8818 31.8734 37.1351 31.584 37.3207 31.2501C37.3951 31.1143 37.4606 30.9737 37.5168 30.829V30.7961C37.9253 29.6975 38.3949 28.7008 39.0606 28.8456C40.5333 29.1438 42.0489 29.1438 43.5216 28.8456C44.1874 28.7008 44.6602 29.6975 45.0654 30.7961V30.829C45.1203 30.9743 45.1859 31.115 45.2616 31.2501C45.5289 31.7837 45.9912 32.188 46.5481 32.375C46.5827 32.2309 46.5946 32.0822 46.5835 31.9343V31.8652C46.6317 28.987 44.2388 26.6647 41.3024 26.6647Z" fill="#1D2939"/>
<path d="M39.1883 40.6258L38.0742 41.469L40.2224 44.3324L41.3364 43.4891L39.1883 40.6258Z" fill="#475467"/>
<path d="M40.2427 44.5867C40.1923 44.5859 40.1429 44.5736 40.0986 44.5509C40.0543 44.5282 40.0163 44.4958 39.9879 44.4563L37.7516 41.6371C37.7036 41.5718 37.6832 41.4917 37.6944 41.4128C37.7056 41.3338 37.7475 41.2617 37.812 41.2107L38.972 40.3802C39.0418 40.3325 39.1282 40.312 39.2134 40.323C39.2551 40.3282 39.2953 40.3413 39.3316 40.3616C39.3679 40.3818 39.3995 40.4087 39.4246 40.4407L41.6609 43.2567C41.7116 43.3216 41.7343 43.4024 41.7246 43.4826C41.7113 43.5635 41.6657 43.6365 41.5972 43.6863L40.4372 44.5167C40.3827 44.5605 40.3141 44.5852 40.2427 44.5867ZM38.4557 41.5226L40.3031 43.8517L40.9468 43.3903L39.0994 41.0644L38.4557 41.5226Z" fill="#1D2939"/>
<path d="M41.3274 43.4849L42.4414 44.3281L44.5896 41.4647L43.4755 40.6215L41.3274 43.4849Z" fill="#475467"/>
<path d="M42.4931 44.5867C42.4269 44.5863 42.3624 44.5651 42.3088 44.5261L41.2127 43.6929C41.1478 43.643 41.1045 43.5698 41.0919 43.4886C41.0827 43.4081 41.1043 43.3271 41.1523 43.262L43.2715 40.4369C43.322 40.375 43.3938 40.3345 43.4726 40.3232C43.5515 40.312 43.6316 40.3309 43.6972 40.3763L44.7966 41.2094C44.8581 41.2601 44.8985 41.3323 44.9097 41.4115C44.9209 41.4907 44.902 41.5712 44.8569 41.6372L42.7377 44.4559C42.7094 44.4948 42.6727 44.5268 42.6304 44.5495C42.588 44.5722 42.5411 44.5849 42.4931 44.5867ZM41.8227 43.3865L42.4327 43.8493L44.1834 41.5127L43.5606 41.053L41.8227 43.3865Z" fill="#1D2939"/>
<path d="M45.6692 47.7867C45.5847 47.7867 45.5037 47.7528 45.4439 47.6925C45.3842 47.6321 45.3506 47.5502 45.3506 47.4649V45.212C45.3368 45.164 45.3342 45.1135 45.343 45.0643C45.3519 45.0152 45.3719 44.9688 45.4016 44.9288C45.4313 44.8888 45.4698 44.8564 45.514 44.834C45.5582 44.8117 45.607 44.8 45.6565 44.8C45.7059 44.8 45.7547 44.8117 45.799 44.834C45.8432 44.8564 45.8817 44.8888 45.9113 44.9288C45.941 44.9688 45.9611 45.0152 45.9699 45.0643C45.9788 45.1135 45.9762 45.164 45.9623 45.212V47.4649C45.9626 47.546 45.9325 47.6241 45.8782 47.6838C45.8238 47.7435 45.7492 47.7802 45.6692 47.7867Z" fill="#1D2939"/>
<path d="M41.204 37.7577C40.8282 37.7757 40.4556 37.683 40.1363 37.4921C39.8169 37.3012 39.5661 37.0211 39.4175 36.6896C39.3847 36.6176 39.3818 36.5363 39.4093 36.4623C39.4368 36.3883 39.4927 36.3272 39.5656 36.2913C39.6403 36.2608 39.7242 36.2585 39.8007 36.2848C39.8771 36.3111 39.9403 36.3642 39.9776 36.4333C40.0768 36.6626 40.2484 36.8563 40.4685 36.987C40.6885 37.1177 40.9458 37.1789 41.204 37.1619C41.4568 37.1718 41.707 37.11 41.9234 36.9842C42.1398 36.8585 42.3127 36.6744 42.4207 36.4549C42.4624 36.4009 42.5213 36.3615 42.5885 36.3425C42.6557 36.3235 42.7276 36.3261 42.7931 36.3499C42.8587 36.3736 42.9143 36.4172 42.9517 36.4741C42.989 36.5309 43.006 36.5979 43.0001 36.6649C42.849 36.9984 42.5971 37.2808 42.2769 37.4756C41.9567 37.6705 41.583 37.7687 41.204 37.7577Z" fill="#1D2939"/>
<path fill-rule="evenodd" clip-rule="evenodd" d="M47.2494 27.3049C47.2494 27.3049 44.645 30.0799 41.4293 30.0799C38.2136 30.0799 37.0547 28.8376 37.0547 27.3049C37.0547 25.7723 38.2136 24.5332 41.4293 24.5332C44.645 24.5332 47.2494 27.3049 47.2494 27.3049Z" fill="#475467"/>
<path d="M41.4105 30.2934C37.2502 30.2934 36.6289 28.3509 36.6289 27.1984C36.6289 26.0459 37.2502 24.1067 41.4105 24.1067C44.7902 24.1067 47.4737 26.8682 47.5908 26.9847C47.6438 27.044 47.6732 27.1206 47.6732 27.2C47.6732 27.2794 47.6438 27.356 47.5908 27.4153C47.4737 27.5319 44.7902 30.2934 41.4105 30.2934ZM41.4105 24.7283C39.5141 24.7283 37.2534 25.1588 37.2534 27.1984C37.2534 29.238 39.5141 29.6718 41.4105 29.6718C43.99 29.6718 46.2116 27.8362 46.9077 27.1984C46.2116 26.5639 43.99 24.7283 41.4105 24.7283Z" fill="#1D2939"/>
<path d="M31.0149 47.7867C30.9304 47.7867 30.8494 47.7528 30.7896 47.6925C30.7299 47.6321 30.6963 47.5502 30.6963 47.4649V45.212C30.6825 45.164 30.6799 45.1135 30.6887 45.0643C30.6976 45.0152 30.7176 44.9688 30.7473 44.9288C30.777 44.8888 30.8155 44.8564 30.8597 44.834C30.9039 44.8117 30.9527 44.8 31.0022 44.8C31.0516 44.8 31.1004 44.8117 31.1447 44.834C31.1889 44.8564 31.2274 44.8888 31.257 44.9288C31.2867 44.9688 31.3068 45.0152 31.3156 45.0643C31.3245 45.1135 31.3219 45.164 31.308 45.212V47.4649C31.3083 47.546 31.2782 47.6241 31.2239 47.6838C31.1696 47.7435 31.0949 47.7802 31.0149 47.7867Z" fill="#1D2939"/>
<path d="M30.8943 32H19.2129V45.44H30.8943V32Z" fill="#475467"/>
<path d="M30.9974 45.8666H19.3212C19.236 45.8666 19.1543 45.8326 19.0941 45.772C19.0338 45.7114 19 45.6292 19 45.5435V32.1098C19 32.0241 19.0338 31.9419 19.0941 31.8813C19.1543 31.8207 19.236 31.7866 19.3212 31.7866H30.9974C31.0826 31.7866 31.1643 31.8207 31.2245 31.8813C31.2847 31.9419 31.3186 32.0241 31.3186 32.1098V45.5564C31.3153 45.6398 31.28 45.7188 31.2201 45.7766C31.1602 45.8344 31.0804 45.8667 30.9974 45.8666ZM19.6328 45.2462H30.6986V32.4232H19.6328V45.2462Z" fill="#1D2939"/>
<path d="M32.17 47.3507V45.9703C32.17 45.5702 32.0882 45.1741 31.9293 44.8045C31.7704 44.4349 31.5374 44.0991 31.2438 43.8163C30.9501 43.5334 30.6015 43.309 30.2178 43.1559C29.8341 43.0028 29.4229 42.924 29.0076 42.924H26.9167V41.6158C26.4095 41.9866 25.7972 42.2 25.1612 42.2275C24.535 42.1919 23.9351 41.973 23.4415 41.6001H23.4057V42.9334H21.3148C20.4761 42.9334 19.6717 43.2544 19.0786 43.8257C18.4855 44.397 18.1523 45.1718 18.1523 45.9797V47.3601L32.17 47.3507Z" fill="#FCE8CB"/>
<path d="M32.061 47.7867H18.2604C18.1753 47.7867 18.0936 47.7522 18.0335 47.6909C17.9733 47.6295 17.9395 47.5463 17.9395 47.4596V46.0205C17.9471 45.0995 18.311 44.2187 18.9522 43.5695C19.5934 42.9204 20.4601 42.5553 21.3639 42.5536H23.1163V41.5004C23.1163 41.4137 23.1501 41.3305 23.2103 41.2691C23.2705 41.2078 23.3521 41.1733 23.4372 41.1733H23.4725C23.5361 41.1729 23.5981 41.1935 23.649 41.2322C24.0846 41.5812 24.6141 41.7865 25.1671 41.8209C25.731 41.7926 26.2729 41.5894 26.7205 41.2388C26.7676 41.2101 26.8211 41.1943 26.8759 41.1927C26.9308 41.1911 26.9851 41.2039 27.0337 41.2298C27.0823 41.2557 27.1236 41.2939 27.1536 41.3407C27.1836 41.3875 27.2013 41.4414 27.2051 41.4971V42.5536H28.9575C29.8657 42.5553 30.7362 42.924 31.3782 43.5788C32.0201 44.2336 32.3811 45.1211 32.3819 46.0467V47.4858C32.3755 47.5679 32.3388 47.6445 32.2793 47.7003C32.2198 47.7561 32.1418 47.7869 32.061 47.7867ZM18.5589 47.1587H31.7497V46.0336C31.7497 45.2751 31.4542 44.5477 30.9283 44.0111C30.4023 43.4745 29.6889 43.1726 28.9446 43.1717H26.8842C26.799 43.1717 26.7174 43.1373 26.6572 43.0759C26.597 43.0146 26.5632 42.9314 26.5632 42.8447V42.0401C26.1282 42.2886 25.64 42.4245 25.1414 42.4358C24.6407 42.4217 24.1517 42.2788 23.7197 42.0205V42.8806C23.7197 42.9674 23.6858 43.0506 23.6257 43.1119C23.5655 43.1733 23.4838 43.2077 23.3987 43.2077H21.3383C20.594 43.2086 19.8805 43.5105 19.3546 44.0471C18.8286 44.5837 18.5332 45.3111 18.5332 46.0696L18.5589 47.1587Z" fill="#1D2939"/>
<path d="M32.17 47.3472V45.952C32.17 45.5485 32.0883 45.1491 31.9295 44.7763C31.7708 44.4036 31.538 44.0649 31.2446 43.7797C30.9513 43.4944 30.603 43.2681 30.2196 43.1137C29.8363 42.9593 29.4254 42.8799 29.0105 42.8799H28.5094L26.3391 45.6799L25.2198 44.8604L24.0972 45.6799L21.9399 42.8925H21.3119C20.4739 42.8925 19.6703 43.2162 19.0777 43.7923C18.4852 44.3685 18.1523 45.1499 18.1523 45.9646V47.3599L32.17 47.3472Z" fill="#F16C7A"/>
<path d="M32.061 47.7867H18.2604C18.1753 47.7867 18.0936 47.753 18.0335 47.693C17.9733 47.633 17.9395 47.5516 17.9395 47.4667V46.0555C17.9479 45.155 18.3122 44.294 18.9533 43.6596C19.5945 43.0251 20.4606 42.6684 21.3639 42.6667H21.9833C22.0477 42.6687 22.1099 42.6899 22.162 42.7276C22.214 42.7652 22.2536 42.8176 22.2754 42.8779L24.1722 45.3835L25.0323 44.7435C25.0867 44.705 25.1517 44.6842 25.2185 44.6842C25.2852 44.6842 25.3503 44.705 25.4046 44.7435L26.2615 45.3835L28.1872 42.8555C28.2094 42.8004 28.2474 42.7531 28.2965 42.7195C28.3456 42.6859 28.4036 42.6675 28.4632 42.6667H28.9575C29.8652 42.6684 30.7352 43.0287 31.3771 43.6687C32.0189 44.3086 32.3802 45.1761 32.3819 46.0811V47.4923C32.3755 47.5727 32.3388 47.6477 32.2793 47.7022C32.2198 47.7568 32.1418 47.787 32.061 47.7867ZM18.5589 47.1723H31.7497V46.0683C31.7488 45.3269 31.453 44.616 30.9271 44.0916C30.4013 43.5673 29.6883 43.2724 28.9446 43.2715H28.6237L26.5696 45.9883C26.5185 46.0512 26.4454 46.0925 26.365 46.1038C26.2846 46.1151 26.2029 46.0955 26.1364 46.0491L25.2185 45.3579L24.2974 46.0491C24.2308 46.0955 24.1491 46.1151 24.0687 46.1038C23.9883 46.0925 23.9152 46.0512 23.8641 45.9883L21.81 43.2715H21.3639C20.6202 43.2724 19.9073 43.5673 19.3814 44.0916C18.8555 44.616 18.5597 45.3269 18.5589 46.0683V47.1723Z" fill="#1D2939"/>
<path fill-rule="evenodd" clip-rule="evenodd" d="M21.1248 35.0933C21.1248 35.3253 21.0501 35.5522 20.9101 35.7451C20.7701 35.9381 20.571 36.0885 20.3382 36.1773C20.1053 36.2661 19.8491 36.2893 19.6019 36.244C19.3547 36.1988 19.1276 36.087 18.9494 35.9229C18.7712 35.7588 18.6498 35.5498 18.6007 35.3222C18.5515 35.0946 18.5767 34.8586 18.6732 34.6442C18.7696 34.4298 18.933 34.2466 19.1425 34.1177C19.3521 33.9887 19.5985 33.9199 19.8505 33.9199C20.1885 33.9199 20.5126 34.0435 20.7516 34.2636C20.9906 34.4836 21.1248 34.7821 21.1248 35.0933Z" fill="#FCE8CB"/>
<path d="M19.7486 36.6932C19.4333 36.6938 19.1248 36.6005 18.8624 36.4249C18.5999 36.2494 18.3952 35.9995 18.2742 35.707C18.1533 35.4145 18.1214 35.0925 18.1828 34.7818C18.2441 34.4712 18.3959 34.1858 18.6189 33.9618C18.8419 33.7378 19.126 33.5854 19.4353 33.5237C19.7446 33.4621 20.0652 33.4941 20.3564 33.6156C20.6476 33.7371 20.8963 33.9427 21.0711 34.2063C21.2459 34.47 21.3388 34.7798 21.3382 35.0965C21.3373 35.5197 21.1695 35.9253 20.8716 36.2245C20.5737 36.5238 20.1699 36.6923 19.7486 36.6932ZM19.7486 34.1412C19.5605 34.1412 19.3766 34.1972 19.2202 34.3022C19.0638 34.4072 18.9419 34.5564 18.8699 34.7309C18.7979 34.9055 18.7791 35.0976 18.8158 35.2829C18.8525 35.4682 18.943 35.6384 19.0761 35.772C19.2091 35.9056 19.3785 35.9966 19.563 36.0335C19.7475 36.0703 19.9388 36.0514 20.1126 35.9791C20.2863 35.9068 20.4349 35.7844 20.5394 35.6273C20.6439 35.4702 20.6997 35.2854 20.6997 35.0965C20.7014 34.9699 20.6781 34.8443 20.6311 34.7268C20.5841 34.6094 20.5144 34.5025 20.4259 34.4123C20.3374 34.3222 20.2319 34.2506 20.1157 34.2018C19.9994 34.153 19.8746 34.1278 19.7486 34.1278V34.1412Z" fill="#1D2939"/>
<path d="M23.0789 42.0455L21.9648 42.8887L24.113 45.752L25.227 44.9088L23.0789 42.0455Z" fill="#475467"/>
<path d="M24.1817 46.0801C24.1346 46.0794 24.0881 46.0682 24.0458 46.0472C24.0035 46.0263 23.9664 45.9961 23.9372 45.9589L21.819 43.1361C21.773 43.07 21.7536 42.9888 21.7648 42.9089C21.776 42.829 21.8169 42.7563 21.8794 42.7055L22.9781 41.8762C23.0429 41.828 23.1235 41.8063 23.2036 41.8156C23.2844 41.8282 23.3572 41.8716 23.4069 41.9368L25.525 44.7596C25.5719 44.8251 25.5923 44.9061 25.5822 44.9861C25.5704 45.0667 25.5284 45.1398 25.4647 45.1902L24.3659 46.0195C24.3123 46.0585 24.2479 46.0797 24.1817 46.0801ZM22.4923 43.0117L24.2421 45.3433L24.8518 44.884L23.102 42.5492L22.4923 43.0117Z" fill="#1D2939"/>
<path d="M25.216 44.9102L26.3301 45.7534L28.4782 42.89L27.3642 42.0468L25.216 44.9102Z" fill="#475467"/>
<path d="M26.3494 46.0799C26.2833 46.0795 26.2189 46.0583 26.1653 46.0193L25.0672 45.1864C25.0036 45.1359 24.9616 45.0628 24.9498 44.9822C24.9397 44.9021 24.9601 44.8211 25.0069 44.7556L27.1238 41.9315C27.1743 41.8687 27.2466 41.8276 27.3261 41.8163C27.4056 41.8051 27.4864 41.8246 27.5522 41.8708L28.6503 42.7005C28.714 42.751 28.756 42.8241 28.7677 42.9047C28.7779 42.9848 28.7575 43.0658 28.7106 43.1313L26.5938 45.9554C26.5649 45.9932 26.5279 46.024 26.4856 46.0455C26.4433 46.0671 26.3968 46.0788 26.3494 46.0799ZM25.6798 44.8832L26.2891 45.3428L28.0378 43.01L27.4157 42.5473L25.6798 44.8832Z" fill="#1D2939"/>
<path fill-rule="evenodd" clip-rule="evenodd" d="M31.744 35.0933C31.744 35.3253 31.6692 35.5522 31.5292 35.7451C31.3892 35.9381 31.1902 36.0885 30.9573 36.1773C30.7245 36.2661 30.4682 36.2893 30.221 36.244C29.9738 36.1988 29.7468 36.087 29.5686 35.9229C29.3903 35.7588 29.269 35.5498 29.2198 35.3222C29.1706 35.0946 29.1959 34.8586 29.2923 34.6442C29.3888 34.4298 29.5521 34.2466 29.7617 34.1177C29.9712 33.9887 30.2176 33.9199 30.4697 33.9199C30.8076 33.9199 31.1318 34.0435 31.3707 34.2636C31.6097 34.4836 31.744 34.7821 31.744 35.0933Z" fill="#FCE8CB"/>
<path d="M30.5773 36.6934C30.2622 36.6934 29.9543 36.5996 29.6923 36.4238C29.4304 36.2479 29.2262 35.9981 29.1056 35.7057C28.9851 35.4133 28.9535 35.0916 29.015 34.7813C29.0764 34.4709 29.2282 34.1858 29.4509 33.962C29.6737 33.7383 29.9575 33.5859 30.2665 33.5242C30.5755 33.4624 30.8958 33.4941 31.1869 33.6152C31.478 33.7363 31.7267 33.9414 31.9018 34.2045C32.0768 34.4676 32.1702 34.777 32.1702 35.0934C32.1702 35.5178 32.0024 35.9247 31.7037 36.2248C31.4049 36.5248 30.9998 36.6934 30.5773 36.6934ZM30.5773 34.1414C30.389 34.1414 30.205 34.1975 30.0486 34.3027C29.8921 34.4078 29.7702 34.5572 29.6983 34.7319C29.6264 34.9067 29.6078 35.099 29.6447 35.2844C29.6817 35.4698 29.7726 35.64 29.906 35.7734C30.0393 35.9069 30.2091 35.9976 30.3938 36.0341C30.5785 36.0706 30.7698 36.0512 30.9436 35.9784C31.1173 35.9056 31.2656 35.7826 31.3697 35.6251C31.4738 35.4675 31.5291 35.2825 31.5284 35.0934C31.524 34.8429 31.4219 34.6042 31.244 34.4287C31.0661 34.2531 30.8267 34.1547 30.5773 34.1548V34.1414Z" fill="#1D2939"/>
<path d="M30.6829 34.5254C30.6829 37.5709 27.7491 42.2401 25.1608 42.2401C22.6931 42.2401 19.6387 37.5709 19.6387 34.5254C19.6387 33.0635 20.2205 31.6615 21.2561 30.6278C22.2917 29.5941 23.6962 29.0134 25.1608 29.0134C26.6254 29.0134 28.0299 29.5941 29.0655 30.6278C30.1011 31.6615 30.6829 33.0635 30.6829 34.5254Z" fill="#FCE8CB"/>
<path d="M25.1603 42.4534C22.5013 42.4534 19.4258 37.6661 19.4258 34.5397C19.4258 33.786 19.5741 33.0396 19.8623 32.3432C20.1505 31.6469 20.5729 31.0141 21.1054 30.4812C21.6379 29.9482 22.27 29.5254 22.9658 29.237C23.6615 28.9485 24.4072 28.8 25.1603 28.8C25.9134 28.8 26.6591 28.9485 27.3548 29.237C28.0505 29.5254 28.6827 29.9482 29.2152 30.4812C29.7477 31.0141 30.1701 31.6469 30.4583 32.3432C30.7465 33.0396 30.8948 33.786 30.8948 34.5397C30.8948 37.7334 27.8738 42.4534 25.1603 42.4534ZM25.1603 29.4189C23.8008 29.4189 22.4971 29.9594 21.5358 30.9216C20.5745 31.8837 20.0345 33.1887 20.0345 34.5493C20.0345 37.323 22.8921 41.8441 25.1603 41.8441C27.4829 41.8441 30.2861 37.355 30.2861 34.5493C30.2861 33.1887 29.7461 31.8837 28.7848 30.9216C27.8235 29.9594 26.5197 29.4189 25.1603 29.4189Z" fill="#1D2939"/>
<path d="M23.6752 34.4533C23.6752 34.5585 23.6442 34.6614 23.5862 34.7489C23.5281 34.8365 23.4456 34.9048 23.3489 34.9454C23.2523 34.9859 23.1458 34.9969 23.043 34.9768C22.9402 34.9567 22.8456 34.9066 22.7711 34.8326C22.6966 34.7587 22.6455 34.6643 22.6243 34.5613C22.6031 34.4582 22.6127 34.3512 22.6519 34.2536C22.6911 34.1561 22.7581 34.0723 22.8446 34.013C22.9311 33.9536 23.0331 33.9212 23.1378 33.92C23.2081 33.9191 23.2778 33.9323 23.343 33.9587C23.4082 33.9851 23.4675 34.0243 23.5174 34.0739C23.5674 34.1235 23.6071 34.1826 23.6342 34.2477C23.6613 34.3128 23.6752 34.3827 23.6752 34.4533Z" fill="#1D2939"/>
<path d="M27.7084 34.4533C27.7084 34.5591 27.6771 34.6624 27.6185 34.7503C27.5598 34.8381 27.4765 34.9064 27.3791 34.9466C27.2817 34.9868 27.1747 34.997 27.0715 34.9759C26.9683 34.9547 26.8737 34.9033 26.7997 34.8281C26.7257 34.7528 26.6757 34.6572 26.6559 34.5533C26.6362 34.4494 26.6476 34.342 26.6888 34.2447C26.7299 34.1473 26.799 34.0645 26.8872 34.0067C26.9753 33.9489 27.0786 33.9187 27.1839 33.92C27.3236 33.9217 27.457 33.9786 27.5552 34.0784C27.6534 34.1783 27.7084 34.313 27.7084 34.4533Z" fill="#1D2939"/>
<path d="M23.037 36.0533C23.037 36.4049 22.6578 36.6933 22.1889 36.6933C21.7201 36.6933 21.3379 36.3929 21.3379 36.0533C21.3379 35.7138 21.7171 35.4133 22.1889 35.4133C22.6608 35.4133 23.037 35.6988 23.037 36.0533Z" fill="#F5978A"/>
<path d="M28.9843 36.0533C28.9843 36.4049 28.605 36.6933 28.1332 36.6933C27.6614 36.6933 27.2852 36.3929 27.2852 36.0533C27.2852 35.7138 27.6644 35.4133 28.1332 35.4133C28.602 35.4133 28.9843 35.6988 28.9843 36.0533Z" fill="#F5978A"/>
<path d="M25.1573 39.2508C24.8012 39.2705 24.4481 39.1743 24.1455 38.9753C23.843 38.7762 23.6056 38.4839 23.4656 38.1379C23.454 38.0686 23.4642 37.9971 23.4947 37.9345C23.5252 37.872 23.5743 37.8217 23.6345 37.7913C23.6947 37.761 23.7627 37.7524 23.828 37.7668C23.8933 37.7812 23.9523 37.8177 23.996 37.8709C24.089 38.1107 24.2513 38.3135 24.4598 38.4503C24.6683 38.5872 24.9123 38.6512 25.1573 38.6332C25.3967 38.6435 25.6336 38.5791 25.8385 38.4481C26.0434 38.3171 26.2072 38.1253 26.3094 37.8966C26.3489 37.8404 26.4047 37.7992 26.4684 37.7795C26.532 37.7597 26.6 37.7624 26.6621 37.7872C26.7241 37.8119 26.7769 37.8573 26.8122 37.9166C26.8476 37.9758 26.8637 38.0456 26.8581 38.1154C26.7138 38.4618 26.4749 38.7548 26.1719 38.9571C25.869 39.1594 25.5157 39.2617 25.1573 39.2508Z" fill="#1D2939"/>
<path d="M31.3208 32.5243C31.3208 33.0676 31.2505 33.6086 31.1119 34.1333C29.7391 33.4575 28.437 32.6424 27.2253 31.7005C26.8676 31.427 26.5195 31.1438 26.1871 30.8413C25.7744 30.4764 25.3903 30.0794 25.0382 29.6538C24.2986 28.709 23.6964 27.6611 23.25 26.542C24.1767 26.2388 25.1607 26.1625 26.1219 26.3194C27.083 26.4763 27.9941 26.8618 28.7809 27.4447C29.5677 28.0276 30.2078 28.7912 30.6492 29.6734C31.0906 30.5556 31.3207 31.5313 31.3208 32.5211V32.5243Z" fill="#475467"/>
<path d="M31.2208 34.3466C31.1735 34.3451 31.127 34.3342 31.0841 34.3143C29.655 33.6257 28.2982 32.7983 27.0338 31.8442C26.6238 31.5218 26.266 31.2477 25.9504 30.9671C25.5151 30.5909 25.1095 30.1824 24.7369 29.745C23.9551 28.776 23.3195 27.6995 22.85 26.5494C22.833 26.5096 22.8242 26.4668 22.8242 26.4236C22.8242 26.3804 22.833 26.3376 22.85 26.2979C22.8685 26.2588 22.8948 26.2239 22.9272 26.1951C22.9596 26.1663 22.9975 26.1442 23.0387 26.1302C24.0383 25.8117 25.0997 25.7318 26.1364 25.897C27.1731 26.0621 28.1557 26.4677 29.0043 27.0806C29.8529 27.6935 30.5434 28.4965 31.0196 29.424C31.4958 30.3516 31.7442 31.3775 31.7446 32.4182C31.7455 32.991 31.67 33.5613 31.5201 34.1144C31.509 34.1591 31.4877 34.2007 31.4578 34.2359C31.4279 34.2711 31.3902 34.2991 31.3477 34.3175C31.3081 34.3365 31.2647 34.3465 31.2208 34.3466ZM23.569 26.6268C23.9935 27.603 24.5482 28.5184 25.2184 29.3484C25.5707 29.7608 25.9535 30.1467 26.3636 30.5028C26.6694 30.7737 27.0142 31.0478 27.4144 31.3509C28.5362 32.2012 29.7341 32.9481 30.993 33.5823C31.0686 33.1988 31.1067 32.809 31.1069 32.4182C31.1069 30.8315 30.4712 29.3097 29.3395 28.1874C28.2079 27.0651 26.6729 26.4342 25.072 26.4333C24.5647 26.4336 24.0595 26.4986 23.569 26.6268Z" fill="#1D2939"/>
<path d="M29.6113 28.182C28.5264 29.1518 27.3561 30.0236 26.1142 30.7871C23.8736 32.1414 21.4974 33.2627 19.0237 34.1333C18.8687 33.5845 18.7897 33.0173 18.7891 32.4475C18.7894 31.2049 19.1664 29.991 19.8714 28.9628C20.5764 27.9346 21.5769 27.1394 22.7435 26.68C23.9101 26.2206 25.1892 26.1181 26.4152 26.3859C27.6413 26.6536 28.758 27.2793 29.6209 28.182H29.6113Z" fill="#475467"/>
<path d="M19.1197 34.5601C19.0713 34.5598 19.0238 34.5475 18.9812 34.5242C18.9429 34.5052 18.909 34.4782 18.8818 34.4449C18.8546 34.4117 18.8347 34.3729 18.8234 34.3311C18.4235 32.8894 18.5106 31.3532 19.0708 29.9677C19.631 28.5822 20.632 27.4273 21.9139 26.6876C23.1959 25.9479 24.6848 25.6659 26.1429 25.8867C27.6011 26.1075 28.9443 26.8184 29.9582 27.9058C30.0154 27.9677 30.0465 28.0499 30.0452 28.1348C30.0406 28.2197 30.0036 28.2995 29.9421 28.3572C28.8434 29.3677 27.658 30.2765 26.4001 31.0727C24.1311 32.4744 21.7246 33.6322 19.2195 34.5274C19.1882 34.5438 19.1545 34.5549 19.1197 34.5601ZM25.1701 26.4401C24.5478 26.4389 23.9294 26.5383 23.3379 26.7345C22.1329 27.1254 21.0818 27.8962 20.3372 28.9351C19.5926 29.974 19.1932 31.227 19.1969 32.5121C19.1959 32.9524 19.2434 33.3913 19.3386 33.8208C21.6846 32.9576 23.9383 31.8549 26.0652 30.5296C27.2018 29.812 28.2787 29.0012 29.2852 28.1053C28.1753 27.027 26.696 26.4298 25.1604 26.4401H25.1701Z" fill="#1D2939"/>
<path d="M10.9829 4.02344H5.14216C4.70229 4.02344 4.3457 4.38161 4.3457 4.82344V9.4101C4.3457 9.85193 4.70229 10.2101 5.14216 10.2101H10.9829C11.4227 10.2101 11.7793 9.85193 11.7793 9.4101V4.82344C11.7793 4.38161 11.4227 4.02344 10.9829 4.02344Z" fill="#FCE8CB"/>
<path d="M10.9831 10.5303H5.14239C4.84703 10.5303 4.56373 10.4126 4.35468 10.203C4.14563 9.99341 4.02791 9.70909 4.02734 9.41241V4.82361C4.02791 4.52674 4.14556 4.24219 4.35455 4.03228C4.56354 3.82236 4.84683 3.70418 5.14239 3.70361H10.9831C11.2787 3.70418 11.5619 3.82236 11.7709 4.03228C11.9799 4.24219 12.0976 4.52674 12.0981 4.82361V9.41241C12.0976 9.70909 11.9799 9.99341 11.7708 10.203C11.5617 10.4126 11.2785 10.5303 10.9831 10.5303ZM5.14239 4.34361C5.01565 4.34361 4.8941 4.39418 4.80448 4.4842C4.71486 4.57422 4.66451 4.69631 4.66451 4.82361V9.41241C4.66451 9.47535 4.67689 9.53766 4.70093 9.59578C4.72497 9.6539 4.7602 9.70667 4.80461 9.75107C4.84901 9.79547 4.90171 9.83063 4.95967 9.85452C5.01764 9.87841 5.07973 9.89056 5.14239 9.89028H10.9831C11.0458 9.89056 11.1078 9.87841 11.1658 9.85452C11.2238 9.83063 11.2765 9.79547 11.3209 9.75107C11.3653 9.70667 11.4005 9.6539 11.4246 9.59578C11.4486 9.53766 11.461 9.47535 11.461 9.41241V4.82361C11.461 4.69631 11.4106 4.57422 11.321 4.4842C11.2314 4.39418 11.1098 4.34361 10.9831 4.34361H5.14239Z" fill="#1D2939"/>
<path d="M11.7796 13.3036H4.34593C4.26143 13.3036 4.1804 13.2699 4.12066 13.2098C4.06091 13.1498 4.02734 13.0684 4.02734 12.9836C4.02734 12.8987 4.06091 12.8173 4.12066 12.7573C4.1804 12.6973 4.26143 12.6636 4.34593 12.6636H11.7796C11.864 12.6636 11.9451 12.6973 12.0048 12.7573C12.0646 12.8173 12.0981 12.8987 12.0981 12.9836C12.0981 13.0684 12.0646 13.1498 12.0048 13.2098C11.9451 13.2699 11.864 13.3036 11.7796 13.3036Z" fill="#1D2939"/>
<path d="M11.7796 16.7167H4.34593C4.26143 16.7167 4.1804 16.6829 4.12066 16.6229C4.06091 16.5629 4.02734 16.4815 4.02734 16.3967C4.02734 16.3118 4.06091 16.2304 4.12066 16.1704C4.1804 16.1104 4.26143 16.0767 4.34593 16.0767H11.7796C11.864 16.0767 11.9451 16.1104 12.0048 16.1704C12.0646 16.2304 12.0981 16.3118 12.0981 16.3967C12.0981 16.4815 12.0646 16.5629 12.0048 16.6229C11.9451 16.6829 11.864 16.7167 11.7796 16.7167Z" fill="#1D2939"/>
<path d="M11.7796 20.1302H4.34593C4.26143 20.1302 4.1804 20.0965 4.12066 20.0365C4.06091 19.9765 4.02734 19.8951 4.02734 19.8102C4.02734 19.7254 4.06091 19.644 4.12066 19.584C4.1804 19.5239 4.26143 19.4902 4.34593 19.4902H11.7796C11.864 19.4902 11.9451 19.5239 12.0048 19.584C12.0646 19.644 12.0981 19.7254 12.0981 19.8102C12.0981 19.8951 12.0646 19.9765 12.0048 20.0365C11.9451 20.0965 11.864 20.1302 11.7796 20.1302Z" fill="#1D2939"/>
<path d="M43.9047 4.02344H38.064C37.6242 4.02344 37.2676 4.38161 37.2676 4.82344V9.4101C37.2676 9.85193 37.6242 10.2101 38.064 10.2101H43.9047C44.3446 10.2101 44.7012 9.85193 44.7012 9.4101V4.82344C44.7012 4.38161 44.3446 4.02344 43.9047 4.02344Z" fill="#FCE8CB"/>
<path d="M43.903 10.53H38.0623C37.7669 10.53 37.4837 10.4123 37.2746 10.2028C37.0656 9.99317 36.9478 9.70884 36.9473 9.41217V4.82337C36.9478 4.5265 37.0655 4.24195 37.2745 4.03203C37.4835 3.82211 37.7668 3.70393 38.0623 3.70337H43.903C44.1986 3.70393 44.4819 3.82211 44.6909 4.03203C44.8998 4.24195 45.0175 4.5265 45.0181 4.82337V9.41217C45.0175 9.70884 44.8998 9.99317 44.6907 10.2028C44.4817 10.4123 44.1984 10.53 43.903 10.53ZM38.0623 4.34337C37.9356 4.34337 37.814 4.39394 37.7244 4.48396C37.6348 4.57398 37.5844 4.69607 37.5844 4.82337V9.41217C37.5844 9.4751 37.5968 9.53742 37.6209 9.59553C37.6449 9.65365 37.6801 9.70643 37.7245 9.75083C37.7689 9.79523 37.8216 9.83039 37.8796 9.85427C37.9376 9.87816 37.9997 9.89032 38.0623 9.89004H43.903C43.9657 9.89032 44.0278 9.87816 44.0857 9.85427C44.1437 9.83039 44.1964 9.79523 44.2408 9.75083C44.2852 9.70643 44.3204 9.65365 44.3445 9.59553C44.3685 9.53742 44.3809 9.4751 44.3809 9.41217V4.82337C44.3809 4.69607 44.3305 4.57398 44.2409 4.48396C44.1513 4.39394 44.0298 4.34337 43.903 4.34337H38.0623Z" fill="#1D2939"/>
<path d="M44.6995 13.3036H37.2658C37.1814 13.3036 37.1003 13.2699 37.0406 13.2098C36.9808 13.1498 36.9473 13.0684 36.9473 12.9836C36.9473 12.8987 36.9808 12.8173 37.0406 12.7573C37.1003 12.6973 37.1814 12.6636 37.2658 12.6636H44.6995C44.784 12.6636 44.865 12.6973 44.9247 12.7573C44.9845 12.8173 45.0181 12.8987 45.0181 12.9836C45.0181 13.0684 44.9845 13.1498 44.9247 13.2098C44.865 13.2699 44.784 13.3036 44.6995 13.3036Z" fill="#1D2939"/>
<path d="M44.6995 16.7169H37.2658C37.1814 16.7169 37.1003 16.6832 37.0406 16.6232C36.9808 16.5632 36.9473 16.4818 36.9473 16.3969C36.9473 16.312 36.9808 16.2306 37.0406 16.1706C37.1003 16.1106 37.1814 16.0769 37.2658 16.0769H44.6995C44.784 16.0769 44.865 16.1106 44.9247 16.1706C44.9845 16.2306 45.0181 16.312 45.0181 16.3969C45.0181 16.4818 44.9845 16.5632 44.9247 16.6232C44.865 16.6832 44.784 16.7169 44.6995 16.7169Z" fill="#1D2939"/>
<path d="M44.6995 20.1302H37.2658C37.1814 20.1302 37.1003 20.0965 37.0406 20.0365C36.9808 19.9765 36.9473 19.8951 36.9473 19.8102C36.9473 19.7254 36.9808 19.644 37.0406 19.584C37.1003 19.5239 37.1814 19.4902 37.2658 19.4902H44.6995C44.784 19.4902 44.865 19.5239 44.9247 19.584C44.9845 19.644 45.0181 19.7254 45.0181 19.8102C45.0181 19.8951 44.9845 19.9765 44.9247 20.0365C44.865 20.0965 44.784 20.1302 44.6995 20.1302Z" fill="#1D2939"/>
<path d="M44.5706 0.640139H41.3848C42.2635 0.640704 43.1062 0.991445 43.7277 1.61538C44.3493 2.23932 44.699 3.08548 44.7002 3.96814V4.04067C44.9047 4.24941 45.0192 4.5307 45.0187 4.82361V9.41027C45.0192 9.70318 44.9047 9.98447 44.7002 10.1932V12.6636C44.7847 12.6636 44.8657 12.6973 44.9254 12.7573C44.9852 12.8173 45.0187 12.8987 45.0187 12.9836C45.0187 13.0685 44.9852 13.1499 44.9254 13.2099C44.8657 13.2699 44.7847 13.3036 44.7002 13.3036V16.0769C44.7847 16.0769 44.8657 16.1107 44.9254 16.1707C44.9852 16.2307 45.0187 16.3121 45.0187 16.3969C45.0187 16.4818 44.9852 16.5632 44.9254 16.6232C44.8657 16.6832 44.7847 16.7169 44.7002 16.7169V19.4903C44.7847 19.4903 44.8657 19.524 44.9254 19.584C44.9852 19.644 45.0187 19.7254 45.0187 19.8103C45.0187 19.8951 44.9852 19.9765 44.9254 20.0365C44.8657 20.0966 44.7847 20.1303 44.7002 20.1303V24.9772C45.7395 25.5108 46.6897 26.204 47.5164 27.0316C47.5729 27.0911 47.6044 27.1702 47.6044 27.2524C47.6044 27.3346 47.5729 27.4137 47.5164 27.4732C47.1094 27.8847 46.6689 28.2615 46.1996 28.5996C46.8871 29.5626 47.2583 30.717 47.2616 31.902V31.9617C47.2666 32.0992 47.2616 32.2368 47.2467 32.3735C47.436 32.459 47.6064 32.5816 47.748 32.734C47.8437 32.4194 47.8924 32.0923 47.8924 31.7633V3.96814C47.8918 3.53054 47.8055 3.09734 47.6382 2.69326C47.471 2.28919 47.2261 1.92215 46.9177 1.61312C46.6092 1.30409 46.2432 1.0591 45.8405 0.89216C45.4378 0.725215 45.0063 0.639579 44.5706 0.640139Z" fill="#FF8C4B"/>
</g>
<defs>
<clipPath id="clip0_1649_178678">
<rect width="48" height="48" fill="white" transform="translate(0.523438)"/>
</clipPath>
</defs>
</svg>